<svg className="fill-current text-blue-500" width="107" height="192" viewBox="0 0 107 192" fill="none" xmlns="http://www.w3.org/2000/svg">
<path d="M8.00277 95.6992C10.993 92.3896 14.2433 92.267 18.6636 92.267C22.954 92.267 27.1143 92.6347 31.2746 93.4928C38.8153 95.0863 46.0958 98.396 53.1164 101.583C59.7469 104.648 66.7675 108.202 72.488 112.615C75.6082 114.944 78.9885 117.151 80.4186 120.706C81.3287 122.789 81.1986 124.751 79.5085 126.712C77.4283 129.041 74.4381 128.428 71.8379 127.08C65.8574 123.893 59.7469 121.073 53.2464 118.622C44.9257 115.557 36.7351 112.615 28.0244 110.409C22.1739 108.938 16.1934 107.467 10.2129 107.467C9.95293 107.344 9.5629 107.344 9.17287 107.222C8.78283 106.731 8.00277 106.486 7.48273 106.854C7.35272 106.854 7.0927 106.731 6.96269 106.731C6.70267 106.486 6.31264 106.364 5.9226 106.364C4.88252 105.873 4.10246 105.26 3.84244 104.525C2.80236 101.706 6.31264 97.5379 8.00277 95.6992ZM23.214 70.4477C24.9041 70.6929 26.5943 70.9381 28.2844 71.6735C32.1847 73.5122 34.3949 76.0864 36.9951 79.0283C40.8954 83.3186 44.7957 85.8928 50.7762 85.5251C57.9268 85.0348 65.2074 82.9509 72.488 84.0541C76.5183 84.5444 80.0286 86.2606 82.6288 89.3251C84.1889 91.2864 84.7089 93.2476 84.969 95.5767C83.9289 98.7637 82.7588 101.951 81.7187 105.138C80.6786 108.325 80.0286 111.512 79.3785 114.699C73.008 109.06 65.3374 104.77 57.7968 100.97C49.6061 96.8024 40.8954 93.0025 31.9247 90.9186C27.6343 89.938 23.344 89.3251 18.9236 89.2025C17.1035 89.2025 15.2834 89.0799 13.5932 89.2025C16.9735 83.0735 20.0937 76.6993 23.214 70.4477ZM32.7048 50.7124C33.0948 50.0995 33.3548 49.4866 33.6148 48.8737C34.6549 49.2414 36.215 50.5898 36.7351 51.0801C38.4252 52.4285 39.4653 54.022 40.2454 55.8607C41.2854 57.9446 41.5455 60.5188 42.7156 62.6026C44.7957 66.5252 50.2562 67.3832 54.5465 67.2607C57.7968 67.1381 61.047 66.5252 64.2973 66.28C68.4576 65.9123 72.3579 66.4026 76.3883 67.5058C79.8985 68.609 83.5388 69.9574 86.009 72.5316C88.2192 74.738 88.8693 77.9251 89.5193 80.867C88.4792 84.7896 87.3091 88.5896 86.009 92.5122C85.229 89.4477 82.7588 86.7509 80.0286 85.0348C73.9181 80.867 66.1174 81.7251 59.2269 82.8283C55.0666 83.4412 49.3461 84.667 45.3158 83.1961C41.1554 81.7251 38.5552 77.4348 35.695 74.4929C33.6148 72.2864 30.7546 70.6929 27.8944 69.5897C26.9843 69.0994 25.5542 68.609 24.2541 68.3639C27.1143 62.48 29.9745 56.5962 32.7048 50.7124ZM44.0157 28.8931C45.8358 29.2609 46.8759 30.1189 48.176 31.0996C49.6061 32.3254 51.1662 33.5512 51.6863 35.5124C51.9463 36.7382 51.9463 37.964 52.2063 39.3124C52.5964 41.0285 52.8564 42.9898 54.4165 44.2156C56.1066 45.6866 59.2269 45.8092 61.5671 45.6866C64.2973 45.6866 67.0275 44.9511 69.7577 44.4608C73.138 43.8479 76.9083 43.7253 80.2886 43.7253C85.619 43.8479 96.5399 45.3188 97.58 51.4478C96.0198 56.8414 94.5897 62.1123 93.1596 67.5058C92.2495 71.0606 91.3395 74.4929 90.2994 77.9251C90.2994 76.5768 90.1694 75.2284 89.6493 74.0026C88.3492 71.4284 85.879 69.3445 83.2788 67.9961C77.2983 64.5639 70.2778 63.3381 63.2572 63.951C59.2269 64.3187 55.3266 65.5445 51.1662 65.0542C48.9561 64.9316 45.9658 64.3187 44.6657 62.3575C43.6256 61.1317 43.2356 59.0478 42.7156 57.5768C41.9355 55.0027 40.7654 52.4285 38.8153 50.3446C37.7752 49.2414 36.215 47.6479 34.5249 47.035C37.5151 41.0285 40.6354 34.8995 44.0157 28.8931ZM55.0666 11.3642C57.4067 12.4674 59.8769 12.9577 61.8271 14.7964C63.7773 16.5125 64.9473 18.3512 66.1174 20.4351C66.7675 21.5383 67.6776 22.519 68.1976 23.7448C68.8477 24.848 69.1077 26.0738 69.7577 27.177C70.7978 28.8931 72.488 30.2415 74.1781 31.3447C78.3384 33.9189 83.1488 34.0415 87.9592 32.9383C90.8194 32.2028 93.6797 31.4673 96.5399 30.7318C98.23 30.2415 100.96 29.506 103.17 29.6286C103.17 34.5318 100.96 40.0479 99.6601 44.4608C99.2701 45.9317 98.7501 47.5253 98.36 49.1188C96.7999 46.4221 93.8097 44.5834 90.9494 43.4801C84.5789 41.0285 76.6483 41.5189 70.1478 42.7447C66.2475 43.6027 61.5671 45.564 57.6668 44.3382C52.3363 42.4995 54.4165 37.7189 53.2464 33.7963C52.5964 31.5899 49.9961 29.8738 48.176 28.4028C47.1359 27.6673 46.2258 27.177 45.1858 27.0544C48.176 21.6609 51.5563 16.39 55.0666 11.3642ZM57.6668 7.80935C58.8369 6.33839 60.007 4.37711 61.9571 3.88679C63.9073 3.39647 66.5075 3.88679 68.3276 4.37711C72.488 5.48033 76.7783 6.70613 80.5486 8.42225C87.6992 11.7319 95.1098 15.8996 100.31 21.6609C102.13 23.6222 102.91 25.8286 103.17 28.1576C100.44 27.9125 97.1899 28.7705 95.1098 29.2609C88.0892 30.977 80.6786 34.1641 74.1781 29.506C69.7577 26.3189 69.2377 20.4351 65.9874 16.2674C64.0373 13.8158 60.527 9.89321 56.7567 9.15773C57.0167 8.66741 57.4067 8.29967 57.6668 7.80935ZM68.9777 130.144C65.3374 136.886 54.6765 141.789 47.0059 137.989C43.6256 136.396 42.3255 132.596 39.4653 130.267C37.1251 128.306 34.5249 126.589 31.2746 126.467C30.8846 126.467 30.6246 127.202 31.1446 127.325C36.6051 128.918 39.5953 132.596 42.8456 136.641C43.6256 137.744 44.6657 138.602 45.8358 139.215C45.1858 140.564 43.4956 141.299 42.1955 141.667C39.4653 142.525 37.1251 141.789 35.0449 140.196C32.9648 138.602 31.6647 136.396 29.1945 135.047C25.8142 133.331 22.3039 133.454 19.1837 135.293C19.1837 134.925 19.3137 134.557 19.3137 134.312C19.1837 133.454 18.9236 132.718 18.6636 131.983C17.6235 129.041 15.6734 126.835 14.1133 124.26C12.5531 121.686 11.6431 118.867 10.603 116.048C9.95293 114.209 8.78283 112.002 8.91284 110.041C9.43289 110.041 9.82292 110.164 10.343 110.164C16.0634 110.899 21.6539 112.125 27.1143 113.718C37.3851 116.415 47.3959 119.847 57.5367 123.035C58.4468 123.402 59.2269 123.893 60.137 124.26C63.3872 125.731 66.3775 127.57 69.4977 129.164C69.4977 129.164 69.4977 129.286 69.4977 129.409C69.4977 129.531 69.4977 129.654 69.3677 129.776C69.2377 129.776 68.9777 129.899 68.9777 130.144ZM56.2366 144.118C52.0763 146.57 47.786 148.163 42.9756 149.022C40.7654 149.512 38.5552 149.88 36.345 150.125C35.175 150.37 33.6148 150.738 32.1847 150.738C32.3147 150.125 32.4447 149.512 32.5747 148.899C32.8348 147.673 33.0948 145.957 32.5747 144.976C30.8846 141.912 26.0742 143.628 24.1241 145.222C23.214 145.957 22.824 147.06 22.6939 148.286C20.2237 147.06 17.6235 144.976 15.9334 143.138C13.0732 140.196 9.82292 136.641 8.52281 132.841C7.35272 129.041 6.31264 125.118 5.53257 121.318C5.01253 118.009 5.53257 114.699 6.44265 111.512C7.22271 114.331 8.65283 117.028 9.95293 119.602C12.5531 125.118 18.6636 130.512 17.3635 136.886C17.2335 137.499 18.0136 137.989 18.5336 137.867C19.8337 137.622 20.7438 136.764 22.0439 136.396C24.6441 135.783 27.6343 136.396 29.7145 137.989C32.4447 140.073 33.7448 142.647 37.2551 143.628C40.2454 144.486 46.8759 143.26 46.8759 139.828C48.696 140.564 50.7762 141.054 52.8564 141.176C56.2366 141.544 59.7469 140.686 62.8672 139.215C60.787 141.054 58.5768 142.647 56.2366 144.118ZM26.2042 172.434C25.9442 175.499 25.5542 178.563 25.0341 181.628C24.9041 182.976 24.9041 187.879 23.9941 188.615C23.214 189.228 18.9236 188.247 18.0136 188.002C16.3234 187.389 16.7135 187.144 16.9735 185.428C17.2335 184.325 17.3635 183.344 17.4935 182.241C18.5336 176.725 20.0937 171.331 21.3938 165.815C21.9139 163.118 22.5639 160.421 23.214 157.602C23.864 154.783 24.1241 151.351 25.1641 148.654C25.6842 147.428 26.5943 146.325 28.1544 146.08C30.4946 145.712 30.4946 146.693 30.3646 148.041C29.9745 148.899 29.5845 149.634 29.3245 150.493C28.8044 152.699 28.5444 155.028 28.1544 157.234C27.3743 162.26 26.5943 167.409 26.2042 172.434ZM0.982212 106.364C1.63226 107.467 2.67234 108.325 3.84244 108.815C2.28231 112.738 1.76227 117.764 2.67234 121.686C3.71243 126.467 4.6225 132.106 7.0927 136.273C9.17287 140.196 12.6831 144.118 16.1934 146.938C17.4935 147.918 20.4838 150.002 22.4339 149.634C22.4339 149.88 22.3039 150.247 22.3039 150.493C21.7839 153.557 21.0038 156.744 20.3538 159.809C19.0537 165.57 17.4935 171.454 16.3234 177.338C15.9334 179.544 15.5434 181.873 15.1533 184.202C14.8933 185.55 13.7232 187.879 14.7633 189.228C15.6734 190.208 17.8836 190.086 19.0537 190.208C20.7438 190.454 23.474 191.802 25.1641 191.189C26.3342 190.576 26.3342 189.35 26.4642 188.247C26.9843 185.55 27.3743 182.854 27.7644 180.157C28.5444 175.131 29.0645 169.983 29.5845 164.834C30.2346 161.77 30.7546 158.705 31.2746 155.641C31.5347 154.415 31.6647 153.312 31.9247 152.086C34.3949 152.699 37.6452 152.209 39.7253 151.963C45.3158 151.351 50.9062 150.125 55.7166 147.428C62.3471 143.873 70.9278 137.989 72.3579 130.389C74.9581 131.37 77.8184 131.493 80.2886 129.899C85.229 126.467 84.4489 120.828 81.3287 116.783C82.3687 113.473 83.0188 110.041 84.0589 106.731C85.489 102.441 87.1791 98.2734 88.6092 93.9831C91.5995 85.6477 93.9397 77.0671 96.2799 68.609C98.49 60.151 101.09 51.693 103.69 43.3576C105.771 36.4931 108.891 28.5254 104.991 21.7835C103.56 19.2093 101.22 17.3706 99.0101 15.4093C95.4998 12.2222 91.2095 9.89322 86.9191 7.68677C79.8985 4.13195 70.9278 -0.0357681 62.7372 0.454552C60.007 0.577132 58.1868 1.68035 56.4967 3.64163C53.3764 7.19645 50.9062 11.3642 48.436 15.2867C43.8857 22.3964 39.7253 29.8738 35.955 37.3511C31.4047 46.2995 26.8543 55.1252 22.694 64.0736C18.5336 73.1445 13.7232 81.7251 9.04286 90.5509C8.78283 90.796 8.3928 90.9186 8.13279 91.1638C4.10246 94.1057 -2.00803 101.215 0.982212 106.364Z" fill="white" fill-opacity="0.2"/>
</svg>
