<svg className="fill-current text-blue-500" width="88" height="150" viewBox="0 0 88 150" fill="none" xmlns="http://www.w3.org/2000/svg">
<path d="M84.086 85.5021C84.086 89.6699 83.1759 93.8376 82.1359 98.0053C80.1857 97.2698 78.2355 97.1472 76.2854 98.7408C74.7253 100.089 73.9452 101.805 73.4252 103.644C72.6451 99.3537 71.475 93.9602 67.9647 94.5731C65.3645 94.9408 64.7145 98.1279 64.8445 101.315C63.9344 99.4763 62.8943 97.6376 61.7242 95.9214C60.4241 94.3279 58.474 91.5086 56.1338 91.2634C52.8835 90.8957 52.3635 94.9408 52.4935 97.0247C52.6235 98.7408 53.0135 100.579 53.2735 102.296C52.1034 101.07 50.6733 99.844 49.5032 98.6182C47.4231 96.4118 44.8229 94.0827 41.8326 93.2247C39.7525 90.2828 37.4123 87.4634 35.0721 84.6441C26.3614 74.3474 16.7406 64.541 10.6301 52.6507C5.29969 42.354 2.04942 29.8508 5.68972 18.5735C7.50986 12.9348 12.3203 8.52189 17.7807 6.19287C23.7612 3.49611 29.6116 3.12837 36.2422 3.86385C46.903 5.21223 56.3938 11.0961 63.1543 18.8186C71.215 28.1347 75.3753 39.7798 78.6256 51.1797C81.7458 62.3345 83.956 73.857 84.086 85.5021ZM43.9128 96.4118C47.5531 99.5988 51.3234 102.908 53.9236 106.708C54.1836 107.321 54.4436 107.812 54.9637 108.179C56.0038 109.037 57.4339 107.934 56.7838 106.708C56.6538 106.341 56.3938 105.973 56.1338 105.483C55.7437 104.257 55.8737 102.418 55.7437 101.56C55.6137 100.212 55.3537 98.8634 55.2237 97.515C55.0937 96.4118 54.9637 93.9602 56.3938 94.2053C57.0438 94.3279 57.9539 95.7989 58.3439 96.1666C61.5942 100.089 63.0243 104.87 65.8846 109.037C66.7946 110.141 68.3548 109.405 68.2247 108.057C67.8347 105.85 67.5747 103.276 67.5747 101.07C67.5747 99.9666 67.7047 95.9214 69.0048 98.373C70.6949 101.56 70.3049 105.728 72.3851 108.792C72.7751 109.528 74.0752 109.405 74.3352 108.547C75.2453 104.992 76.6754 98.9859 81.4858 100.825C81.3558 101.192 81.2258 101.683 81.0958 102.05C79.6657 107.444 77.5855 113.328 73.4252 117.373C70.825 119.947 66.9246 122.031 62.8943 123.012C62.5043 123.012 62.1142 123.134 61.8542 123.257C60.4241 123.502 59.124 123.747 57.8239 123.747C50.0233 123.625 49.8933 115.657 48.9832 110.141C48.5932 107.567 47.8131 105.115 46.903 102.786C46.513 101.315 45.8629 99.9666 45.2129 98.6182C44.8229 97.8827 44.3028 97.1472 43.9128 96.4118ZM56.0038 126.566C57.6939 126.812 59.384 126.689 61.0742 126.444C60.9442 131.347 60.1641 136.373 59.124 141.153C58.604 143.482 58.3439 147.037 55.3537 147.037C52.8835 146.915 50.0233 146.057 47.5531 145.444C46.513 145.199 45.2129 145.076 45.0829 143.728C44.9529 142.747 47.4231 140.786 48.2031 140.05C49.5032 138.702 50.6733 137.231 51.8434 135.637C53.5336 133.186 55.7437 129.754 56.0038 126.566ZM87.2063 82.4376C86.4262 69.5667 83.956 56.8184 79.9257 44.5604C76.1554 33.1605 71.215 21.8831 62.1143 13.3025C53.9236 5.57997 43.3927 1.04451 31.8218 0.554192C20.2509 0.0638711 8.41994 5.08965 3.34953 15.3864C-1.9809 25.9283 1.00934 39.2895 5.42969 49.5862C10.5001 61.2313 18.9508 71.2829 27.6615 80.8441C29.0916 82.4376 30.6517 84.1538 32.0818 85.7473C32.0818 85.9925 32.2118 86.115 32.3419 86.2376C37.5423 91.7537 42.4827 97.7601 44.8229 104.747C46.773 110.754 45.4729 118.476 50.0233 123.625C51.1934 124.85 52.6235 125.708 54.1836 126.199C52.8835 128.773 51.3234 131.47 49.7633 133.921C47.9431 136.741 45.2129 138.947 43.2627 141.521C39.3624 146.792 46.253 147.65 50.4133 148.386C52.4935 148.753 55.8737 150.224 57.9539 149.366C59.6441 148.631 60.4241 146.179 60.8141 144.708C62.6343 138.579 64.0644 132.083 64.3244 125.708C69.9149 124.237 75.1153 121.173 78.3656 116.637C81.7458 111.857 83.566 106.218 84.8661 100.579C86.4262 94.5731 87.4663 88.6892 87.2063 82.4376Z" fill="white" fill-opacity="0.2"/>
</svg>
