<svg className="fill-current text-blue-500" width="134" height="93" viewBox="0 0 134 93" fill="none" xmlns="http://www.w3.org/2000/svg">
<path d="M135 84.9014C134.038 85.7923 133.195 86.6831 132.353 87.5739C132.233 87.7012 132.233 87.8284 132.113 88.0829C130.91 87.4466 129.707 86.6831 128.504 85.9195C124.293 83.6288 120.443 82.4835 115.752 82.229C111.902 81.9745 108.052 81.2109 104.443 79.5565C106.849 77.9021 109.255 75.2297 110.097 74.3388C112.143 71.9209 114.067 69.1212 114.789 66.0669C115.752 61.8673 115.03 58.0495 114.789 53.8499C114.789 53.5954 114.428 53.5954 114.428 53.8499C114.067 57.4132 113.947 60.9765 112.864 64.2853C111.782 67.2123 110.097 69.8847 107.932 72.0482C106.609 73.3208 105.285 74.5934 103.962 75.866C103.24 76.5023 102.278 77.1386 101.436 77.7749C97.5859 75.3569 94.3377 73.0662 89.7662 72.5572C87.8414 72.3027 85.9165 72.1754 84.112 72.1754C88.5632 66.0669 91.8114 59.9584 92.1723 51.941C92.1723 51.8138 91.9317 51.6865 91.9317 51.941C91.0896 56.0134 89.285 60.5947 86.9993 64.0308C85.4353 66.3214 82.4278 68.7394 81.5856 71.4119C81.5856 71.6664 81.5856 71.7936 81.5856 72.0482C79.1796 71.9209 76.8938 71.6664 74.4878 71.1573C70.2772 70.1393 66.4275 68.6121 63.1793 65.8124C66.9087 64.2853 71.1193 57.1587 72.202 54.868C75.0893 49.1413 73.766 42.5238 72.202 36.5426C72.202 36.5426 72.0817 36.5426 72.0817 36.6698C72.9239 42.142 73.0442 49.1413 69.6757 53.8499C67.9915 56.2679 65.9463 58.9403 63.7809 60.9765C62.9387 61.7401 61.7357 62.3764 61.0139 63.2672C58.1266 59.5766 56.3221 55.1225 55.6003 50.4139C54.7582 45.3235 54.5176 40.6149 57.1642 36.0335C58.9688 32.9793 61.1342 30.0523 63.9012 27.8889C64.7433 27.6343 65.5854 27.2526 66.4275 26.998C69.4351 25.98 72.4427 25.4709 75.5705 25.5982C78.2172 25.7254 80.2623 26.6163 82.3075 27.7616C82.909 28.9069 83.6308 30.1795 84.112 31.3249C85.0744 34.1246 85.6759 37.0516 85.315 40.1058C84.5932 45.7053 81.5856 52.0683 77.8563 56.1406C77.2548 56.7769 78.2172 57.795 78.939 57.286C83.5105 53.8499 86.879 46.8506 87.7211 41.1239C88.2023 37.9424 87.7211 35.0154 86.7587 32.0884C86.5181 31.4521 86.2775 30.8158 85.9165 30.1795C89.1647 32.7247 92.2926 35.9063 96.1423 37.0516C98.9092 37.9424 101.796 37.9424 104.684 38.3242C105.165 39.7241 105.766 40.9967 106.007 42.5238C106.368 44.9417 106.368 47.8687 106.127 50.2867C105.646 55.8861 101.917 61.6128 98.9092 66.0669C98.5483 66.7032 99.2701 67.8486 99.8716 67.2123C103.721 63.2672 107.812 57.5405 108.654 51.941C109.135 49.0141 109.015 45.578 108.413 42.651C108.052 40.9967 107.09 39.7241 106.368 38.4515C108.413 38.8332 110.458 39.4695 112.263 40.7421C115.992 43.4146 118.398 47.4869 121.526 50.6684C123.571 52.8319 125.857 54.359 128.383 55.6316C128.263 56.6497 128.022 57.6678 127.902 58.5586C127.782 59.9584 127.902 61.4856 127.662 62.8854C126.94 66.8305 126.098 70.9028 124.052 74.3388C123.932 74.5934 124.293 74.8479 124.413 74.5934C128.985 69.8847 130.789 63.2672 130.188 56.6497C130.669 56.9042 131.15 57.1587 131.632 57.4132C132.714 57.9223 133.917 58.5586 135 59.1949L135 54.9953C132.835 53.8499 130.549 52.9591 128.504 51.6865C123.571 48.7595 120.564 43.7964 116.353 39.9786C112.263 36.288 107.932 35.3972 102.639 34.8882C99.2701 34.6336 96.1423 34.1246 93.255 31.9612C90.9693 30.3068 88.8038 28.5252 86.5181 26.8708C82.1872 23.9438 78.0969 22.2894 72.8036 22.6712C68.2321 23.053 62.4575 25.0891 58.4875 28.6524C56.683 25.8527 54.0364 24.071 51.51 22.0349C48.6227 19.6169 45.8558 17.3263 42.7279 15.2901C40.4422 13.6357 36.8331 10.4542 33.9458 10.1997C31.9007 10.0724 30.0961 11.8541 28.8931 13.6357C25.284 10.4542 22.0359 7.01817 18.7877 3.70941C15.9004 0.909681 11.9304 -0.362918 8.68227 2.69133C5.1935 6.00009 7.47925 8.79982 10.2462 11.4723C14.2162 15.5446 18.908 18.8534 23.8404 21.5258C26.9683 23.3075 30.0961 25.2164 33.224 26.998C29.4946 25.4709 25.6449 24.071 21.7953 22.4167C17.8253 20.635 12.2914 16.5627 7.71986 17.4535C4.95289 17.9626 0.3814 21.1441 0.0204831 24.4528C-0.340418 28.1434 4.59199 30.5613 6.99804 31.8339C11.9304 34.5064 17.2238 35.3972 22.5171 36.4153C23.3592 36.5425 24.2013 36.7971 25.0434 36.9243C24.5622 38.0697 24.2013 39.215 25.4043 40.4876C26.1261 41.1239 27.0886 41.3784 27.9307 41.7602C29.8555 42.3965 31.5398 43.2873 33.3443 44.1782C36.7128 45.7053 40.3219 46.3416 43.8106 47.1051C46.5776 47.7414 49.2242 48.505 51.9912 48.6323C52.1115 49.6504 52.3521 50.7957 52.5927 51.941C53.5551 57.4132 56.0815 62.7582 59.6906 66.8305C63.42 71.0301 68.3524 72.8117 73.5254 74.0843C79.7811 75.6114 86.879 73.9571 92.8941 76.375C95.7814 77.5203 98.0671 79.811 100.714 81.4654C102.759 82.738 104.924 83.6288 107.21 84.3924C112.985 86.174 119.12 85.0287 124.774 87.7012C127.421 88.9738 129.947 90.8827 132.835 91.7735C133.556 92.028 134.278 92.1553 135 92.1553L135 84.9014ZM56.3221 30.6886L56.4424 30.8158C55.8409 31.5794 55.3597 32.343 54.9988 33.2338C53.5551 32.343 51.8709 31.7067 50.307 30.8158C47.4197 29.2887 44.8934 27.2526 42.367 25.3437C38.0361 22.0349 34.1864 18.3443 30.2164 14.7811C30.0961 14.6538 29.9758 14.5265 29.8555 14.3993C30.6977 13.6357 31.7804 12.8721 32.5022 12.7449C34.7879 12.3631 37.194 14.3993 38.9985 15.5446C41.164 16.9445 43.3294 18.4716 45.3746 19.9987C49.3445 23.1802 52.8333 26.998 56.3221 30.6886ZM24.5622 13.2539C27.9307 16.3082 31.5398 19.1079 35.0285 22.1621C40.5625 26.998 47.0588 32.9793 54.3973 34.7609C54.277 34.8882 54.1567 35.0154 54.0364 35.1427C53.9161 35.5245 53.6754 35.9062 53.5551 36.288C50.6679 33.9973 46.6979 32.343 43.6903 30.8158C39.3594 28.3979 35.1488 25.9799 30.818 23.562C26.4871 21.0168 21.7953 18.5989 17.705 15.4173C15.9004 14.0175 13.9756 12.3631 12.2914 10.7087C10.8477 9.30886 9.28379 8.29078 9.6447 6.25461C9.8853 3.58215 12.532 3.20037 14.4568 3.83667C16.8629 4.72749 18.1862 6.89091 19.8704 8.67256C21.4343 10.3269 22.9983 11.7268 24.5622 13.2539ZM29.3743 28.3979C33.4646 30.0523 37.5549 31.8339 41.6452 33.6156C43.57 34.3791 45.6152 35.3972 47.54 36.288C47.7806 36.4153 50.0664 37.4334 51.3897 37.9424C51.7506 38.0697 52.2318 38.3242 52.5927 38.5787C52.3521 39.3423 52.2318 40.1058 51.9912 40.8694C48.5024 39.8513 45.0137 38.5787 41.4046 37.6879C36.9534 36.5425 32.2616 35.9062 27.6901 35.0154C23.1186 34.1246 18.4268 33.6156 13.9756 32.343C11.3289 31.5794 1.82502 28.3979 2.66714 24.5801C3.14835 22.0349 7.59955 19.4897 9.765 19.8715C11.9304 20.2532 14.3365 21.9076 16.2613 22.7984C20.5922 24.8346 25.0434 26.6162 29.3743 28.3979ZM26.3668 37.1788C30.9383 37.9424 35.5098 38.8332 40.0812 40.1058C42.7279 40.7421 45.4949 41.3784 48.0212 42.2693C49.4649 42.7783 50.5476 43.2873 51.7506 43.0328C51.7506 43.7964 51.7506 44.6872 51.7506 45.4508C49.9461 45.4508 48.1415 45.069 46.337 44.8145C43.8106 44.3054 41.2843 44.0509 38.7579 43.5419C35.991 42.9056 33.5849 41.7602 31.0586 40.6149C30.0961 40.2331 28.5322 40.1058 27.6901 39.4695C26.7277 38.8332 26.4871 38.0697 26.3668 37.1788Z" fill="white" fill-opacity="0.2"/>
</svg>
