<svg className="fill-current text-blue-500" width="84" height="120" viewBox="0 0 84 120" fill="none" xmlns="http://www.w3.org/2000/svg">
<path d="M7.38176 80.6449C7.64179 77.2126 7.77179 73.6578 7.90181 70.103C8.03182 63.3611 7.64179 56.6192 7.38177 49.8773C7.12175 43.1354 6.73172 36.3935 5.82164 29.529C5.3016 26.0968 4.91157 22.6645 4.52154 19.2323C4.39152 18.0065 4.13151 16.5355 4.26152 15.3097C4.26152 15.1871 4.26152 15.1871 4.26152 15.0646C4.26152 15.0646 4.39152 14.942 4.52154 14.942C5.17159 14.4517 6.34168 14.2065 7.12175 13.8388C9.20191 12.9807 11.2821 12.2452 13.3623 11.3872C13.3623 13.2259 13.6223 15.0646 13.7523 16.9033C14.0123 19.8452 14.1423 22.6645 14.4023 25.6064C14.7924 31.858 15.9625 37.987 16.7425 44.2386C18.0426 56.8643 19.0827 69.7352 21.4229 82.2384C16.4825 84.69 11.8021 87.2642 6.86172 89.7158C6.34168 87.6319 7.38176 81.8707 7.38176 80.6449ZM17.0025 27.2C16.4825 24.0129 16.2225 20.9484 16.0925 17.8839C15.8324 15.4323 15.3124 12.9807 15.1824 10.6517C18.1726 9.42587 21.1629 8.32265 24.0231 7.09685C24.1531 8.81297 24.6732 10.5291 25.0632 12.1226C25.7132 15.1871 26.3633 18.1291 27.0133 21.071C27.7934 24.5032 28.1834 27.8129 28.5735 31.2451C29.0935 34.6774 30.0036 38.1096 30.6536 41.5418C31.5637 47.4257 32.4738 53.3095 33.5139 59.3159C34.0339 62.0127 34.814 64.7095 35.334 67.5288C35.724 69.9804 35.9841 72.5546 36.6341 75.0062C36.1141 75.2513 35.594 75.6191 35.074 75.8642C31.8237 77.4578 28.4435 78.9287 25.1932 80.3997C24.4131 80.7674 23.6331 81.1352 22.853 81.5029C21.1629 69.3675 20.7728 56.9869 19.4727 44.7289C18.6927 38.8451 17.7826 33.0838 17.0025 27.2ZM27.2734 12.4904C26.8833 10.5291 27.0133 8.07749 26.3633 6.11621C26.6233 5.99363 26.8833 5.87105 27.1434 5.74847C28.4435 5.13557 29.8736 4.40009 31.3037 4.03235C31.3037 3.90977 31.4337 3.90977 31.4337 3.90977C32.6038 5.74847 32.6038 8.69039 33.1238 10.5291C33.9039 13.8388 34.944 17.0258 35.8541 20.3355C37.4142 25.8516 38.5843 31.6129 39.6244 37.2515C41.7045 48.2837 43.3947 59.5611 46.5149 70.4707C45.7348 70.4707 44.9548 70.5933 44.0447 70.961C42.0946 71.8191 40.1444 72.9223 38.3243 74.0255C38.0642 69.1223 36.6341 64.2191 35.724 59.4385C34.554 53.4321 33.3839 47.3031 32.3438 41.2967C31.6937 37.987 30.7837 34.9225 30.2636 31.6129C29.6136 28.3032 29.3535 24.871 28.5735 21.4387C28.0534 18.4968 27.7934 15.5549 27.2734 12.4904ZM35.464 4.76783C37.6742 5.50331 39.8844 6.11621 42.0946 6.85169C43.3947 11.5097 44.5648 16.2904 45.6048 21.071C47.035 27.5677 48.9851 33.8193 50.6752 40.1935C52.3654 46.5676 54.4456 52.8192 56.1357 59.0708C57.4358 63.974 57.8258 69.3675 59.776 74.0255C57.0458 73.1675 54.3155 72.5546 51.7153 71.5739C50.4152 71.0836 49.1151 70.5933 47.945 70.4707C47.555 58.703 44.1747 46.8128 42.2246 35.1677C41.3145 29.4064 39.7544 23.8903 38.0642 18.3742C36.8941 14.942 35.8541 11.5097 35.074 7.95491C34.814 6.85169 34.554 5.50331 34.2939 4.27751C34.684 4.40009 35.074 4.52267 35.464 4.76783ZM45.6048 8.07749C47.035 8.69039 48.5951 9.18071 50.1552 9.79361C51.8453 15.0646 53.2755 20.4581 55.2256 25.8516C57.6958 32.7161 60.166 39.7031 62.3762 46.6902C64.5864 53.4321 66.6665 60.2966 68.4867 67.1611C69.5268 70.7159 70.5668 74.3933 71.6069 77.9481C71.7369 78.3158 71.8669 78.6836 71.997 79.1739C68.7467 77.3352 65.2364 75.8642 61.5961 74.6384C61.4661 74.5159 61.3361 74.5159 61.0761 74.5159C60.036 69.1223 59.1259 63.6062 57.6958 58.3353C56.0057 51.8386 53.9255 45.3418 52.3654 38.8451C50.9353 32.5935 48.9851 26.5871 47.555 20.3355C46.5149 16.0452 45.4748 11.7549 44.1747 7.58717C44.5648 7.70975 45.0848 7.95491 45.6048 8.07749ZM54.7056 11.5097C56.5257 12.1226 57.6958 12.4904 58.4759 14.2065C59.516 16.0452 59.906 18.2516 60.556 20.2129C62.5062 26.5871 64.7164 32.7161 66.9266 38.9677C69.5268 46.6902 71.7369 54.5353 73.9471 62.2579C74.9872 65.8127 76.0273 69.2449 77.0674 72.6772C77.7174 75.0062 78.6275 77.2126 79.4076 79.4191C79.7976 80.7674 80.5776 82.2384 80.8377 83.7094C80.1876 83.4642 79.2775 83.219 78.3675 82.8513C76.8073 81.7481 75.2472 80.89 73.5571 79.9094C72.777 77.7029 72.387 74.8836 71.8669 73.0449C70.8269 69.4901 69.7868 65.8127 68.7467 62.2579C66.9266 56.1289 64.8464 49.9999 62.7662 43.9934C60.556 37.3741 58.4759 30.6322 56.2657 24.0129C55.0956 20.4581 53.7955 16.9033 52.7554 13.3484C52.3654 12.4904 52.2354 11.3872 51.9754 10.4065C52.8854 10.7743 53.7955 11.142 54.7056 11.5097ZM80.3176 91.3093C79.1475 93.7609 76.5473 93.7609 74.2071 93.3932C73.8171 93.2706 73.4271 93.5158 73.1671 93.7609C72.257 94.9867 73.1671 97.1932 71.4769 97.9286C70.1768 97.9286 68.8767 97.8061 67.5766 97.8061C66.7965 97.1932 66.1465 96.4577 65.8865 95.477C67.5766 94.7416 68.6167 93.2706 68.8767 91.5545C69.9168 91.9222 70.9569 92.29 72.127 91.9222C73.5571 91.4319 74.4672 90.3287 75.1172 89.2255C75.8973 87.2642 75.8973 85.6706 74.9872 84.1997C76.1573 84.5674 77.3274 85.0577 78.4975 85.4255C79.0175 85.5481 79.5376 85.7932 80.0576 85.9158C81.0977 87.5093 81.2277 89.8384 80.3176 91.3093ZM76.9374 99.277C76.5473 100.871 75.8973 101.974 74.3371 102.954C73.167 103.567 71.3469 104.425 70.0468 104.18C69.0067 104.058 67.9666 103.077 67.0566 102.587C67.3166 101.729 67.3166 100.748 67.1866 99.7673C67.9666 100.258 68.8767 100.503 70.1768 100.38C71.4769 100.258 72.907 99.5222 73.6871 98.419C74.2071 97.6835 74.2071 96.3351 74.5972 95.477C75.3772 95.5996 76.2873 95.7222 77.0674 95.7222C77.5874 96.7029 77.3274 98.419 76.9374 99.277ZM63.1562 110.554C62.1162 110.8 60.8161 110.554 59.646 110.432C58.2159 110.187 57.4358 109.696 56.3957 108.961C57.6958 107.858 58.3459 106.019 58.7359 104.425C59.776 104.916 60.686 106.019 61.8561 106.264C63.1562 106.509 64.3263 106.019 65.2364 105.161C65.7565 104.671 66.1465 104.303 66.4065 103.812C66.5365 103.935 66.6665 104.058 66.7965 104.058C67.3166 106.509 65.6264 109.941 63.1562 110.554ZM54.3155 106.754C51.9753 107.49 51.9753 107.735 50.6752 105.896C49.6352 104.425 49.6352 103.445 49.6352 101.729C49.6352 101.606 49.6352 101.606 49.6352 101.483C49.6352 101.483 49.6352 101.483 49.7652 101.483C49.5051 101.729 51.4553 99.6448 50.9353 99.7673C51.7153 99.6448 52.2354 100.871 53.1454 101.361C54.1855 102.096 55.0956 102.219 56.3957 101.851C59.1259 100.871 60.166 98.419 60.296 95.8448C61.4661 96.3351 62.6362 96.3351 64.1963 96.0899C64.5864 96.8254 65.1064 97.5609 65.6264 98.2964C66.4065 101.606 65.2364 106.264 60.426 104.058C59.646 103.69 59.2559 102.954 58.3459 102.832C57.9558 102.832 57.6958 103.077 57.5658 103.322C57.4358 103.69 57.3058 104.058 57.0458 104.425C56.3957 106.142 56.9157 105.774 54.3155 106.754ZM51.5853 115.948C48.5951 117.419 46.5149 114.232 45.0848 112.393C45.6048 112.271 46.2549 112.025 46.9049 111.535C48.075 110.8 49.5051 109.451 49.6352 107.98C50.5452 108.961 51.5853 109.574 53.0154 109.819C53.5355 109.941 54.0555 109.941 54.5756 109.819C55.2256 112.025 53.5355 114.845 51.5853 115.948ZM41.4445 108.838C41.1845 108.593 40.6644 108.471 40.2744 108.593C39.3643 108.838 39.2343 109.696 38.5843 109.941C37.6742 110.432 35.334 110.309 34.814 109.574C34.1639 108.716 34.684 106.754 34.814 105.774C34.944 105.406 34.684 105.038 34.2939 104.916C34.2939 104.793 34.2939 104.793 34.2939 104.793C34.684 104.548 34.814 104.18 35.204 104.18C35.334 104.18 36.3741 105.283 36.6341 105.406C37.5442 105.896 38.3243 105.896 39.3643 105.529C41.7045 104.671 41.9645 102.832 41.7045 100.871C43.2646 102.342 45.6048 103.2 47.815 102.464C47.685 103.812 47.945 105.283 48.5951 106.509C47.425 108.838 45.0848 112.761 41.4445 108.838ZM43.3947 112.516C44.0447 115.58 39.7544 119.38 36.7641 117.296C35.074 116.07 35.9841 114.845 36.1141 113.129C36.1141 113.129 36.1141 113.129 36.1141 113.006C36.6341 113.129 37.1542 113.129 37.8042 112.883C38.4543 112.761 39.2343 112.271 39.6244 111.903C40.0144 111.658 40.2744 111.167 40.5344 110.677C41.4445 111.535 42.3546 112.148 43.3947 112.393L43.3947 112.516ZM31.0437 104.058C30.6536 103.812 30.1336 103.567 29.6136 103.445C28.3134 102.219 27.9234 100.993 28.5735 99.7673C28.5735 99.6448 28.5735 99.6448 28.5735 99.6448C29.0935 99.5222 29.4835 99.3996 29.8736 99.277C30.3936 99.0319 30.7836 98.6641 31.1737 98.419C32.2138 97.9286 32.2138 98.0512 33.3839 98.2964C34.554 98.5415 35.334 98.7867 36.5041 97.9286C37.5442 97.3157 38.3243 96.2125 38.8443 94.9867C39.4943 95.3545 40.0144 95.5996 40.6644 95.5996C40.0144 96.7028 40.0144 97.8061 40.4044 98.9093C40.1444 99.0319 40.0144 99.1544 40.1444 99.5222C40.2744 100.748 40.7945 102.342 39.6244 103.445C37.9342 105.038 37.2842 103.322 35.9841 102.587C35.464 102.219 35.464 101.974 34.814 102.096C33.1238 102.219 33.5139 104.303 31.0437 104.058ZM29.8736 115.703C29.6136 115.703 29.2235 115.212 28.7035 114.845C28.8335 114.845 29.0935 114.845 29.2235 114.722C30.9137 114.109 32.4738 112.761 33.1238 111.045C33.5139 111.535 33.7739 111.903 34.2939 112.271C34.2939 112.393 34.2939 112.638 34.2939 112.883C33.6439 114.477 31.8237 116.561 29.8736 115.703ZM25.0632 111.167C24.6732 110.922 24.2831 110.922 24.0231 111.167C22.593 112.148 20.6428 114.109 18.9527 112.148C17.6526 110.677 18.5627 109.206 19.2127 107.858C19.4727 107.735 19.7328 107.735 19.9928 107.612C20.7728 107.367 21.5529 106.632 22.203 106.754C23.243 106.877 23.243 107.735 24.5431 107.49C26.1033 107.367 27.2734 105.774 27.7934 104.303C28.9635 105.529 30.9137 106.264 32.8638 105.651C32.4738 106.877 32.2138 107.98 32.3438 109.083C31.9537 110.554 30.5236 112.516 28.9635 113.006C26.4933 113.619 26.3633 111.903 25.0632 111.167ZM16.7425 104.793C15.8324 103.322 16.8725 101.974 17.2626 100.503C19.9928 101.361 22.593 99.7673 24.2831 97.6835C24.8032 98.6641 25.5832 99.3996 26.6233 99.6448C26.2333 100.748 26.3633 101.974 26.8833 102.954C26.4933 104.793 25.1932 106.387 22.983 105.283C22.333 104.916 22.463 104.793 21.6829 104.916C20.6428 105.161 19.6027 105.896 18.6927 106.019C18.5627 105.896 18.3026 105.896 18.0426 106.019C17.6526 105.896 17.1325 105.529 16.7425 104.793ZM18.9527 90.0835C19.0827 90.819 18.9527 91.5545 19.4727 92.1674C19.9928 92.7803 20.9029 93.0254 21.6829 93.0254C22.463 93.0254 23.243 92.7803 23.8931 92.5351C23.3731 93.6383 23.243 94.9867 23.6331 96.4577C22.203 97.8061 19.3427 99.7673 17.7826 98.1738C16.4825 96.948 17.9126 95.7222 18.1726 94.4964C18.1726 94.0061 17.9126 93.6383 17.5226 93.3932C16.7425 93.148 16.2225 93.5158 15.4424 93.6383C14.0123 93.8835 13.7523 94.1287 13.1022 92.6577C12.4522 91.3093 12.8422 90.4513 14.1423 89.5932C14.6623 89.2255 15.3124 88.9803 15.8324 88.7351C15.8324 88.9803 15.8324 89.1029 15.9625 89.348C16.6125 90.6964 17.7826 90.2061 18.9527 90.0835ZM26.8833 88.9803C26.7533 88.9803 26.6233 88.9803 26.4933 89.1029C26.1033 89.5932 25.5832 90.0835 25.3232 90.4513C24.8032 90.819 24.2831 91.0642 23.7631 91.3093C22.463 91.9222 21.2929 91.7996 20.6428 90.4513C20.5128 90.0835 20.7728 89.5932 20.5128 89.2255C20.3828 88.7351 20.1228 88.6126 19.6027 88.49C19.0827 88.3674 18.6927 88.7351 18.3026 88.2448C18.0426 88.1222 18.0426 87.8771 18.0426 87.6319C20.1228 86.6513 22.203 85.7932 24.2831 84.8126C25.3232 84.3223 26.2333 83.9545 27.2734 83.4642C26.2333 85.1803 26.1033 87.1416 26.8833 88.9803ZM35.464 89.8384C35.9841 89.4706 36.5041 88.3674 37.0242 87.9997C37.2842 87.8771 37.2842 87.8771 37.2842 87.7545C37.4142 87.7545 37.4142 87.7545 37.5442 87.8771C37.8042 87.8771 37.9342 87.9997 38.0642 88.1222C37.0242 89.7158 36.5041 92.1674 37.6742 93.8835C37.4142 94.4964 37.0242 95.1093 36.6341 95.477C35.724 95.9674 34.944 96.3351 34.0339 96.8254C33.6439 96.5803 33.1238 96.3351 32.7338 96.2125C31.8237 95.9674 31.5637 96.2125 30.7836 96.7028C30.0036 97.1932 29.0935 98.0512 28.0534 98.0512C27.9234 98.0512 27.6634 98.0512 27.5334 98.0512C27.1434 97.9286 26.6233 97.6835 26.1033 97.1932C25.5832 96.4577 25.3232 94.619 25.4532 94.0061C25.7132 92.5351 27.1434 91.5545 27.6634 90.0835C27.6634 90.0835 27.6634 90.0835 27.7934 90.2061C29.8736 92.7803 33.2538 91.9222 35.464 89.8384ZM42.3546 83.219C42.2246 85.0577 39.3643 87.2642 38.0642 85.7932C37.9342 85.5481 37.5442 85.4255 37.2842 85.4255C35.594 85.7932 35.074 87.9997 33.6439 88.8577C31.6937 90.0835 29.4835 89.4706 29.2235 87.2642C28.9635 85.4255 29.8736 83.9545 30.9137 82.4836C31.0437 82.2384 31.1737 81.9932 31.0437 81.6255C34.554 80.032 38.0642 78.3158 41.5745 76.3546C40.2744 78.6836 40.2744 81.5029 42.3546 83.219ZM49.7652 82.1158C50.0252 82.361 50.2852 82.4836 50.5452 82.7287C49.6352 84.8126 49.3751 87.5093 50.4152 89.7158C50.1552 90.6964 49.3751 91.6771 48.7251 92.0448C46.5149 93.3932 46.5149 92.0448 45.6048 91.4319C45.0848 91.1867 44.5648 91.3093 44.3047 91.6771C43.7847 92.1674 43.1346 93.148 42.4846 93.3932C39.8844 94.4964 38.7143 92.6577 39.2343 90.819C39.6244 89.9609 40.0144 89.348 40.0144 88.49C40.5344 88.3674 41.0545 88.2448 41.4445 87.9997C42.4846 87.2642 43.6547 85.5481 43.7847 84.0771C46.5149 85.1803 48.4651 84.0771 49.7652 82.1158ZM58.9959 95.1093C58.7359 98.5415 56.9157 101.116 52.3654 98.9093C51.7153 98.5415 51.3253 97.9286 50.4152 98.1738C49.1151 98.5415 48.5951 100.38 47.035 100.748C44.4347 101.483 42.2246 99.6448 42.3546 96.8254C42.4846 95.7222 42.6146 95.7222 42.6146 95.2319C43.5247 94.8641 44.3047 94.1287 45.0848 93.3932C45.4748 93.8835 45.7348 94.2512 46.6449 94.3738C47.815 94.4964 48.8551 93.8835 49.6352 93.148C50.2852 92.6577 50.9353 91.9222 51.1953 91.0642C51.8453 91.7996 52.7554 92.4125 53.9255 92.7803C54.9656 93.0254 56.1357 92.9029 57.1758 92.5351C57.6958 93.6383 58.2159 94.4964 58.9959 95.1093ZM65.2364 83.4642C65.1064 84.5674 63.9363 86.0384 62.8962 86.5287C61.8561 87.1416 60.426 86.2835 59.3859 85.7932C58.8659 85.6706 58.3459 85.9158 58.3459 86.4061C58.2159 87.1416 58.6059 87.8771 58.3459 88.49C57.5658 89.348 56.6557 90.2061 55.7457 91.0642C53.9255 90.819 52.7554 89.9609 52.1054 88.49C51.1953 86.6513 52.3654 85.3029 52.6254 83.5868C54.7056 84.1997 56.7857 83.3416 58.3459 80.89C58.8659 80.032 59.1259 78.561 59.1259 77.2126C59.516 77.3352 59.906 77.4578 60.296 77.5804C60.8161 77.7029 61.2061 77.8255 61.5961 77.9481C62.3762 78.3158 63.0262 78.6836 63.8063 79.0513C64.7164 80.3997 65.4964 81.8707 65.2364 83.4642ZM66.2765 80.2771C67.9666 81.1352 69.5268 81.8707 71.2169 82.6061C71.4769 82.7287 71.8669 82.8513 72.127 82.9739C74.9872 86.2835 73.037 90.2061 67.9666 89.1029C67.4466 88.9803 66.6665 89.4706 66.6665 90.0835C66.6665 94.2512 60.8161 95.7222 58.8659 91.5545C60.166 90.3287 59.906 89.1029 59.906 87.7545C60.686 88.2448 61.4661 88.6126 62.6362 88.3674C63.9363 88.1222 65.1064 87.2642 65.8865 86.161C67.3166 84.0771 67.0566 82.1158 66.2765 80.2771ZM43.3947 75.3739C44.1747 74.8836 45.2148 74.2707 46.1249 74.0255C47.945 73.6578 49.7652 74.6384 51.3253 75.1288C53.1454 75.6191 54.9656 76.1094 56.7857 76.5997C56.7857 77.9481 56.1357 79.9094 55.8757 80.2771C55.2256 80.7674 54.7056 81.2578 54.1855 81.7481C52.7554 82.1158 51.5853 81.7481 50.6752 80.6449C50.2852 80.5223 50.1552 80.2771 49.7652 80.1545C49.3751 80.1545 48.9851 80.2771 48.8551 80.6449C47.685 83.7094 43.9147 83.4642 43.2646 80.3997C43.0046 78.8062 43.5247 77.7029 43.6547 76.1094C43.7847 75.8642 43.6547 75.6191 43.3947 75.3739ZM14.4023 101.851C12.8422 102.096 11.1521 102.219 9.85196 101.116C8.29184 99.7673 9.85196 97.5609 10.762 96.3351C11.0221 96.0899 11.5421 95.5996 11.9321 95.1093C12.3222 95.3545 12.8422 95.477 13.3622 95.5996C14.0123 95.7222 14.7924 95.7222 15.4424 95.5996C15.4424 95.5996 15.5724 95.5996 15.5724 95.477C15.3124 96.2125 15.0524 96.8254 15.1824 97.6835C15.1824 98.419 15.4424 99.0319 15.8324 99.5222C15.0524 100.135 14.6623 100.993 14.4023 101.851ZM5.30159 92.4125C5.82164 92.7803 6.34168 92.9029 6.99173 92.7803C8.16183 92.4125 9.33192 91.9222 10.502 91.3093C10.372 91.9222 10.372 92.5351 10.502 93.148C8.42185 94.8641 6.6017 98.2964 7.51178 100.748C8.55186 103.567 11.6721 103.445 14.1423 102.954C14.1423 104.793 15.0524 106.754 16.8725 107.49C15.5724 109.574 15.3124 111.412 17.5226 113.496C19.9928 115.948 22.333 114.722 24.5431 113.006C24.9332 113.496 25.1932 114.232 25.8432 114.6C26.4933 114.845 27.0133 115.09 27.5334 115.09C27.4034 115.335 27.4034 115.58 27.5334 115.703C28.3134 116.561 28.7035 116.929 29.7436 117.296C30.6536 117.541 31.6937 117.419 32.6038 117.051C33.1238 116.683 33.6439 116.316 34.0339 115.825C34.0339 116.316 34.1639 116.806 34.4239 117.296C35.334 118.645 37.2842 119.748 39.1043 119.625C41.5745 119.258 44.4347 117.051 44.5648 114.6C46.2549 117.174 49.6352 119.135 52.4954 117.419C54.4455 116.193 56.5257 113.741 56.3957 111.412C58.6059 113.006 63.5463 112.761 65.2364 111.78C67.1866 110.8 69.0067 107.612 68.6167 105.283C69.5268 105.651 70.4368 105.774 71.4769 105.651C73.5571 105.283 75.7673 104.425 77.0674 102.954C78.4975 101.361 79.7976 97.6835 78.7575 95.477C80.5776 94.9867 82.0078 93.7609 82.7878 91.7996C83.5679 90.0835 83.5679 87.9997 82.7878 86.2835C82.9178 86.2835 82.9178 86.2835 82.9178 86.2835C83.4379 86.0384 83.8279 85.5481 83.8279 85.1803C84.0879 82.361 82.1378 78.9287 81.2277 76.3546C79.9276 72.432 78.6275 68.5094 77.3274 64.5869C74.9872 57.2321 73.1671 49.6321 70.4368 42.2773C67.7066 34.3096 65.2364 26.5871 63.1563 18.4968C62.6362 16.1678 62.3762 12.613 60.6861 10.7743C58.7359 8.56781 54.0555 7.58717 51.4553 6.60653C50.9353 6.36137 50.4152 6.23879 49.7652 5.99363L49.6352 5.87105C46.7749 4.76783 43.9147 3.66461 41.0545 2.80655C38.3243 1.94849 34.4239 -0.25795 31.4337 0.23237C28.4435 0.600109 25.4532 2.68397 22.593 3.66461C18.5627 5.13557 14.6624 6.97427 10.632 8.44523C8.94189 9.18071 7.25175 9.79361 5.56162 10.4065C4.26152 10.8968 2.18135 11.2646 1.14127 12.2452C-0.678879 13.9613 0.621223 17.0258 1.01125 19.2323C2.05134 27.2 3.74148 35.1677 4.26152 43.258C4.78156 52.2063 5.3016 61.3998 5.04158 70.4707C4.91156 75.0062 4.65155 79.5416 4.39152 84.0771C4.26152 86.4061 3.35144 90.4513 5.30159 92.4125Z" fill="white" fill-opacity="0.2"/>
</svg>
