<svg className="fill-current text-blue-500" width="71" height="159" viewBox="0 0 71 159" fill="none" xmlns="http://www.w3.org/2000/svg">
<path d="M61.204 154.225C60.554 152.999 60.1639 151.773 59.6439 150.425C59.1239 149.076 58.4738 147.85 58.2138 146.379C58.0838 145.644 58.0838 145.154 57.9538 144.541C58.0838 144.541 58.2138 144.418 58.3438 144.173C60.424 143.928 60.1639 140.373 60.0339 138.902C60.0339 137.554 60.424 134.734 58.8638 133.999C58.6038 133.999 58.2138 134.244 58.3438 134.489C58.4738 134.979 58.0838 135.96 57.9538 136.573C57.8237 137.431 57.6937 138.289 57.6937 139.147C57.5637 140.005 57.5637 140.986 57.4337 141.844C57.0437 142.457 57.0437 142.089 56.6537 141.354C56.1336 140.741 55.8736 139.392 55.6136 138.657C55.0935 136.696 54.5735 134.734 54.0534 132.773C53.4034 129.586 52.8834 126.276 52.1033 122.967C53.0134 118.676 52.2333 113.896 52.1033 109.728C51.9733 106.051 52.1033 101.883 51.0632 98.2055C51.3232 98.328 51.4532 98.4506 51.7133 98.5732C51.8433 101.393 53.5334 104.947 54.4435 107.031C56.3936 111.689 58.6038 116.592 61.074 120.883C63.8042 125.786 66.1444 130.812 67.7045 136.083C67.8346 136.573 68.6146 138.412 68.3546 138.902C67.8346 139.638 66.6645 138.044 66.0144 137.186C65.7544 136.696 65.4944 136.205 65.1043 135.715C64.9743 135.715 64.9743 135.592 64.8443 135.592C63.4142 133.876 61.9841 132.283 60.684 130.689C60.944 129.096 60.554 127.38 60.1639 125.786C59.9039 124.07 59.9039 121.741 58.8638 120.147C58.4738 119.78 57.9538 120.025 57.9538 120.392C57.9538 121.005 57.8237 121.618 57.8237 122.231C57.8237 122.967 57.9538 123.702 57.9538 124.438C58.0838 125.541 58.2138 126.644 58.3438 127.87C58.4738 128.605 58.3438 129.341 58.4738 130.076C58.6038 130.321 58.7338 130.444 58.8638 130.567C58.6038 130.444 58.4738 130.199 58.2138 130.076C57.1737 128.85 56.3936 127.502 54.9635 126.644C54.5735 126.276 53.9234 126.767 53.9234 127.257C54.3135 128.85 58.2138 134.489 60.0339 132.16C61.464 134.121 63.0242 136.083 64.4543 137.921C65.3644 142.212 66.7945 146.747 66.4044 151.037C66.4044 151.037 66.4044 151.16 66.4044 151.283C66.1444 150.915 65.8844 150.547 65.8844 150.425C64.5843 148.463 63.0242 146.992 61.8541 145.154C61.204 144.296 59.6439 144.663 60.0339 145.767C60.554 147.728 61.8541 149.444 63.1542 151.16C62.6341 152.386 62.5041 153.979 61.9841 155.328C61.7241 154.96 61.334 154.47 61.204 154.225ZM44.5627 115.122C43.1326 111.567 41.8325 107.889 40.7924 104.334C39.7523 100.657 38.7122 97.1022 37.9322 93.4248C37.5421 91.7087 36.7621 89.9926 36.502 88.1539C36.372 87.4184 36.242 86.683 36.242 85.8249C38.5822 88.0313 41.1824 90.1152 43.5226 92.199C45.3427 93.67 47.1629 95.3861 49.1131 96.8571C49.3731 101.147 49.1131 105.438 49.2431 109.728C49.2431 112.057 49.2431 114.386 49.3731 116.838C49.5031 119.167 49.8931 121.741 49.6331 124.07C47.1629 122.231 45.4728 117.328 44.5627 115.122ZM34.2919 81.0443C33.7718 79.941 32.7317 78.8378 32.0817 77.7346C31.0416 76.1411 30.3915 74.4249 29.6115 72.7088C28.1814 69.2766 27.5313 65.8443 26.3612 62.2895C25.3211 59.1024 24.4111 55.7928 23.631 52.6057C22.8509 49.1735 22.2009 45.7412 21.1608 42.309C20.9008 41.6961 20.7708 41.2058 20.5108 40.7154C23.501 43.5348 26.6212 46.3541 29.7415 48.9283C30.7816 49.7864 32.8617 52.1154 34.6819 53.4638C34.8119 59.7153 34.5519 65.8443 34.5519 71.9733C34.5519 75.283 34.6819 78.5927 34.8119 81.9023C34.8119 82.0249 34.8119 82.1475 34.8119 82.2701L34.6819 82.2701C34.5519 82.0249 34.4219 81.2894 34.2919 81.0443ZM18.4306 36.3026C18.0406 35.9348 17.7805 35.4445 17.3905 35.0768C17.2605 34.709 17.0005 34.4639 16.8705 34.0961C16.7405 33.851 16.6104 33.851 16.3504 33.7284C14.6603 31.2768 13.4902 28.7026 12.3201 25.7607C10.76 22.0833 8.80982 18.5285 6.98968 14.9736C6.0796 13.0124 5.16953 11.1737 4.38946 9.0898C4.12945 8.23174 3.73942 7.12852 3.73942 6.14788C3.47939 4.55434 4.25946 3.94144 6.20961 4.30918C7.37971 3.45112 8.28978 3.45112 8.67981 4.30918C8.67981 4.43176 8.80982 4.43176 8.80982 4.55434C10.89 8.84464 13.1002 13.1349 15.7004 17.1801C16.8705 19.1414 18.1706 20.9801 19.6007 22.6962C20.3807 23.922 21.1608 25.0252 21.9409 26.1284C22.4609 26.8639 22.981 27.5994 23.371 28.4574C25.8412 32.5026 28.1814 36.6703 30.3916 40.9606C31.4316 43.0445 32.4717 45.2509 33.3818 47.4573C33.7718 48.438 34.1619 49.6638 34.5519 50.6444C34.6819 50.6444 34.6819 50.767 34.6819 50.767C34.6819 50.8896 34.6819 50.8896 34.6819 50.8896C34.6819 51.0122 34.6819 51.0122 34.6819 51.0122C32.2117 49.296 28.0514 45.7412 27.6613 45.2509C24.4111 42.4316 21.4208 39.3671 18.4306 36.3026ZM43.1326 77.1217C44.9527 80.7991 47.1629 84.2314 48.723 87.9088C49.6331 89.7475 50.2831 91.5862 50.9332 93.5474C51.0632 94.0377 51.8433 95.3861 52.3633 96.4893C50.8032 95.8764 49.3731 94.2829 48.333 93.67C46.6429 92.4442 45.0827 91.0958 43.5226 89.87C41.4424 88.1539 39.4923 86.1926 37.5421 84.4765C38.8422 82.7604 37.9322 78.4701 37.8021 76.8765C37.5421 72.954 37.6721 69.154 37.6721 65.2314C39.1022 69.3992 41.4424 73.3217 43.1326 77.1217ZM60.944 158.637C63.9342 160.108 64.5843 156.063 64.5843 152.999C64.7143 153.121 64.8443 153.244 64.9743 153.366C65.7544 154.47 67.3145 155.573 68.2246 153.857C69.3947 151.773 68.6146 147.973 68.2246 145.889C67.8346 144.418 67.7045 142.702 67.3145 140.986C67.9646 141.476 68.6146 141.721 69.2647 141.599C73.165 140.741 69.3947 131.057 68.7446 129.218C66.5344 122.967 63.0242 117.083 60.1639 110.954C58.7338 108.134 57.1737 105.193 55.8736 102.373C55.3536 101.515 54.9635 100.534 54.5735 99.5539C54.7035 99.5539 54.9635 99.4313 55.2235 99.1861C57.3037 97.3474 54.7035 93.67 53.9234 91.7087C52.3633 87.7862 50.6732 84.1088 48.463 80.4314C45.9928 76.3862 43.9126 72.0959 41.8325 67.8056C40.4024 65.1089 38.8422 62.4121 37.4121 59.5928C37.2821 57.8766 37.1521 56.1605 36.7621 54.4444C37.0221 54.4444 37.2821 54.4444 37.5421 54.3218C38.0622 54.1992 38.5822 53.7089 38.5822 53.096C38.5822 51.3799 37.4121 49.7864 36.8921 48.3154C35.982 46.109 34.9419 44.0251 33.9018 41.8187C31.5616 37.2832 28.9614 32.9929 26.2312 28.58C24.9311 26.6187 23.501 24.6575 21.9409 22.6962C18.4306 17.0575 14.7903 11.4188 11.6701 5.4124C10.1099 2.71564 8.28978 -0.716602 4.25946 0.754358C0.359146 2.22532 0.359146 6.6382 1.39923 9.82528C2.95935 14.7285 5.94959 19.2639 8.41979 23.922C10.76 28.3349 12.5801 32.6252 16.0904 36.3026C17.1305 39.4896 18.8206 42.6767 19.7307 45.9864C20.7708 49.9089 21.5508 53.9541 22.7209 57.9992C25.0611 66.4572 28.1814 74.5475 32.6017 82.1475C32.9918 82.883 33.6418 83.8636 34.4219 84.5991C35.3319 92.4442 36.372 100.289 39.4923 107.767C41.1824 111.689 42.4825 115.612 44.4327 119.412C45.6028 121.741 47.4229 125.296 50.1531 126.276C50.4132 126.399 50.5432 126.399 50.8032 126.276C50.8032 130.934 51.9733 135.715 53.5334 140.128C53.9234 141.231 54.3135 143.315 55.3536 144.296L55.3536 144.418C55.8736 145.644 55.7436 146.87 56.1336 148.218C56.5236 149.689 57.1737 151.037 57.6937 152.508C58.2138 153.734 58.8638 154.96 59.5139 156.186C59.7739 156.921 60.1639 158.147 60.944 158.637Z" fill="white" fill-opacity="0.2"/>
</svg>
