<svg className="fill-current text-blue-500" width="156" height="112" viewBox="0 0 156 112" fill="none" xmlns="http://www.w3.org/2000/svg">
<path d="M11.0484 40.0344C14.2986 40.5248 17.1589 41.9957 20.4091 42.3635C23.7894 42.7312 26.7796 41.7506 29.7699 43.4667C32.3701 44.9377 34.3202 45.9183 37.3105 46.1635C40.3007 46.4086 43.421 46.0409 46.4112 46.4086C53.0417 47.2667 58.1121 52.7828 64.7427 53.5183C67.4729 53.7634 70.2031 53.3957 72.9333 53.7634C76.8336 54.3763 79.8239 55.8473 82.8141 58.4215C84.6343 60.015 86.5844 61.6085 89.0546 62.4666C92.0449 63.3247 95.4251 63.2021 98.6754 63.4472C102.056 63.6924 105.046 64.673 107.386 67.2472C109.336 69.3311 110.246 71.2924 113.367 72.0278C119.217 73.6214 126.108 70.802 131.438 73.8665C134.688 75.7052 133.518 79.1375 135.468 81.7117C137.028 83.9181 139.629 84.6536 142.099 85.3891C143.789 85.8794 146.259 86.6149 147.559 87.7181C148.339 88.331 150.55 87.9632 146.909 89.8019C146.259 90.1697 145.089 90.0471 144.309 90.1697C142.749 90.4148 141.059 90.66 139.499 90.7826C138.459 90.9052 136.118 91.3955 134.818 91.1503C134.038 89.9245 132.868 88.6987 131.698 87.5955C127.278 83.1826 122.597 79.873 116.877 77.0536C105.566 71.1698 92.6949 67.2472 80.4739 63.4472C67.2129 59.4021 54.3418 54.7441 40.6907 51.4344C34.9703 50.086 28.9898 48.4925 23.0093 48.0021C18.979 47.6344 13.5186 47.6344 9.74827 49.7183C7.92813 48.1247 5.84796 46.7763 4.54785 44.8151C1.29759 40.157 7.79811 39.4215 11.0484 40.0344ZM14.9487 30.7184C16.8988 28.1442 20.4091 26.5506 23.5294 26.0603C27.6897 25.3249 29.6399 27.6539 32.8901 29.2474C34.9703 30.3506 36.9204 29.4926 39.1306 29.2474C42.5109 28.8797 46.1512 29.2474 48.7514 31.3313C50.9616 32.9248 51.3516 35.0087 54.4719 34.7635C57.9821 34.2732 60.8424 33.9055 64.0926 35.9893C65.9128 37.2151 66.4328 39.7893 68.513 40.6474C70.8532 41.628 74.1034 39.6667 76.7036 39.9119C80.4739 40.157 82.2941 41.9957 84.5043 44.5699C85.6744 46.0409 86.7144 46.1635 88.5346 45.9183C91.9149 45.428 95.1651 45.6731 98.2854 47.3893C99.9755 48.3699 100.756 49.3505 101.796 50.9441C102.186 51.4344 102.576 52.0473 103.226 52.415C104.916 53.3957 106.996 52.2925 108.816 52.2925C111.806 52.415 115.057 53.6408 117.267 55.4795C117.267 55.8473 117.657 56.215 118.177 56.3376C119.087 57.686 118.697 59.7698 120.387 60.6279C122.597 61.7311 126.108 60.3827 128.448 60.6279C131.048 60.9956 132.218 62.0989 133.258 64.1827C133.648 65.0408 133.908 66.0214 134.688 66.7569C136.248 68.2279 138.719 68.5956 140.539 69.6988C143.269 71.1698 143.919 73.6214 142.229 76.1956C141.449 77.5439 139.629 79.9955 138.069 80.2407C137.028 79.0149 137.158 77.4214 136.508 75.8278C135.598 73.0085 133.778 71.5375 130.918 70.5569C127.798 69.4537 124.677 69.5762 121.427 69.5762C119.477 69.6988 117.657 69.6988 115.707 69.4537C112.066 68.9633 111.546 66.6343 109.336 64.4279C107.386 62.344 104.656 60.7505 101.796 60.2602C97.3753 59.4021 92.4349 60.5053 88.4046 58.544C85.4143 57.1957 83.2042 54.4989 80.2139 52.9054C76.7036 51.1892 72.6733 50.6989 68.773 50.8215C66.6928 50.8215 64.7427 50.9441 62.7925 50.3312C60.5823 49.5957 58.5022 48.1247 56.422 47.0215C53.3018 45.428 50.3115 43.7119 46.6712 43.099C42.7709 42.4861 38.4806 43.4667 34.7103 42.2409C32.8901 41.628 31.72 40.2796 30.0299 39.6667C28.3398 38.9312 26.5196 38.9312 24.8295 39.0538C21.9693 39.1764 19.6291 39.1764 16.8988 38.4409C15.5987 38.0732 14.2986 37.5828 12.9985 37.3377C13.3886 35.0087 13.2585 32.6796 14.9487 30.7184ZM40.9508 25.2023C40.9508 25.4474 40.8208 25.57 40.8208 25.8152C40.1707 25.8152 39.6507 25.8152 39.1306 25.9378C37.3105 26.1829 35.3603 27.1636 33.5402 26.3055C32.3701 25.8152 31.59 24.8345 30.4199 24.2216C28.3398 23.241 26.2596 22.7507 24.0494 22.8733C26.3896 19.6862 30.1599 19.6862 33.9302 20.5442C37.0505 21.2797 38.8706 23.241 40.9508 25.2023ZM67.9929 35.0087C65.5227 32.5571 62.5325 30.841 58.3722 30.841C55.5119 30.841 53.6918 31.5764 51.4816 29.37C51.2216 29.2474 50.9616 29.0023 50.7016 28.7571C50.8316 28.6345 50.9616 28.6345 51.0916 28.5119C53.0417 26.9184 54.6019 27.4087 56.9421 28.0216C59.2822 28.7571 62.0125 29.4926 64.0926 30.841C65.3927 31.699 66.8228 33.4151 67.9929 35.0087ZM74.3634 36.3571C73.4534 36.4796 72.6733 36.6022 71.8933 36.8474C70.5931 37.2151 70.3331 37.4603 69.6831 36.7248C68.773 34.5184 68.513 32.0668 66.6928 30.3506C65.0027 28.6345 62.4025 27.5313 60.0623 26.7958C57.9821 26.0603 55.2519 25.0797 52.9117 25.4474C52.0017 25.57 51.2216 25.6926 50.4415 26.3055C49.9215 26.6732 49.5315 27.2861 49.1414 27.6539C47.9713 27.041 46.8012 26.5507 45.5011 26.3055C44.8511 26.0603 44.071 25.9378 43.421 25.9378C44.331 25.0797 45.6311 23.8539 45.6311 23.8539C47.3213 22.6281 49.2714 22.2604 51.3516 22.0152C54.6019 21.5249 57.7221 21.8926 60.7124 23.1184C66.8228 25.4474 73.0633 28.5119 75.1435 34.6409C74.8835 35.1313 74.6235 35.6216 74.3634 36.2345L74.3634 36.3571ZM98.5454 44.3248C96.8553 43.4667 94.9051 42.9764 93.085 42.7312C90.7448 42.4861 88.4046 43.4667 86.5844 41.8732C85.5443 40.8925 84.8943 39.9119 83.8542 39.0538C84.2442 38.9312 84.7643 38.6861 85.1543 38.6861C87.4945 38.0732 90.8748 38.1958 93.085 39.1764C94.5151 39.6667 95.6852 40.6474 96.7252 41.628C97.6353 42.4861 98.0253 43.3441 98.5454 44.3248ZM98.8054 41.2603C97.2453 39.1764 95.2951 37.5829 92.6949 36.97C89.3147 35.9893 84.8943 35.7442 81.9041 37.828C80.3439 36.97 78.6538 36.4796 76.9637 36.3571C78.2638 35.1313 79.3038 34.3958 81.254 33.9055C83.0741 33.5377 84.7643 33.5377 86.5844 33.6603C90.0947 33.9055 93.475 34.3958 96.8553 35.6216C102.966 37.9506 109.466 43.4667 111.416 49.4731C110.766 49.3505 110.116 49.3505 109.466 49.3505C108.426 49.3505 107.516 49.5957 106.476 49.7183C105.046 49.9634 104.656 50.2086 103.746 49.1054C102.576 47.757 101.666 46.4086 100.236 45.428C99.8455 43.957 99.8455 42.6086 98.8054 41.2603ZM25.0895 9.38945C26.9097 7.18301 28.7298 5.71205 31.72 4.97657C34.3202 4.48625 36.9204 4.11851 39.6507 3.99593C51.2216 3.13787 63.4426 6.07979 74.4935 9.26687C84.8943 12.3314 95.5552 15.5185 105.566 19.8088C110.766 21.8926 115.577 24.4668 120.647 26.5507C125.588 28.5119 130.528 30.5958 135.208 32.9248C138.199 34.3958 140.929 35.9893 143.659 37.828C146.129 39.299 148.859 40.6474 150.68 42.8538C153.41 45.9183 153.93 57.0731 149.119 59.5247C147.949 56.215 144.699 53.6408 141.579 52.1699C132.998 48.3699 121.037 44.4473 112.066 49.1054C112.717 41.3828 103.096 34.7635 96.2052 32.5571C91.1348 30.841 80.6039 29.2474 76.0536 33.6603C74.6235 26.1829 66.1728 22.0152 58.8922 20.0539C55.1219 19.0733 50.8316 19.1959 47.1913 20.4217C45.3711 21.0346 42.9009 22.5055 41.4708 24.3442C38.8706 21.0346 36.6604 18.583 31.46 17.9701C27.4297 17.6023 23.2693 17.8475 21.7092 21.6474C21.1892 20.1765 20.9292 18.8281 21.1892 17.2346C21.5792 14.4152 23.2693 11.7185 25.0895 9.38945ZM137.939 65.4085C137.288 64.9182 136.638 64.4279 136.248 63.5698C135.468 62.0989 135.338 60.7505 133.908 59.5247C132.348 58.1763 130.268 57.5634 128.188 57.4408C127.148 57.3182 125.978 57.1957 124.938 57.3182C124.157 57.4408 122.987 57.9311 122.077 57.9311C121.817 57.1957 121.687 56.5828 121.427 55.9699C121.947 55.8473 122.467 55.8473 123.117 55.8473C125.588 55.8473 128.058 55.8473 130.528 56.0924C135.598 56.4602 143.789 60.2602 137.939 65.4085ZM137.419 55.6021C133.778 53.7634 129.488 53.5183 125.458 53.3957C123.377 53.3957 121.687 53.3957 119.997 53.886C119.087 52.6602 117.657 51.6796 115.837 50.6989C115.707 50.6989 115.577 50.6989 115.447 50.5763C117.787 49.9634 120.127 49.228 122.727 49.228C126.888 49.228 131.438 50.5763 135.208 52.2925C138.719 53.886 142.749 55.1118 145.089 58.1763C146.909 60.6279 147.039 63.2021 144.699 65.5311C144.049 66.2666 143.399 66.8795 142.749 67.615C142.359 67.2472 141.969 67.0021 141.449 66.7569C140.539 66.3892 139.499 66.0214 138.719 65.6537C142.749 62.7118 142.359 58.0537 137.419 55.6021ZM121.817 104.021C116.877 106.105 111.546 107.208 106.086 107.576C94.125 108.434 82.5541 106.228 70.9832 103.163C58.5022 99.7309 46.6712 95.1955 35.2303 89.3116C33.9302 88.6987 32.5001 87.9632 31.2 87.2278C28.7298 85.6342 26.3896 83.9181 24.0494 81.9568C20.1491 78.6471 16.1188 75.3375 12.9985 71.2924C11.3084 69.2085 10.0083 67.0021 9.35824 64.4279C8.70819 61.8537 7.6681 59.4021 8.57817 56.7053C9.61825 53.6408 11.5684 52.1699 14.8187 51.557C17.8089 50.9441 20.9292 50.8215 23.9194 51.1892C29.5099 51.6795 34.9703 53.0279 40.3007 54.2537C51.2216 56.8279 61.7524 60.3827 72.2833 64.0601C82.9441 67.9827 93.865 71.2924 104.526 75.3375C109.596 77.2988 114.667 79.6278 119.347 82.3246C121.947 83.7955 124.417 85.5116 126.628 87.4729C128.318 89.189 130.918 91.1503 131.958 93.2342C134.428 98.5051 125.848 102.305 121.817 104.021ZM7.27807 51.6795C5.84796 53.2731 4.93788 55.4795 4.54785 57.5634C4.02781 60.1376 5.0679 62.4666 5.84796 65.0408C6.62802 68.2279 8.44816 71.0472 10.6583 73.6214C11.9584 75.5827 13.5186 77.2988 15.3387 79.0149C19.8891 83.5504 25.0895 86.9826 30.81 90.1697C42.2509 96.6664 54.4719 101.692 67.2129 105.37C80.0839 108.924 92.6949 111.744 106.086 110.886C111.806 110.518 117.527 109.415 122.857 107.331C127.278 105.492 132.478 103.041 134.948 98.8729C136.248 96.789 136.378 94.8277 135.728 93.1116C136.768 93.2342 137.939 93.1116 138.849 93.1116C142.099 92.8664 146.649 93.2342 149.639 91.8858C151.46 91.1503 152.76 89.4342 151.98 87.5955C151.07 85.3891 147.169 84.1633 145.089 83.4278C143.139 82.6923 141.059 82.4471 139.239 81.3439C142.099 80.4859 145.089 76.931 145.739 74.602C146.389 72.5182 145.869 70.6795 144.569 69.2085C147.169 67.615 149.509 64.673 149.509 61.8537C150.29 61.7311 151.07 61.2408 151.59 60.8731C153.41 59.4021 154.58 56.8279 155.1 54.7441C156.14 50.2086 156.4 44.5699 152.63 41.0151C148.339 36.97 142.099 33.9055 136.768 31.2087C130.528 28.0216 124.027 25.2023 117.657 22.5055C111.026 19.6862 104.916 16.4991 98.1554 14.0475C91.2648 11.7185 84.3743 9.26687 77.3537 7.18301C64.0926 3.13787 49.7915 -0.294368 35.8804 1.05401C33.0201 1.29917 29.5099 1.66691 26.9097 3.01529C24.1794 4.48625 21.8392 7.30559 20.2791 9.75719C17.1589 14.5378 16.1188 19.3184 18.979 24.0991C18.0689 24.4668 17.1589 24.8345 16.2488 25.4474C14.2986 26.6732 12.2185 28.5119 11.1784 30.5958C10.2683 32.5571 10.2683 34.6409 10.1383 36.7248C7.40808 36.357 4.41785 36.6022 2.33768 38.4409C-3.38278 43.3441 2.85771 48.2473 7.27807 51.6795Z" fill="white" fill-opacity="0.2"/>
</svg>
