<svg className="fill-current text-blue-500" width="137" height="91" viewBox="0 0 137 91" fill="none" xmlns="http://www.w3.org/2000/svg">
<path d="M34.9618 82.0544C33.9842 79.8213 32.8669 77.4392 31.8892 75.0571C30.7719 72.3773 29.096 68.8042 29.6546 65.8266C29.7943 64.9334 30.6323 64.189 31.4702 64.6356C33.8445 65.9755 35.9394 68.5065 38.174 70.293C39.85 71.484 41.5259 72.9728 43.3415 74.3127C42.0846 72.3773 40.8276 70.293 39.85 68.2087C37.755 64.0401 35.5204 60.0204 33.8445 55.7029C33.4255 54.6607 34.2635 53.6186 35.2411 53.7675C38.3137 54.0652 41.6656 56.0006 44.3192 57.1917C46.8331 58.2338 49.347 59.4249 51.8609 60.467C51.3023 60.0204 51.0229 59.7226 50.604 59.276C48.7884 57.4894 46.9727 55.554 45.1571 53.4697C43.3415 51.3854 38.8723 47.5146 39.85 44.2392C39.9896 43.7926 40.4086 43.4948 40.8276 43.4948C44.0398 42.6016 47.8107 43.1971 51.1626 43.0482C53.1179 43.0482 56.1904 43.0482 58.7044 42.4527C56.6094 42.006 54.2352 41.8572 52.4196 41.7083C49.0677 41.1128 45.7158 40.5173 42.3639 40.5173C41.3863 40.6661 40.5483 39.9217 40.6879 38.7307C40.6879 37.3908 41.3863 36.9442 42.3639 36.3487C44.5985 34.8599 46.9727 33.52 49.347 32.18C53.5369 29.6491 60.101 27.4159 63.7322 23.5451C60.7993 23.2473 56.1904 24.885 54.3748 25.3316C51.3023 26.2249 46.9727 27.1182 45.0175 29.798C43.9002 31.4357 41.3863 29.5002 42.6432 27.8626C46.5538 22.354 50.3246 16.5478 54.9335 11.6348C57.0284 9.55047 59.263 7.31729 61.6373 5.53074C62.1959 5.08411 62.7546 4.63747 63.3132 4.19084C64.8495 2.55317 64.8495 2.40429 63.3132 3.59532C61.9166 4.04196 60.52 4.48859 59.263 4.93523C53.2575 7.16841 47.5314 11.1881 42.6432 15.3567C40.8276 16.9944 39.012 18.781 37.4757 20.7164C36.3584 22.6518 35.2411 24.5872 34.2635 26.6715C32.8669 29.2025 31.8892 30.8401 31.6099 33.8177C31.4702 35.0087 31.6099 35.4554 31.0512 36.4975C30.7719 37.093 30.0736 37.2419 29.515 37.2419C26.0234 36.7953 22.1129 34.4132 18.9006 32.9244C16.666 31.8823 14.1521 30.8401 11.7779 30.3935C8.70529 30.0957 7.16901 31.2868 5.3534 33.6688C4.09644 35.1576 1.58252 37.3908 3.95678 38.5818C5.91205 39.4751 8.7053 39.1773 10.6606 39.4751C15.4091 40.0706 20.0179 41.2616 24.6268 42.4527C27.2804 43.0482 28.1183 43.9415 28.1183 46.7702C27.9787 52.1298 26.0234 57.1917 26.4424 62.5513C26.8614 67.1666 27.839 71.9307 29.934 76.0993C30.9116 78.1836 32.1685 80.2679 33.7048 82.0544C34.2635 82.6499 35.3808 83.841 36.4981 84.8831C35.9394 83.841 35.3808 82.9477 34.9618 82.0544ZM49.0677 90.5405L64.2909 90.5405C55.0732 88.9029 45.9951 85.7764 37.755 81.6078C37.1964 80.5657 36.6377 79.5235 36.2188 78.6302C34.9618 76.0993 32.7272 72.0796 32.1685 68.6553C34.2635 70.293 36.0791 72.6751 38.0344 74.1639C40.8276 76.397 43.7605 78.928 46.9727 80.5657C48.09 81.1612 49.347 79.6724 48.928 78.4813C47.2521 74.4616 44.3192 71.0374 42.2242 67.1666C40.6879 64.0401 38.8723 60.7648 37.4757 57.4894C38.4534 57.9361 39.2913 58.3827 40.1293 58.6805C41.9449 59.5737 43.9002 60.467 45.8554 61.2114C49.347 62.8491 52.9782 64.4867 56.7491 65.2311C57.7267 65.38 58.844 64.0401 58.2854 62.9979C57.0284 60.3181 53.5369 57.9361 51.4419 55.8518C49.766 54.2141 48.09 52.5764 46.4141 50.7899C45.9951 50.1944 42.5036 46.919 42.7829 46.3235C42.9225 45.728 52.9782 46.3235 54.3748 46.3235C57.3077 46.0258 61.6373 46.1746 64.0115 43.9415C64.7098 43.1971 64.8495 41.8572 64.0115 40.9639C61.2183 38.7307 57.4474 38.7307 54.0955 38.433C51.7213 38.1352 49.2073 37.6886 46.6934 37.5397C47.8107 36.9442 48.7883 36.3487 49.2073 36.0509C51.5816 34.711 53.9559 33.3711 56.3301 32.18C60.3803 29.9469 65.5478 27.8626 68.0617 23.694C68.6204 22.9496 68.6204 21.7585 67.7824 21.163C64.4305 18.3343 58.2854 20.7164 54.6542 21.6097C53.1179 22.0563 51.4419 22.5029 49.766 23.0984C51.0229 21.163 52.4196 19.3765 53.9559 17.441C57.1681 13.2724 60.939 10.146 64.7098 6.72177C67.5031 6.42402 70.7153 6.87065 73.2292 7.01953C77.0001 7.31729 80.4917 8.06168 83.9832 9.40159C91.106 12.2303 98.2288 16.5478 104.234 21.4608C109.681 25.9271 114.29 30.989 118.619 36.6464C122.809 42.006 125.882 48.2589 128.815 54.363C130.211 57.3405 131.468 60.467 132.306 63.5935C133.424 67.9109 132.306 71.1863 129.932 74.6105C125.882 80.7145 120.016 83.9899 113.731 86.8186C109.96 88.6051 106.19 89.7961 102.279 90.5405L115.966 90.5405C119.597 89.0517 123.089 86.9674 126.161 84.5854C131.049 80.7145 136.077 74.7594 136.636 68.0598C137.195 60.7648 132.725 53.6186 129.653 47.5145C122.251 33.0733 111.636 21.4608 98.2288 13.1236C92.363 9.55047 86.0782 5.97738 79.2347 4.93523C75.6035 4.33971 70.855 3.7442 66.6651 4.48859C67.3634 3.59532 67.7824 2.55317 67.3634 1.51102C66.5254 -0.722164 63.7322 0.319987 62.1959 0.766624C54.0955 3.14868 46.2744 7.76393 39.9896 14.0168C38.593 15.3567 37.336 16.6967 36.2188 18.3343C35.7998 18.781 35.2411 19.3765 34.8221 19.972C33.7048 21.4608 32.7272 22.9496 31.6099 24.5872C30.9116 25.7783 30.2133 26.8204 29.7943 27.8626C29.2356 28.7558 28.677 29.798 28.3977 30.989C28.258 31.4357 28.3977 32.4778 28.3977 33.3711C26.4424 32.9244 24.2078 31.7334 22.3922 30.989C19.8783 29.9469 17.3644 28.9047 14.7108 28.1603C10.9399 27.267 7.588 27.267 4.79476 30.2446C3.11881 32.0312 -1.21072 36.7953 0.325565 39.4751C1.16353 40.815 2.83948 40.9639 4.09644 41.1128C6.88968 41.7083 9.68293 42.006 12.4762 42.4527C15.6884 43.0482 19.0403 43.9415 22.2525 44.9836C23.6492 45.4303 24.6268 45.4303 25.0458 47.0679C25.1854 48.5567 24.3475 50.641 24.2078 52.1298C23.2302 57.6383 23.0905 62.8491 24.0681 68.5065C24.9061 73.4195 26.8614 78.0347 29.7943 81.9056C31.6099 84.4365 35.2411 88.9029 38.4534 89.3495C39.012 89.4984 39.9896 88.9029 39.9896 88.1585C39.9896 87.4141 39.85 86.6697 39.5706 85.9253C42.6432 87.8607 45.7158 89.3495 49.0677 90.5405Z" fill="white" fill-opacity="0.2"/>
<path d="M78.0148 27.473C77.7362 27.0601 77.5969 26.3719 77.5969 25.8214C77.7362 25.1332 78.0148 24.7204 78.5719 24.3075C79.2683 23.6193 80.2433 23.4817 81.079 23.7569C81.7754 23.7569 82.6111 23.8946 83.1682 24.3075C84.2825 25.2709 84.2825 27.0601 83.1682 27.8859C82.6111 28.2987 81.7754 28.574 81.079 28.574C79.9647 28.7116 78.8505 28.4364 78.0148 27.473Z" fill="white" fill-opacity="0.2"/>
<path d="M77.5969 40.8678C77.5969 39.6729 78.0204 38.6273 79.1495 38.1792C80.2787 37.5817 81.549 37.8804 82.5371 38.6273C83.3839 39.2247 84.2308 40.5691 83.9485 41.6146C83.6662 42.6602 83.1017 43.2577 82.2548 43.4071C81.9725 43.5564 81.8313 43.5564 81.549 43.5564C81.4079 43.5564 81.2667 43.4071 81.1256 43.4071C80.8433 43.4071 80.4199 43.5564 80.1376 43.4071C78.8672 43.2577 77.7381 42.2121 77.5969 40.8678Z" fill="white" fill-opacity="0.2"/>
<path d="M72.7909 40.1843C72.118 38.6856 73.4637 36.5874 75.0787 36.8871L75.2133 36.8871C75.8862 36.2876 76.6936 36.2876 77.3665 36.8871C78.174 37.4866 78.3086 38.6856 78.3086 39.5848C78.0394 41.0835 76.9628 41.9827 75.7516 42.1326C74.5404 42.1326 73.3292 41.5331 72.7909 40.1843Z" fill="white" fill-opacity="0.2"/>
<path d="M64.4442 57.1842C64.32 56.7478 64.0715 56.3114 64.0715 55.875C64.0715 55.4386 64.0715 55.0021 64.1957 54.5657C64.4442 53.8384 65.1897 53.111 65.9352 53.111C66.1837 53.111 66.3079 53.111 66.4322 53.111C66.5564 52.9655 66.8049 52.82 66.9291 52.82C68.4201 52.6746 69.1656 54.4203 69.0413 55.875C68.9171 56.8933 68.4201 57.9116 67.5504 58.348C66.9291 58.639 66.1837 58.4935 65.6867 58.2026C65.1897 58.0571 64.6927 57.6207 64.4442 57.1842Z" fill="white" fill-opacity="0.2"/>
<path d="M79.3974 53.7508C79.1281 53.4734 78.8587 53.1961 78.5894 52.7801C78.32 52.0868 78.1853 51.3935 78.4547 50.7002C78.724 50.0069 79.5321 49.3136 80.3402 49.3136C80.6095 49.1749 80.8789 49.3136 81.1482 49.3136C81.8216 49.4522 82.091 49.8682 82.495 50.1456C82.495 50.2842 82.495 50.2842 82.495 50.2842C81.9563 49.5909 82.3603 50.0069 82.6297 50.2842C82.7644 50.2842 83.0337 50.2842 83.1684 50.2842C84.6499 50.8389 85.1886 52.7801 84.2458 54.0281C83.3031 55.1374 81.8216 55.1374 80.6095 54.5827C80.2055 54.4441 79.8015 54.1667 79.3974 53.7508Z" fill="white" fill-opacity="0.2"/>
<path d="M88.9292 37.3188C87.5676 35.9406 86.8868 33.6435 88.5207 32.1121C90.0185 30.7339 92.8779 31.6527 93.4225 33.6435C93.6948 34.2561 93.6948 34.7155 93.5587 35.1749C93.9671 35.6343 94.1033 36.2469 93.831 37.0126C93.5587 37.9314 92.8779 38.3908 92.0609 38.544C90.9716 38.6971 89.7462 38.2377 88.9292 37.3188Z" fill="white" fill-opacity="0.2"/>
<path d="M92.6142 31.6788C92.8713 29.8202 94.1568 28.891 95.6994 29.5105C95.828 29.5105 95.9565 29.6654 96.0851 29.8202C96.7278 30.13 97.1135 30.7495 97.3706 31.369C97.4991 31.6788 97.4991 31.9885 97.4991 32.2983C97.4991 32.2983 97.4991 32.4532 97.4991 32.6081C97.6277 33.5373 97.3706 34.4666 96.7278 35.0861C95.9565 35.8605 94.5425 36.0154 93.7712 35.0861C92.8713 34.3117 92.3571 32.9178 92.6142 31.6788Z" fill="white" fill-opacity="0.2"/>
<path d="M100.896 29.9034C99.933 28.5808 100.346 26.5234 101.86 25.7886C102.135 25.6417 102.411 25.6417 102.686 25.6417C103.236 24.9069 104.062 24.9069 104.888 25.3477C105.163 25.4947 105.439 25.7886 105.714 26.0825C105.852 26.0825 105.989 26.2295 105.989 26.3764C106.127 26.3764 106.127 26.3764 105.989 26.3764C106.265 26.6704 106.402 26.8173 106.54 27.2582C107.228 28.8747 106.402 30.4912 104.888 31.226C103.512 31.8138 101.86 31.226 100.896 29.9034Z" fill="white" fill-opacity="0.2"/>
<path d="M99.7029 46.3475C99.9805 45.533 100.813 44.5827 101.785 44.5827C101.923 44.5827 102.201 44.5827 102.479 44.5827C102.479 44.5827 102.479 44.5827 102.617 44.5827C102.617 44.5827 102.756 44.4469 102.895 44.4469C103.311 44.1754 104.005 44.1754 104.283 44.7184C104.422 44.8542 104.56 44.9899 104.699 45.2615C105.254 45.6687 105.532 46.6191 105.254 47.2979C104.838 48.1124 104.144 48.6555 103.311 48.927C102.895 49.1985 102.34 49.3343 101.923 49.1985C101.368 49.1985 101.091 48.927 100.536 48.6555C99.8417 48.2482 99.5641 47.1621 99.7029 46.3475Z" fill="white" fill-opacity="0.2"/>
<path d="M88.2902 61.261C88.1481 60.0583 89.1426 59.1229 90.2792 58.5883C91.4158 58.321 92.5525 58.722 93.1208 59.5238C93.1208 59.6574 93.1208 59.6574 93.2628 59.791C93.4049 59.791 93.547 59.9247 93.8311 60.0583C94.5415 60.3256 94.6836 60.9937 94.6836 61.6619C94.6836 62.0628 94.6836 62.4637 94.5415 62.8646C94.2574 63.5328 93.4049 64.0673 92.6945 64.201C91.9842 64.201 91.4158 64.201 90.8475 63.9337C90.4213 63.8001 89.853 63.5328 89.5689 63.2655C88.8585 62.8646 88.4323 62.0628 88.2902 61.261Z" fill="white" fill-opacity="0.2"/>
<path d="M113.635 44.4691C112.982 43.7046 113.112 42.3286 113.635 41.5642C113.896 41.2584 114.157 41.1055 114.418 40.9526C114.549 40.6468 114.549 40.494 114.679 40.3411C115.202 39.8824 115.854 39.8824 116.377 40.3411C116.768 40.494 117.03 40.9526 117.291 41.2584C117.16 41.2584 117.291 41.4113 117.421 41.4113C117.552 41.5642 117.683 41.87 117.813 42.0228C118.466 43.246 118.205 44.3162 117.291 44.9277L117.291 45.0806C117.16 45.2335 116.899 45.2335 116.768 45.3864C116.507 45.5393 116.246 45.5393 115.985 45.6922C115.593 45.6922 115.332 45.6922 114.94 45.5393C114.418 45.3864 114.026 45.0806 113.635 44.4691Z" fill="white" fill-opacity="0.2"/>
<path d="M105.535 60.0267C105.111 59.1075 105.535 57.8821 106.1 57.2693C106.524 56.8098 107.089 56.5034 107.795 56.5034C107.936 55.8906 108.219 55.2779 108.784 55.1247C109.914 54.6652 110.903 55.1247 111.327 56.197C111.892 57.5757 112.033 59.1075 111.044 60.333C110.62 60.9458 109.914 61.5585 109.208 61.8649C108.501 62.1713 107.654 62.1713 106.947 61.5585C106.241 61.2522 105.959 60.6394 105.535 60.0267Z" fill="white" fill-opacity="0.2"/>
<path d="M61.1945 41.5365C61.6016 40.9848 62.1443 40.709 62.8227 40.709C63.6368 40.709 64.1796 41.1227 64.7223 41.6744C64.9937 41.9502 64.9937 42.0881 65.1294 42.226C65.6721 43.0535 65.6721 44.5705 64.7223 45.1221C63.6368 45.8117 62.4157 45.9496 61.4659 45.1221C60.2447 44.1568 60.2447 42.5018 61.1945 41.5365Z" fill="white" fill-opacity="0.2"/>
<path d="M67.9577 36.4093C68.4723 35.3725 69.7586 34.6318 70.7876 35.2243C71.0449 35.3725 71.3022 35.5206 71.5594 35.6687C71.4308 35.6687 71.4308 35.5206 71.3022 35.5206C71.4308 35.6687 71.6881 35.6687 71.8167 35.8168C71.8167 35.8168 71.6881 35.8168 71.6881 35.6687C71.9453 35.8168 72.2026 35.965 72.4599 36.1131C73.2317 36.7056 73.4889 37.7425 73.2317 38.9275C72.7171 41.0012 69.7586 41.1493 68.4723 39.9643C67.7005 38.9275 67.3146 37.5943 67.9577 36.4093Z" fill="white" fill-opacity="0.2"/>
</svg>
