<svg className="fill-current text-blue-500" width="194" height="50" viewBox="0 0 194 50" fill="none" xmlns="http://www.w3.org/2000/svg">
<path d="M189.923 12.7904C191.483 15.4871 187.712 18.9194 185.762 20.2678C182.122 22.8419 177.572 23.5774 173.281 24.5581C174.191 20.6355 175.492 15.1194 172.761 11.8097C172.111 10.9517 170.811 11.5646 171.201 12.5452C171.721 14.5065 172.501 16.1 172.631 18.1839C172.761 20.3903 172.631 22.5968 172.371 24.8032C172.371 24.8032 172.241 24.8032 172.111 24.9258C167.691 26.029 163.401 27.8677 159.37 30.0742C157.42 31.3 155.47 32.6483 153.26 33.629C150.92 34.7322 148.189 35.0999 145.589 35.4677C145.069 35.4677 144.419 35.5903 143.899 35.5903C146.759 29.829 147.019 23.2097 143.899 17.3258C143.769 17.0807 143.379 17.2033 143.509 17.571C144.419 21.371 143.899 25.2935 143.249 29.0935C143.119 30.4419 142.469 31.7903 142.209 33.1387C141.949 33.9967 141.819 34.9774 141.689 35.958C138.699 36.3257 135.838 36.9386 133.108 38.1644C128.818 40.1257 124.917 43.0676 120.237 44.1709C118.027 44.7838 115.687 44.6612 113.477 44.2934C114.777 43.4354 116.077 42.6999 116.987 41.1064C118.547 38.6548 119.847 35.5903 120.237 32.7709C121.277 27.3774 119.067 20.8806 116.467 16.1C115.947 15.242 114.777 15.9774 115.037 16.7129C116.597 21.7387 118.547 28.2355 117.247 33.5064C116.597 35.8354 115.687 38.4096 114.387 40.4935C113.737 41.8418 112.566 42.8225 111.656 43.9257C108.666 43.1902 105.676 42.3322 102.556 42.2096C98.1353 42.087 93.975 43.8031 89.8146 45.0289C90.3347 44.6612 90.8547 44.1709 91.2448 43.6805C93.3249 41.3515 94.755 38.7773 95.2751 35.8354C96.3152 30.1967 95.1451 22.7193 91.6348 18.0613C91.1148 17.4484 89.6846 17.9387 90.2047 18.7968C92.6749 23.7 93.585 30.4419 92.5449 35.8354C91.8948 38.7773 90.2047 41.2289 88.2545 43.558C87.4745 44.416 86.3044 45.1515 85.3943 46.1321C82.7941 46.4999 80.4539 46.6225 77.7237 45.887C74.4734 45.0289 71.6132 43.4354 68.883 41.5967C68.1029 41.1063 67.3228 40.4934 66.5428 39.8805C64.4626 37.0612 63.1625 33.629 62.3824 30.3193C61.2124 25.2935 63.0325 21.0032 65.5027 16.7129C67.8429 12.5452 71.2232 9.23555 75.2535 6.66137C75.7735 7.76459 76.8136 8.74523 77.4637 9.72587C78.8938 12.3 80.0639 15.3645 80.9739 18.1839C82.9241 23.5774 80.5839 29.829 77.7237 34.6096C77.7237 34.7322 77.8537 34.7322 77.8537 34.7322C81.494 29.9516 85.0043 24.3129 83.9642 18.1839C83.5741 15.6097 81.624 7.76459 78.3737 5.19041C82.5341 3.59687 87.0844 3.59687 91.7648 4.08719C94.365 4.33235 96.8352 4.94525 99.3054 5.55815C99.1754 5.68073 99.0454 5.92589 99.0454 6.04847C99.0454 8.86781 101.256 11.9323 102.166 14.6291C103.336 18.5516 103.596 23.2097 103.206 27.2548C103.076 27.5 103.336 27.5 103.336 27.3774C105.676 19.9 104.506 13.4033 101.906 6.29363C103.856 6.78395 105.806 7.39685 107.756 7.76459C112.566 8.86781 116.727 7.76459 121.407 6.78395C122.057 7.76459 122.837 8.62265 123.357 9.48071C124.397 11.0742 125.307 12.6678 126.218 14.2613C127.648 16.9581 128.558 19.9 128.688 22.9645C128.688 26.3968 127.648 29.5838 126.738 32.8935C126.738 33.1387 127.128 33.2612 127.258 33.0161C128.818 29.3387 130.768 26.029 131.158 21.9839C131.418 18.9194 130.508 15.7323 129.078 12.9129C128.558 11.8097 126.998 8.50007 125.177 6.29363C129.338 5.92589 133.498 6.53879 137.528 7.51943C142.469 8.86781 146.759 9.11297 151.83 8.37749C153.26 8.13233 154.69 7.76459 156.25 7.64201C156.25 7.88717 156.25 8.00975 156.38 8.13233C157.68 11.0743 159.76 13.771 160.41 16.9581C161.32 21.0032 161.58 24.9258 159.76 28.9709C159.76 29.0935 159.89 29.0935 160.02 28.9709C164.311 22.1065 163.401 14.6291 159.63 7.76459C159.76 7.76459 159.76 7.76459 159.89 7.76459C162.62 8.37749 164.961 9.35813 167.821 9.60329C173.021 10.0936 177.962 8.99039 183.162 9.97103C185.242 10.3388 188.883 10.8291 189.923 12.7904ZM44.961 40.9838C42.3608 41.7192 39.6306 42.3322 36.9004 42.9451C34.6902 43.3128 31.7 44.5386 29.4898 43.3128C28.8398 42.945 27.9297 41.8418 27.2796 40.8612C27.4096 40.8612 27.5396 40.7386 27.7997 40.7386C33.0001 38.8999 38.2005 36.6935 43.6609 35.2225C46.9112 34.2419 50.1615 33.2612 53.5417 32.7709C55.4919 32.4032 57.442 32.4032 59.2622 32.158C59.3922 33.0161 59.5222 33.8741 59.9122 34.7322C59.7822 34.7322 59.7822 34.8548 59.7822 34.8548C54.9718 37.1838 50.1615 39.3902 44.961 40.9838ZM15.1887 42.8225C12.8485 43.9257 10.7683 45.5192 8.03808 45.3966C5.82791 45.3966 3.35771 44.1708 3.87774 41.7192C4.26777 39.758 6.08792 39.2676 8.03808 38.5322C10.3783 37.5515 12.8485 36.6935 15.3187 35.958C20.5191 34.487 25.9795 33.8741 31.31 33.0161C36.5104 32.158 41.7108 31.2999 46.7812 30.5645C50.4215 30.0741 55.1019 30.0741 58.7421 28.8483C58.7421 29.2161 58.8722 29.5838 58.8722 30.0741C59.0022 30.1967 59.0022 30.3193 59.0022 30.5645C51.0715 29.7064 42.3608 33.0161 35.0802 35.5902C30.5299 37.1838 25.9795 38.5322 21.4292 40.2483C19.349 41.1063 17.2688 41.9644 15.1887 42.8225ZM16.2287 28.8483C13.8885 28.9709 10.8983 29.7064 8.55812 29.3387C6.21794 28.9709 2.57765 25.1709 2.83766 22.7193C3.22769 18.9194 14.0186 19.1645 17.0088 19.4097C21.9492 19.6548 26.8896 20.7581 31.83 21.371C36.9004 22.1064 41.8408 23.0871 46.9112 23.5774C50.8115 23.9451 54.7118 23.9451 58.7421 24.1903C58.6121 24.9258 58.6121 25.6613 58.4821 26.3967C58.0921 26.5193 57.5721 26.6419 57.052 26.6419C55.4919 26.6419 52.8917 26.7645 52.6317 26.7645C50.2915 27.1322 47.9513 27.2548 45.6111 27.3774C40.9307 27.6225 36.2503 27.9903 31.44 28.1129C26.3696 28.2354 21.2991 28.358 16.2287 28.8483ZM33.2601 17.4484C34.4302 17.0807 36.1203 17.4484 37.1604 17.4484C40.1507 17.3258 43.0109 16.9581 46.1311 17.3258C48.7313 17.6936 51.4616 18.3065 54.1918 18.6742C56.1419 19.0419 58.0921 19.2871 59.9122 19.9C59.6522 20.6355 59.3922 21.371 59.2622 22.1064C57.9621 21.4935 56.792 21.6161 55.1019 21.4935C52.1116 21.4935 49.1214 21.2484 46.1311 21.0032C41.1907 20.5129 36.2504 19.7774 31.31 19.0419C31.7 18.3065 32.22 17.6936 33.2601 17.4484ZM176.792 6.29363C173.151 6.41621 169.641 7.15169 165.871 6.41621C163.271 5.80331 160.93 4.57751 158.2 4.45493C154.95 4.45493 151.83 5.31299 148.579 5.55815C141.949 6.17105 136.098 2.98397 129.598 2.73881C126.998 2.61623 124.397 2.86139 121.927 3.22913C118.677 3.84203 115.687 5.19041 112.306 5.31299C105.416 5.55815 98.5253 1.63559 91.6348 1.02269C86.0443 0.409787 80.3239 0.532367 75.2535 3.10655C70.0531 5.68073 65.7627 9.60329 62.9025 14.2613C62.2524 15.242 61.7324 16.2226 61.2124 17.0807C58.3521 16.3452 55.3619 16.2226 52.3716 15.8549C48.6013 15.3645 44.701 14.6291 40.8007 14.9968C38.5905 15.1194 36.5104 15.3645 34.4302 15.4871C33.3901 15.4871 32.35 15.3645 31.31 15.7323C29.7498 16.4678 29.6198 17.571 29.8798 18.9194C28.9698 18.7968 28.0597 18.5516 27.1496 18.429C21.2991 17.571 15.5787 16.7129 9.72823 17.4484C6.73798 17.9387 1.01752 18.429 0.107452 21.8613C-0.672624 25.0484 2.96768 29.4612 5.56789 30.9322C9.98823 33.2612 17.0088 31.2999 21.6892 31.0548C26.1095 30.8096 30.5299 30.8096 34.9502 30.5645C31.0499 31.1774 27.2796 31.9128 23.5093 32.5257C17.5288 33.3838 11.6784 34.8548 6.21794 37.1838C2.57765 38.6547 -0.672624 40.3709 1.79758 44.6612C4.00776 48.4611 8.55812 48.7063 12.3284 47.1128C16.8788 45.0289 21.2991 43.0676 25.9795 41.3515C26.7596 43.4354 27.9297 45.6418 30.1399 46.1321C33.1301 46.8676 37.8105 45.1515 40.8007 44.416C44.571 43.558 48.2113 42.4547 51.9816 41.2289C55.1019 40.1257 58.4821 39.3902 61.2124 37.5515C64.0726 41.9644 69.403 45.7644 73.9534 47.6031C79.1538 49.6869 83.9642 49.5644 89.4246 48.3386C92.2848 47.6031 95.1451 46.6225 97.8753 45.887C101.646 44.9063 104.896 45.5192 108.536 46.3773C113.997 47.6031 118.807 48.216 124.137 46.2547C129.728 44.1709 134.538 40.616 140.519 39.6354C145.459 38.7773 150.66 39.0225 155.21 36.8161C160.93 33.9967 165.611 30.5645 171.721 28.7258C177.182 27.1322 182.772 26.6419 187.452 23.4548C190.573 21.2484 194.473 17.4484 193.953 13.4033C193.563 9.23555 188.493 7.64201 184.722 6.90653C182.122 6.41621 179.522 6.17105 176.792 6.29363Z" fill="white" fill-opacity="0.2"/>
</svg>
