<svg className="fill-current text-blue-500" width="125" height="132" viewBox="0 0 125 132" fill="none" xmlns="http://www.w3.org/2000/svg">
<path fill-rule="evenodd" clip-rule="evenodd" d="M100.162 51.1048L108.742 49.7564C109.912 50.9822 108.612 51.7177 108.222 51.8403C105.362 52.208 102.372 52.6983 99.3816 53.1887C98.3416 51.9628 99.3816 51.2274 100.162 51.1048ZM0.963718 102.466L0.313671 98.911C-0.0763665 95.8465 -0.0763664 92.6594 0.183659 89.7175C0.443676 87.511 0.833706 85.7949 1.22374 83.5885L2.13382 80.2788C2.78386 78.3175 3.43392 75.7434 4.34399 73.9047C5.38408 71.5756 5.64409 70.595 7.20422 68.1434L8.89436 65.3241C9.28439 64.9563 9.67442 64.5886 9.93445 64.0983C10.0645 63.8531 9.93445 63.9757 10.0645 63.7305C10.1945 63.6079 10.1945 63.4854 10.3245 63.3628L11.2345 62.137C12.2746 60.5434 13.7047 59.0725 14.8748 57.7241C15.0048 57.6015 15.0048 57.6015 15.2649 57.4789C15.3949 57.3564 15.3949 57.3564 15.5249 57.2338L16.695 56.008C18.3851 54.2919 21.7654 51.1048 23.8456 50.2467C24.8856 49.7564 26.5758 49.2661 27.7459 49.3887C29.566 49.6338 31.1261 50.2467 32.4263 51.4725C33.4663 52.5757 33.9864 54.2919 34.3764 55.6402C34.3764 55.8854 34.3764 56.2531 34.3764 56.7435C34.7664 58.5822 34.6364 62.5047 34.5064 64.5886C34.5064 65.2015 34.5064 65.8144 34.5064 66.5499L34.5064 82.1175C34.5064 86.5304 34.2464 91.6788 37.2366 95.111C38.0167 95.9691 38.7968 96.7045 39.8368 97.1949C43.6072 99.0336 49.3276 98.0529 52.8379 95.6013C53.3579 95.3562 53.748 94.9884 54.138 94.6207L55.9581 92.782C57.2583 91.5562 58.2983 89.7175 58.8184 88.0014C59.0784 87.511 59.2084 87.0207 59.3384 86.4078C59.9885 84.324 60.2485 75.8659 60.2485 73.2918C60.2485 72.066 60.2485 70.8402 60.2485 69.4918C60.3785 68.1434 60.2485 66.9176 60.3785 65.5692C60.3785 64.3434 60.3785 62.9951 60.3785 61.7692L60.8985 34.8016C61.0286 31.3694 61.0286 22.5436 61.2886 19.4791C61.5486 16.2921 62.3287 13.3501 63.8888 10.4082L64.6688 9.05985C65.7089 7.46631 67.009 6.11793 68.4392 4.89213C68.6992 4.64697 68.8292 4.52439 69.0892 4.27923L71.1694 2.80827C72.0794 2.19537 73.5096 1.58247 74.5496 1.21473C79.36 -0.501392 85.3405 -0.623972 89.6309 2.31795C90.0209 2.56311 90.0209 2.68569 90.4109 2.80827C91.061 3.29859 92.4911 4.89213 92.7511 5.62761C94.3112 5.38245 95.7413 5.25987 97.3015 5.01471C98.4716 4.76955 99.7717 5.13729 100.032 6.48567C100.552 9.67275 96.5214 9.79533 94.3112 10.1631C93.1411 10.2856 89.7609 10.2856 89.3708 11.5114C88.7208 13.2276 91.191 12.3695 93.0111 12.1243C94.7013 11.8792 96.9114 11.0211 98.4716 11.8792C99.7717 12.6147 99.3816 14.3308 98.7316 15.1888C98.3416 15.8017 97.6915 16.1695 96.7814 16.2921C95.8714 16.4146 93.4012 16.4146 92.8811 17.2727C92.6211 17.5179 92.7511 18.0082 92.8811 18.3759C93.9212 18.4985 95.2213 18.0082 96.2614 18.2533C98.6016 18.6211 98.8616 21.0727 97.3015 22.1759C95.7413 23.2791 89.7609 23.7694 87.6807 24.0146C86.2506 24.2598 84.9505 24.2598 85.2105 25.8533C85.8606 26.221 86.7706 25.9759 87.4207 25.9759C89.1108 25.9759 92.6211 25.1178 94.4412 24.8727L99.1216 24.0146C100.032 23.892 100.552 23.892 101.462 23.7694C101.982 23.7694 102.242 23.7694 102.632 23.7694C104.712 24.1372 105.102 27.3243 102.372 28.3049C100.812 28.7952 100.162 28.6726 98.9916 28.7952C96.6514 29.163 91.581 29.163 92.6211 31.3694C93.6612 31.492 94.8313 31.1242 95.8714 31.1242C97.9515 31.2468 98.3416 33.3307 97.4315 34.6791C97.0415 35.1694 96.6514 35.5371 96.0014 35.7823C93.6612 36.5178 89.3708 35.6597 89.8909 38.2339C90.4109 38.479 90.5409 38.3565 91.451 38.2339L100.552 36.8855C101.072 36.8855 101.592 36.8855 101.982 37.1307C103.412 37.7436 102.892 39.95 102.112 40.8081C101.592 41.421 100.682 41.421 99.6417 41.6661C99.2516 41.7887 99.3816 41.7887 98.9916 41.9113C98.7316 41.9113 98.4716 41.9113 98.2115 42.0339C97.8215 42.0339 97.1715 42.1565 96.7814 42.1565C95.0913 42.1565 92.7511 42.6468 91.061 42.8919C89.6309 43.1371 88.5908 43.5048 88.8508 44.7306C89.7609 45.0984 90.4109 44.9758 91.451 44.7306C91.971 44.6081 92.2311 44.4855 92.8811 44.4855C94.1812 44.2403 96.2614 43.75 97.5615 44.1177C99.9017 44.9758 99.1216 48.2854 96.1314 48.7758C95.2213 48.8983 94.0512 48.8983 93.2711 49.1435C92.3611 49.5112 92.1011 50.0016 92.3611 50.8596C93.2711 50.9822 94.7013 50.6145 95.6113 50.6145C96.5214 50.6145 97.4315 50.9822 97.5615 51.8403C97.6915 51.7177 97.5615 51.9628 97.6915 51.7177C97.8215 51.2274 97.9515 50.8596 98.3416 50.4919C98.7316 50.1241 99.1216 49.879 99.7717 49.7564L108.352 48.5306C108.742 48.408 109.002 48.5306 109.262 48.5306C111.473 49.2661 110.823 52.8209 108.612 53.0661L99.9017 54.4145C99.2516 54.537 98.8616 54.2919 98.4716 54.1693C98.2115 53.9241 97.9515 53.5564 97.8215 53.1887C97.6915 53.3112 97.8215 53.0661 97.6915 53.3112L97.5615 53.5564C97.3015 54.2919 96.7814 55.0274 95.7413 55.2725C93.6612 55.6403 89.6309 56.1306 87.4207 56.4983C86.5106 56.6209 84.5604 56.866 84.6905 58.0918C84.8205 58.8273 86.2506 58.4596 86.6406 58.4596C88.2007 58.2144 89.8909 58.0918 91.321 57.7241C92.4911 57.4789 99.7717 56.4983 101.202 56.2532C102.242 56.1306 103.282 56.3757 103.542 57.1112C104.062 56.9886 103.672 56.9886 104.062 56.6209C104.062 56.4983 104.192 56.3757 104.322 56.1306C105.362 55.0274 107.962 55.2725 108.222 56.7435C108.352 57.9693 107.962 59.1951 106.792 59.6854C105.492 60.1757 104.582 59.9305 103.932 58.9499C103.412 59.4402 103.412 60.5434 101.722 60.7886L94.7013 61.7692C93.9212 61.8918 91.841 62.2596 92.1011 63.2402C92.2311 64.466 93.6612 63.7305 94.7013 63.6079C97.3015 63.2402 98.3416 65.8144 96.7814 67.5305C95.6113 68.6337 93.0111 68.6337 91.581 68.7563C90.4109 69.0015 90.0209 69.124 89.3708 69.7369L89.5008 70.595C90.6709 71.0853 98.4716 69.2466 100.422 69.3692C101.072 69.3692 101.332 69.3692 101.722 69.7369C102.112 69.9821 102.372 70.3498 102.502 70.8402C103.022 73.9047 99.7717 73.7821 97.6915 74.395C97.1715 74.6401 96.7814 74.5176 96.3914 74.5176C95.4813 74.5176 93.9212 74.8853 92.8811 75.1305C91.711 75.253 91.061 76.724 91.971 76.8466C93.1411 76.9692 94.9613 76.4788 96.1314 76.3563C97.6915 76.1111 99.5116 75.3756 100.812 76.2337C101.332 76.6014 101.462 76.9692 101.722 77.2143C101.852 76.3563 102.762 75.4982 103.802 75.3756L112.383 74.0272C115.373 73.5369 115.373 78.3175 112.253 78.8079L104.582 79.9111C103.022 80.1562 102.112 79.6659 101.722 78.5627C101.592 78.6853 101.722 78.5627 101.592 78.8079C100.682 80.524 99.2516 80.6466 97.4315 80.8917C96.7814 81.0143 96.6514 81.0143 96.2614 81.1369C95.7413 81.2595 95.6113 81.2595 95.3513 81.6272C95.0913 81.9949 95.0913 82.3627 95.2213 82.7304C96.2614 83.0982 97.8215 82.3627 98.8616 82.4853C101.202 82.9756 101.072 85.6723 99.2516 86.7756C98.7316 87.1433 97.5615 87.3885 96.9114 87.511L91.451 88.3691C90.931 88.4917 90.5409 88.3691 89.7609 88.4917C88.2007 88.7368 87.4207 88.8594 87.6807 90.2078C88.2007 90.453 88.2007 90.453 88.9808 90.3304C90.2809 90.2078 91.971 90.0852 93.2711 89.7175C93.6612 89.5949 93.5312 89.5949 93.9212 89.4723C94.1812 89.4723 94.4412 89.4723 94.7013 89.4723C96.5214 89.1046 104.192 87.7562 105.622 88.3691C106.012 88.6143 106.402 88.8594 106.532 89.4723L106.792 89.4723C106.792 88.982 107.182 88.4917 107.442 88.2465C108.222 87.511 109.912 87.1433 110.693 87.8788C112.123 89.2272 111.083 91.5562 109.652 91.6788C108.482 91.9239 107.052 91.8013 106.792 90.453L106.662 90.5755C106.662 90.8207 106.532 91.0659 106.402 91.311C106.142 91.9239 105.752 92.4142 104.972 92.6594C103.672 93.1497 98.9916 93.64 97.3015 93.8852C96.3914 94.0078 94.7013 94.0078 94.8313 95.3562C94.9613 95.8465 95.0913 95.8465 95.6113 95.7239C96.0014 95.7239 96.0014 95.8465 96.5214 95.7239C97.0414 95.6013 97.6915 95.4787 98.2115 95.4787C100.942 95.7239 100.942 98.7884 98.8616 99.8916C97.8215 100.382 96.3914 100.382 94.9613 100.627C93.5312 100.75 92.1011 100.75 92.2311 102.588C92.8811 102.834 93.0111 102.711 93.9212 102.588C95.6113 102.343 102.112 101.24 103.152 101.24C105.492 101.24 105.752 103.814 104.582 105.163C103.932 105.775 103.152 105.898 101.982 106.021C100.812 106.143 100.162 106.388 98.9916 106.634L83.2603 108.84L81.7002 110.801C80.9202 111.782 80.0101 112.64 79.23 113.621C78.3199 114.846 75.9798 116.808 74.6797 117.911C74.4196 118.156 74.4196 118.156 74.1596 118.401C74.0296 118.524 73.8996 118.646 73.6396 118.769C73.3795 119.014 72.9895 119.259 72.7295 119.504L70.1293 121.466C68.6992 122.446 66.619 123.672 65.0589 124.653C64.6688 124.775 64.2788 125.021 63.8888 125.266C63.1087 125.633 62.1986 126.001 61.4186 126.491C56.8682 128.698 51.6678 130.291 46.5974 131.15L44.2572 131.395C42.6971 131.517 41.267 131.517 39.7068 131.64C39.0568 131.64 38.2767 131.517 37.6267 131.517L29.696 130.537C27.8759 130.169 26.1857 129.556 24.3656 129.066C24.1056 128.943 23.8456 128.821 23.4555 128.698L19.5552 126.859C18.2551 126.246 17.6051 125.756 16.565 125.143L15.7849 124.775C15.5249 124.53 15.3949 124.408 15.1349 124.285L12.5346 122.079C10.8445 120.485 9.15438 118.892 7.72426 117.053C6.16413 115.092 4.86403 113.008 3.82395 110.801C3.69393 110.556 3.56393 110.188 3.43392 109.943C2.26382 107.614 1.48376 105.163 0.963718 102.466ZM105.882 56.7435C107.572 56.4983 106.922 58.337 105.752 58.5822C105.492 58.5822 105.492 58.5822 105.232 58.5822C104.842 57.7241 104.972 56.8661 105.882 56.7435ZM104.062 76.6014C105.752 76.3563 111.863 75.253 113.033 75.3756C113.553 76.4788 113.163 77.3369 111.993 77.4595L104.192 78.6853C103.542 78.6853 103.542 78.5627 103.022 78.4401C102.892 77.5821 103.152 76.724 104.062 76.6014ZM109.132 88.8594L109.652 88.7368C109.782 88.982 109.782 88.982 110.042 89.2272C110.042 89.3497 110.042 90.3304 108.872 90.453C107.572 90.6981 108.092 88.982 109.132 88.8594ZM103.932 102.956C103.932 103.324 103.932 103.569 103.802 103.814C103.412 104.672 102.372 104.672 101.332 104.795C100.552 104.917 100.162 105.04 99.3816 105.163C96.7814 105.53 94.3112 106.021 91.841 106.266C91.321 106.388 91.321 106.266 90.6709 106.388C89.2408 106.634 87.6807 106.756 86.2506 107.001L84.1704 107.492C83.2603 107.614 82.7403 107.492 82.2203 107.982C81.5702 108.472 81.3102 109.208 80.7901 109.821L78.1899 112.64C77.5399 113.253 76.7598 114.356 75.4597 115.337L71.2994 118.892C71.0394 119.137 70.7793 119.259 70.6493 119.382L68.5692 120.853C68.0491 121.221 67.6591 121.466 67.139 121.711C66.879 121.956 66.749 121.956 66.489 122.201C66.229 122.324 65.969 122.446 65.7089 122.569C61.5486 125.266 57.3883 126.859 52.5779 128.453L51.1478 128.821C49.3276 129.311 47.2474 129.801 45.2973 129.924C39.7068 130.414 35.8065 130.414 30.0861 129.188L24.1056 127.472L20.9853 126.124C20.2053 125.633 19.4252 125.388 18.7751 125.021C17.6051 124.285 16.3049 123.55 15.2649 122.569L13.9648 121.588C12.5346 120.24 11.2345 119.014 9.80443 117.421C9.54441 117.175 9.54441 117.053 9.28439 116.808L7.72426 114.724C7.46424 114.479 7.46424 114.356 7.20422 113.988L5.90412 111.782C3.1739 106.634 1.35375 100.259 1.48376 94.3755C1.48376 87.6336 2.78386 82.6078 4.73402 76.6014C4.99405 75.9885 5.12406 75.6208 5.38408 75.0079L6.03413 73.4143C6.42416 72.3111 6.9442 71.3305 7.46425 70.3498C8.24431 68.8789 9.02437 67.5305 10.0645 66.1821L11.1045 64.8337C11.2345 64.5886 11.3646 64.3434 11.4946 64.2208L15.9149 58.7047C16.1749 58.4596 16.1749 58.4596 16.305 58.337C16.695 57.8467 17.085 57.6015 17.475 57.1112C17.8651 56.7435 18.2551 56.2531 18.7752 55.8854L22.5455 52.5757C26.1858 49.6338 31.9062 50.1241 32.8163 55.2725C33.0763 57.3564 33.2063 58.8273 33.2063 60.7886C33.2063 62.137 33.0763 63.4854 33.0763 64.8337C33.0763 67.6531 33.0763 70.2273 32.9463 73.0466L33.2063 87.6336C33.2063 88.0014 33.3363 88.2465 33.3363 88.7368C33.5963 90.8207 33.9864 92.6594 35.0265 94.4981C35.5465 95.2336 35.8065 95.6013 36.4566 96.2142C37.6267 97.44 39.1868 98.5432 40.8769 99.0336C42.9571 99.6465 45.0373 99.5239 47.3775 99.1561C50.8877 98.6658 53.2279 97.3174 55.3081 95.3562C55.6981 94.9884 56.0882 94.6207 56.4782 94.2529L57.9083 92.782C58.5584 91.9239 59.0784 90.9433 59.5984 89.9626C61.4186 86.653 61.2886 82.7304 61.4186 79.053C61.5486 76.6014 61.6786 74.2724 61.6786 71.6982L62.1986 42.4016C62.3287 41.7887 62.3287 41.0532 62.3287 40.5629C62.3287 39.8274 62.3287 39.3371 62.3287 38.7242L62.5887 20.2146C62.7187 18.2533 63.1087 15.5566 63.8888 13.5953C64.0188 13.3501 64.1488 13.2276 64.1488 12.9824C64.2788 12.6147 64.4088 12.4921 64.5388 12.2469L65.4489 10.5308C65.969 9.55017 66.619 8.56953 67.3991 7.71147C67.5291 7.58889 67.5291 7.58889 67.6591 7.46631L70.3893 5.01471C71.2994 4.27923 72.2095 3.78891 73.2495 3.17601C78.32 0.724408 85.6005 0.234089 89.8909 4.27923C90.5409 4.89213 91.841 6.36309 92.2311 7.09857L97.4315 6.36309C97.9515 6.24051 98.6016 6.24051 98.6016 6.73083C98.8616 8.32437 96.9114 8.44695 95.2213 8.69211C94.8313 8.69211 94.4412 8.81469 94.0512 8.93727C92.4911 9.05985 89.1108 9.05985 88.3308 10.5308C88.0707 10.8985 87.8107 11.2663 87.8107 11.7566C87.6807 13.2276 88.8508 14.0856 90.4109 13.8405C91.451 13.7179 94.1812 13.3501 95.0913 13.105C95.4813 12.9824 95.6113 12.8598 96.1314 12.8598C96.5214 12.8598 97.8215 12.7372 97.9515 13.2276C97.9515 13.963 97.6915 14.5759 97.0415 14.8211C95.6113 15.434 93.2711 15.0663 92.1011 16.0469C91.061 16.905 91.061 19.1114 92.4911 19.7243C93.4012 19.9695 94.5713 19.6017 94.9613 19.4791C95.3513 19.4791 95.4813 19.4791 95.7413 19.4791C97.1715 19.4791 97.0415 20.9501 96.0014 21.3178C93.4012 22.4211 87.8107 22.0533 85.3405 23.1565C83.9104 23.892 82.8703 26.221 84.8205 27.2017C85.3405 27.4468 85.7305 27.4468 86.6406 27.3243L101.982 25.1178C102.372 24.9952 102.502 25.1178 102.762 25.2404C102.892 26.0985 103.022 26.5888 101.982 26.9565C101.462 27.2017 100.682 27.3243 100.162 27.3243C99.2516 27.3243 98.0815 27.5694 97.1715 27.692C95.8714 27.9372 94.1812 27.692 92.4911 28.6726C90.5409 29.7759 90.4109 32.8404 93.1411 32.7178C94.3112 32.7178 95.6113 32.3501 96.3914 32.7178C96.5214 33.2081 96.5214 33.5759 96.2614 34.0662C95.0913 35.4145 90.931 34.3113 89.1108 35.9049C88.0707 37.0081 88.0707 38.9694 89.6309 39.5823C90.2809 39.8274 93.6612 39.4597 94.5713 39.2145C95.6113 38.8468 99.6417 38.3565 100.942 38.2339C101.852 38.1113 101.462 39.7048 100.942 39.95C100.682 40.1952 97.6915 40.8081 97.1715 40.8081C95.6113 40.8081 92.3611 41.421 90.6709 41.6661C89.8909 41.7887 88.8508 42.1565 88.3307 42.5242C86.5106 43.8726 87.2907 46.6919 90.5409 46.2016C92.1011 45.9564 93.4012 45.7113 95.0913 45.4661C95.7413 45.3435 95.8714 45.3435 96.5214 45.3435C98.0815 45.221 98.0815 47.6725 94.8313 47.55C93.2711 47.55 91.581 48.1629 91.061 49.6338C90.4109 50.8596 91.321 52.3306 92.8811 52.208C94.1812 52.208 95.0913 51.7177 96.1314 52.0854C96.5214 54.0467 95.6113 53.9241 93.5312 54.1693C91.711 54.4145 86.2506 55.1499 84.9505 55.6402C84.3004 56.008 84.1704 56.1306 83.7804 56.6209C82.6103 58.2144 83.9104 60.0531 85.9906 59.808L101.332 57.6015C102.502 57.3564 102.762 58.0918 102.242 58.9499C101.852 59.6854 100.162 59.6854 99.3816 59.808C98.7316 59.9305 97.3015 60.1757 96.5214 60.1757C95.8714 60.1757 94.5713 60.2983 93.6612 60.5434C92.2311 61.0338 90.4109 61.6467 90.6709 63.4854C91.321 67.1628 95.8714 63.6079 96.1314 65.5692C96.2614 65.937 96.0014 66.4273 95.7413 66.5499C95.0913 67.1628 93.6612 67.2853 92.8811 67.2853C91.451 67.2853 87.5507 67.8982 87.9407 70.1047C88.2007 71.3305 88.7208 72.3111 90.2809 72.066C93.4012 71.6982 96.5214 71.0853 99.7717 70.7176C101.592 70.3498 101.332 71.8208 100.552 72.3111C99.7717 72.8014 96.2614 73.2918 95.0913 73.4143C93.4012 73.6595 91.321 73.5369 90.5409 75.0079C89.8909 76.2337 90.1509 77.9498 91.841 78.195C93.2711 78.3175 96.3914 77.7046 97.9515 77.4595C98.8616 77.3369 100.162 76.8466 100.292 77.8272C100.552 78.5627 99.9017 79.053 99.1216 79.1756C98.4716 79.2982 98.4716 79.4208 97.8215 79.5433C96.9114 79.6659 96.0014 79.6659 95.2213 80.0337C94.4412 80.4014 94.3112 80.6466 94.1812 81.0143C93.9212 81.2595 94.0512 81.1369 93.9212 81.382C93.4012 82.853 94.0512 84.2014 95.7413 84.2014C96.9114 84.2014 98.0815 83.5885 99.1216 84.0788C99.2516 84.5691 99.2516 85.0594 98.8616 85.4272C98.0815 86.1627 96.0014 86.2852 94.9613 86.5304C92.7511 86.7756 88.2007 87.0207 87.0306 88.1239C86.6406 88.2465 86.5106 88.4917 86.3806 88.8594C86.1206 89.3497 86.1206 90.453 86.5106 90.9433C86.6406 91.0659 86.9006 91.311 87.0306 91.4336C87.4207 91.6788 88.0707 91.8013 88.4608 91.8013C90.0209 91.6788 92.6211 91.1884 94.3112 90.9433C94.8313 90.8207 95.2213 90.6981 96.0014 90.5755C97.4315 90.3304 104.452 89.1046 105.102 89.5949C105.622 89.9626 105.102 91.0659 104.582 91.311C103.932 91.6788 97.4315 92.5368 96.2614 92.6594C95.0913 92.9046 94.8313 92.9046 94.1812 93.5175C93.6612 94.0078 93.4012 94.9884 93.5312 95.7239C94.0512 98.5432 98.7316 95.9691 98.8616 97.1949C99.2516 99.1561 97.0414 98.911 95.8714 99.1561C95.6113 99.1561 95.2213 99.2787 94.9613 99.2787C94.5712 99.2787 94.5712 99.1561 94.1812 99.2787L92.8811 99.6465C90.0209 100.75 90.2809 104.059 93.0111 104.059C93.9212 104.059 100.552 102.956 102.242 102.711C103.152 102.588 103.282 102.466 103.802 102.711L103.932 102.956Z" fill="white" fill-opacity="0.2"/>
<path fill-rule="evenodd" clip-rule="evenodd" d="M74.2864 69.6142C74.6764 69.8594 74.8064 70.1045 74.9364 70.7174C76.3666 74.2722 75.9765 81.3819 75.0664 85.0593L73.8964 88.7367L72.4662 92.2915L70.126 96.2141C69.996 96.3366 69.866 96.4592 69.736 96.7044C69.086 97.9302 67.3958 99.7689 66.3557 100.75C65.5757 101.73 63.3655 103.569 62.3254 104.304C59.7252 106.143 57.385 107.614 54.3948 108.84C49.9744 110.679 45.4241 111.782 40.4837 111.414C39.7036 111.414 38.9235 111.291 38.1435 111.169C35.6733 110.801 34.3732 110.433 32.293 109.575C30.4729 108.84 27.6126 107.246 26.4425 106.143L23.5823 103.324C22.8022 102.588 22.2822 101.73 21.6322 100.872C18.9019 96.9495 17.7318 91.4334 18.1219 86.6528L18.5119 84.0786C18.7719 82.3625 19.292 80.6464 19.812 79.0529C20.4621 77.3367 21.1121 77.0916 21.2421 78.44C21.5021 79.5432 21.2421 83.098 21.2421 84.4464C21.2421 84.9367 21.2421 85.427 21.3721 86.0399C21.3721 87.8786 21.3721 89.9625 22.0222 91.9238C22.0222 92.2915 22.0222 92.6592 22.1522 93.027C23.5823 97.3173 24.7524 99.8915 28.2627 103.079C28.3927 103.324 28.3927 103.324 28.6527 103.446C29.4328 103.937 30.2128 104.795 31.2529 105.285C35.2833 107.614 40.4837 108.595 45.4241 107.859C50.3645 107.246 53.3547 106.266 57.385 104.059C59.3352 102.956 62.0654 100.995 63.6255 99.5237C63.7555 99.2786 64.0156 99.156 64.1456 98.9108L65.1857 97.9302C65.4457 97.685 65.4457 97.685 65.7057 97.3173L68.0459 94.4979C70.126 91.1883 69.606 91.8012 71.4262 88.0012C71.8162 87.0206 72.0762 85.9173 72.3362 85.0593L72.8563 82.8528C73.5063 79.298 73.6363 76.3561 73.6363 72.8013C73.6363 71.5755 73.5063 70.2271 74.2864 69.6142ZM76.8866 72.8013C76.6266 71.0852 76.1065 68.0207 73.8964 68.2658C73.6363 68.3884 73.5063 68.511 73.2463 68.6336C71.9462 69.7368 72.2062 72.4335 72.2062 74.1497C72.0762 76.4787 71.9462 81.627 71.1661 84.0786C71.0361 84.569 70.9061 85.0593 70.7761 85.5496L68.0459 91.6786C67.9159 91.9238 67.9159 92.0463 67.6559 92.2915C67.5258 92.5367 67.5258 92.6592 67.3958 92.9044L64.1456 96.9495C63.8855 97.3173 63.4955 97.685 63.2355 98.0528C62.9755 98.2979 62.8455 98.2979 62.5854 98.5431C62.4554 98.7882 62.3254 98.7882 62.0654 99.0334L59.7252 100.995C58.4251 101.975 56.995 102.711 55.5649 103.446C51.0145 106.02 44.774 107.124 39.5736 106.633C37.6234 106.388 35.1532 105.775 33.4631 104.917C32.163 104.304 31.643 103.937 30.3429 103.079C30.0828 102.956 30.2128 102.956 29.9528 102.711C29.5628 102.343 29.3028 102.343 28.6527 101.608C26.5726 99.5237 24.8824 96.9495 23.9723 94.1302C23.8423 93.6399 23.7123 93.1496 23.5823 92.6592C23.3223 92.1689 22.8022 88.7367 22.8022 88.2464L22.8022 81.1367C22.8022 80.0335 22.9323 77.8271 22.0222 76.8464C21.5021 76.2335 21.1121 76.2335 20.4621 76.3561C19.0319 76.6013 18.6419 78.1948 18.3819 79.298C18.1219 79.9109 17.8619 80.4012 17.7318 81.1367C17.6018 81.5045 17.6018 81.627 17.4718 82.1174C16.1717 87.5109 16.3017 93.027 18.6419 98.2979C20.202 101.608 22.5422 104.672 25.4025 107.001C25.5325 107.124 25.6625 107.246 25.7925 107.369L27.0926 108.349C29.1728 109.82 32.683 111.414 35.1532 111.904C35.5433 112.027 35.9333 112.149 36.3233 112.272C36.7134 112.395 37.1034 112.395 37.4934 112.395C38.4035 112.64 39.0536 112.64 40.0936 112.762C45.164 113.13 50.3645 112.027 55.0448 110.066C59.2052 108.349 63.4955 105.53 66.7458 102.343L69.476 99.4011C69.736 99.0334 69.996 98.6657 70.3861 98.2979C71.9462 96.2141 73.2463 93.885 74.2864 91.556C76.8866 85.9173 77.9267 78.9303 76.8866 72.8013Z" fill="white" fill-opacity="0.2"/>
<path fill-rule="evenodd" clip-rule="evenodd" d="M111.2 56.4977L119.911 55.2719C120.301 55.1494 120.431 55.5171 120.561 55.8848C120.821 56.8655 119.391 57.3558 118.22 57.4784C116.14 57.8461 113.15 58.3364 111.2 58.459C109.51 58.5816 110.29 56.6203 111.2 56.4977ZM118.87 53.9236C117.31 54.1687 111.59 54.9042 110.42 55.3945C110.16 55.3945 110.03 55.5171 109.9 55.6397C108.21 57.1106 108.21 60.2977 112.24 59.8074L118.61 58.8268C119.521 58.7042 120.431 58.3364 120.951 57.9687C122.251 56.8655 122.251 55.2719 121.211 54.2913C120.691 53.801 119.781 53.801 118.87 53.9236Z" fill="white" fill-opacity="0.2"/>
<path fill-rule="evenodd" clip-rule="evenodd" d="M114.066 88.0145L122.517 86.7887C123.167 86.6662 123.557 87.2791 123.167 87.892C123.037 88.5049 122.647 88.75 121.997 88.8726L114.326 89.9758C113.546 90.0984 113.026 89.9758 113.026 89.2403C113.026 88.75 113.416 88.1371 114.066 88.0145ZM124.727 87.2791C124.467 86.0533 123.557 85.1952 122.387 85.4404L113.676 86.6662C113.156 86.7887 112.506 87.2791 112.116 87.6468C111.986 87.892 111.856 88.1371 111.726 88.3823C111.466 89.3629 111.596 90.3436 112.376 90.9565C112.766 91.2016 112.766 91.2016 113.286 91.3242C114.457 91.4468 120.567 90.4661 122.257 90.221C123.817 89.9758 124.857 88.3823 124.727 87.2791Z" fill="white" fill-opacity="0.2"/>
<path fill-rule="evenodd" clip-rule="evenodd" d="M105.227 69.9907C105.618 69.8681 105.748 69.9907 106.008 70.1132C106.268 71.5842 105.487 71.8294 104.447 71.7068C104.317 71.339 104.317 71.5842 104.317 71.2165C104.317 70.9713 104.317 70.8487 104.447 70.6036C104.577 70.2358 104.837 69.9907 105.227 69.9907ZM107.438 70.2358C107.178 68.152 104.577 68.2745 103.537 69.5003C102.107 71.0939 103.277 73.3003 104.967 73.0552C106.138 72.9326 107.048 72.5648 107.438 71.339C107.568 70.9713 107.568 70.6036 107.438 70.2358Z" fill="white" fill-opacity="0.2"/>
<path fill-rule="evenodd" clip-rule="evenodd" d="M101.714 44.4844L102.364 44.4844C102.884 45.5876 102.364 46.0779 101.064 46.3231C100.804 45.7102 100.934 45.8328 100.804 45.0973C101.064 44.8521 101.324 44.4844 101.714 44.4844ZM104.054 44.9747C103.534 42.1554 100.154 42.8909 99.5039 44.7296C98.9839 46.2005 100.414 48.6521 102.884 47.1812C103.664 46.5683 104.184 45.5876 104.054 44.9747Z" fill="white" fill-opacity="0.2"/>
<path fill-rule="evenodd" clip-rule="evenodd" d="M117.323 74.6376L117.843 74.515C118.493 75.4956 118.103 76.4763 116.543 76.3537C116.023 75.3731 116.803 74.7602 117.323 74.6376ZM119.533 75.0053C119.013 71.9408 114.463 73.2892 114.983 76.2311C115.243 77.8247 117.063 78.0698 118.363 77.4569C118.493 77.3343 118.623 77.2118 118.753 77.0892C119.273 76.5989 119.663 75.8634 119.533 75.0053Z" fill="white" fill-opacity="0.2"/>
<path fill-rule="evenodd" clip-rule="evenodd" d="M113.55 49.1469C113.81 49.1469 114.07 49.2695 114.33 49.3921L114.46 50.1276C113.81 50.7405 113.68 51.2308 112.64 50.863C112.51 50.1276 112.51 49.3921 113.55 49.1469ZM115.76 49.7598C115.63 49.1469 115.5 48.534 114.85 48.1663C113.68 47.4308 110.82 48.0437 111.21 50.9856C111.34 51.4759 111.73 51.8437 111.99 52.0888C113.81 52.9469 116.02 51.3534 115.76 49.7598Z" fill="white" fill-opacity="0.2"/>
</svg>
