<svg className="fill-current text-blue-500" width="103" height="158" viewBox="0 0 103 158" fill="none" xmlns="http://www.w3.org/2000/svg">
<path d="M76.4179 144.025C75.3778 145.618 74.4677 144.883 72.7776 144.76C72.2576 144.76 71.8675 144.76 71.3475 144.883C71.4775 144.638 71.4775 144.27 71.6075 144.147C72.7776 139.98 74.3377 136.057 75.3778 132.012C76.2879 128.58 76.9379 125.27 77.848 121.838C78.368 122.696 78.8881 123.554 79.5381 124.289C79.0181 125.025 79.0181 125.76 78.8881 126.741C78.6281 129.805 78.108 132.87 77.718 135.934C77.328 138.263 77.588 141.941 76.4179 144.025ZM81.4883 121.225C78.7581 117.18 76.0279 113.134 72.5176 109.335C68.3572 104.799 63.1568 100.386 57.5664 97.3217C48.0756 91.9281 37.5448 92.1733 27.1439 93.5217C27.404 93.2765 27.664 93.1539 27.794 92.9088C30.3942 90.8249 33.1244 88.8636 36.1147 87.1475C42.4852 83.3475 48.4656 79.1798 55.0962 75.7476C61.5967 72.4379 68.2272 68.3928 75.3778 66.3089C80.8382 64.838 86.1687 63.9799 91.7591 63.2444C90.9791 68.2702 90.199 73.1734 89.4189 78.1992C87.9888 86.0443 86.5587 93.8894 85.1286 101.735C84.4785 105.78 83.8285 109.702 82.9184 113.747C82.3984 116.076 82.1383 118.773 81.4883 121.225ZM92.1492 60.6702C89.4189 61.1606 86.6887 61.4057 83.9585 62.0186C80.8382 62.6315 77.718 63.367 74.5977 64.1025C67.8372 65.5734 61.5967 69.0057 55.6162 72.1928C48.5957 75.9927 42.0951 80.4056 35.5946 84.8185C33.2544 86.5346 30.7842 88.1282 28.5741 90.0894C27.2739 91.3152 25.9738 92.541 24.6737 93.7668C23.6337 93.8894 22.5936 94.1346 21.6835 94.2572C23.6337 91.9281 25.3238 89.4765 27.1439 86.9024C33.9045 79.1798 40.535 71.2121 47.0355 63.2444C47.9456 62.2638 48.8557 61.2831 49.7658 60.3025C49.8958 60.0573 49.8958 59.9348 49.8958 59.8122C51.7159 57.4832 53.5361 55.2767 55.3562 53.0703C64.977 41.18 74.9878 29.4123 85.3886 18.135C87.8588 15.4382 89.939 12.6189 92.4092 9.92211C93.7093 8.57373 95.1394 7.10277 96.6995 5.87697C98.1296 4.77375 98.5197 3.91569 98.5197 5.99955C98.1296 14.0898 96.8295 22.0575 96.0495 30.0252C94.8794 40.322 93.5793 50.4961 92.1492 60.6702ZM11.2827 103.328C13.2328 101.857 15.963 100.141 17.6532 98.1797C18.4332 98.0571 19.3433 97.9346 20.1234 97.812C18.5633 99.0378 17.0031 100.386 15.573 101.735C12.8428 104.309 10.3726 107.005 7.90239 109.702C6.21226 108.599 5.56221 107.864 7.64238 106.025C8.81247 105.044 10.1126 104.309 11.2827 103.328ZM3.87207 118.038C4.52212 116.689 6.21226 115.341 7.38235 114.238C10.6326 111.051 13.2328 107.496 16.3531 104.186C18.0432 102.593 19.7333 100.999 21.4235 99.5281C22.2035 98.7926 22.7236 98.0571 23.3736 97.3217C26.1039 96.9539 28.8341 96.5862 31.5643 96.341C28.5741 99.1604 25.8438 102.347 23.1136 105.412C19.9934 108.844 16.6131 111.909 13.6229 115.463C11.9327 117.425 9.85255 119.631 11.4127 122.083C11.5427 122.205 11.6727 122.328 11.8027 122.573C11.0226 123.431 9.98256 125.76 9.20249 125.883C9.72254 125.76 7.25234 123.309 6.86231 122.941C6.08225 122.083 5.04216 121.347 4.2621 120.367C3.09201 119.018 3.09201 119.386 3.87207 118.038ZM21.4235 111.541C24.0237 108.967 26.3639 106.025 28.5741 103.328C29.8742 101.857 31.0442 100.386 32.3444 98.9152C32.3444 98.7926 33.5144 97.3217 34.2945 96.2184C37.5448 96.0959 40.795 96.0959 44.0453 96.4636C40.275 101.735 35.9846 106.638 32.4744 111.909C30.2642 115.218 28.444 118.651 26.1039 121.838C25.1938 123.063 23.7637 125.27 22.4636 126.373C21.6835 126.986 22.3336 126.986 21.1635 126.128C19.3433 124.78 15.833 123.309 14.5329 121.347C12.7128 118.651 19.6033 113.38 21.4235 111.541ZM18.8233 129.438C18.9533 128.947 19.2133 128.58 19.2133 128.089C20.7734 129.07 22.0735 129.805 23.6337 128.334C26.7539 125.515 28.9641 121.47 31.0442 118.038C33.9045 113.625 37.1547 109.58 40.405 105.412C40.145 105.902 39.885 106.393 39.6249 106.76C37.4148 110.928 35.9846 115.586 33.9045 119.999C32.8644 122.205 31.5643 124.412 30.3942 126.618C29.7441 127.722 28.314 129.315 28.314 130.541C28.314 131.276 28.5741 131.644 28.9641 131.889L28.8341 132.012C27.924 133.483 27.2739 135.076 26.6239 136.547C25.8438 138.386 25.7138 139.734 23.3736 138.631C21.6835 137.65 20.1234 136.547 18.4332 135.321C17.9132 134.954 15.963 134.218 15.703 133.728C15.573 133.238 18.4332 130.173 18.8233 129.438ZM38.0648 117.302C39.755 113.38 41.3151 109.58 43.3952 105.902C44.1753 104.309 44.9554 102.715 45.6054 101.122C46.1255 99.8958 46.3855 98.3023 47.0355 97.0765C49.5057 97.5668 51.9759 98.3023 54.3161 99.4055C53.146 101.122 52.366 103.328 51.7159 104.799C49.8958 108.844 47.8156 112.767 45.8654 116.689C44.1753 120.489 42.3552 124.167 40.665 127.967C40.145 129.315 39.4949 130.786 38.8449 132.134C38.1948 133.728 37.9348 134.218 36.3747 132.992C35.2046 132.257 34.1645 131.521 32.9944 130.909C33.7745 131.276 31.3043 130.051 31.0442 130.418C31.1743 129.928 32.2143 128.702 32.3444 128.334C34.4245 124.78 36.3747 121.102 38.0648 117.302ZM44.6953 125.392C46.7755 120.734 48.8557 116.076 51.3259 111.541C52.496 109.089 53.7961 106.638 54.9662 104.186C55.3562 103.451 55.8762 101.857 56.5263 100.631C58.6065 101.857 60.6866 103.205 62.5068 104.676C56.7863 110.683 53.146 118.405 48.0756 124.902C46.9055 126.496 45.6054 127.967 44.3053 129.56C43.6553 130.418 42.6152 131.399 42.4852 132.625C42.3552 134.463 44.1753 135.321 45.8654 136.302C44.4353 138.631 43.1352 141.083 42.2251 143.657C41.9651 144.147 41.9651 144.76 41.7051 145.25C41.0551 146.721 41.5751 146.109 40.665 145.863C39.885 145.618 38.7149 144.515 37.9348 144.025C37.6748 143.779 34.9446 142.554 34.5545 142.063C34.8145 142.309 35.5946 140.225 35.7246 139.98C36.2447 138.876 37.0247 137.65 37.0247 136.425C37.9348 136.915 38.9749 136.792 40.015 135.444C42.2251 132.747 43.2652 128.58 44.6953 125.392ZM47.9456 134.586C47.4256 134.218 45.4754 133.238 45.3454 132.87C45.0854 132.012 47.9456 129.683 48.5957 128.947C50.4158 126.741 52.236 124.412 53.9261 121.96C56.0063 118.896 57.8264 115.831 59.7766 112.767C60.1666 112.154 63.1568 107.128 63.6769 105.657C65.497 107.128 67.1872 108.599 68.7473 110.193C65.367 116.322 61.4667 121.96 58.3464 128.212C56.9163 131.154 55.4862 134.218 53.7961 137.16C52.756 138.999 52.496 138.509 50.9358 137.16C49.8958 136.302 48.9857 135.321 47.9456 134.586ZM50.6758 145.005C51.3259 143.902 51.7159 142.431 51.7159 141.083C52.496 141.45 53.146 141.573 53.7961 141.205C56.2663 140.347 57.3064 135.567 58.3464 133.605C60.8166 128.334 63.8069 123.431 66.7971 118.528C64.4569 124.289 62.2468 130.051 60.1666 135.934C58.8665 139.244 57.3064 143.044 57.0463 146.599C56.7863 148.438 57.8264 148.928 59.5165 149.173C58.7365 150.767 58.3464 152.483 58.0864 154.076C58.0864 154.199 58.0864 154.689 57.9564 155.057C57.8264 154.812 57.4364 154.567 57.3064 154.444C55.8762 153.586 54.3161 152.973 52.756 152.238C51.9759 151.87 48.3356 150.644 48.0756 150.031C47.8156 148.805 50.2858 145.986 50.6758 145.005ZM62.5068 147.212C62.1167 146.721 61.4667 146.476 60.9466 146.844C60.8166 146.844 60.8166 146.844 60.6866 146.844C59.7766 146.476 60.0366 147.212 59.7766 146.354C59.7766 145.986 60.1666 144.883 60.2966 144.392C60.6866 143.044 61.0767 141.573 61.4667 140.225C62.5068 137.16 63.5469 134.096 64.717 131.031C67.1872 124.902 68.4873 118.405 70.5674 112.154C72.6476 114.36 74.3377 116.689 76.0279 119.018C74.0777 126.005 72.9076 133.238 70.3074 139.98C69.2673 142.431 69.0073 145.863 67.5772 148.07C66.9271 149.173 67.7072 148.928 66.2771 148.56C65.497 148.315 64.847 147.825 64.1969 147.579C63.5469 147.457 63.0268 147.334 62.5068 147.212ZM79.5381 141.573C80.1882 138.141 80.7082 134.586 81.2283 131.154C81.4883 129.805 81.8783 128.212 81.8783 126.618C82.5284 126.741 83.3084 126.496 83.5685 125.883C85.1286 121.96 85.5186 117.302 86.2987 113.134C87.3388 108.354 87.8588 103.573 88.8989 98.7926C90.719 89.2314 92.2792 79.6701 93.8393 70.1089C96.6995 52.8251 99.1697 35.4188 101.25 18.135C101.9 13.8447 102.42 9.55438 102.42 5.26408C102.55 3.05764 101.77 0.728615 99.1697 0.483455C96.3095 0.115715 93.5793 3.18021 91.7591 4.89633C89.0289 7.47051 86.9487 10.4124 84.4785 13.3544C73.8177 26.2253 62.8968 38.9736 52.496 52.0896C48.8557 56.8703 45.0854 61.6509 41.3151 66.5541C40.795 67.0444 40.275 67.5347 39.6249 68.025C36.8947 70.5992 34.5545 73.4186 31.9543 76.2379C26.3639 82.3669 22.0735 89.5991 16.0931 95.3604C15.573 95.8507 15.573 96.4636 15.703 96.9539C14.4029 97.6894 13.3628 98.7926 12.1927 99.6507C9.85255 101.612 6.86231 103.205 4.65213 105.289C2.44195 107.373 3.61205 110.438 6.08225 111.664C5.56221 112.154 5.04216 112.767 4.52212 113.257C2.70198 114.973 -1.06833 117.793 0.751819 120.489C1.7919 122.083 3.61205 123.431 4.91215 124.902C6.08225 126.005 7.25234 127.844 8.94248 128.457C9.59252 128.702 9.98256 128.58 10.5026 128.212C11.9327 127.231 12.4528 125.515 13.6229 124.289C14.7929 125.27 16.2231 126.005 17.3932 126.863C16.4831 127.476 15.963 128.457 15.183 129.315C14.2729 130.541 13.1028 131.767 12.9728 133.238C12.8428 134.096 13.2328 134.831 14.0129 135.444C15.443 136.425 17.2631 137.16 18.6933 138.141C20.5134 139.367 24.1537 142.309 26.4939 141.328C27.794 140.715 28.184 138.754 28.8341 137.65C29.4841 136.302 30.1342 134.341 31.1743 133.115C32.6044 133.728 33.9045 134.341 35.2046 135.321C35.4646 135.444 35.5946 135.567 35.8546 135.812C35.5946 136.792 34.1645 138.018 33.6445 138.876C33.1244 139.857 31.9543 141.205 31.8243 142.186C31.8243 143.167 32.4744 143.657 33.2544 144.147C34.8145 145.005 36.3747 145.863 37.9348 146.844C39.6249 147.947 41.9651 149.418 43.2652 147.212C44.1753 145.863 44.4353 144.147 45.2154 142.676C46.1255 141.083 46.9055 139.489 47.9456 137.773C48.4656 138.509 49.2457 139.244 50.1558 139.98C49.3757 141.573 48.7257 143.289 47.9456 144.883C47.1655 146.354 45.8654 147.947 45.8654 149.663C45.7354 152.36 50.0258 153.463 52.1059 154.567C53.7961 155.425 57.9564 158.857 60.0366 156.896C60.6866 156.283 60.5566 155.179 60.8166 154.321C61.2067 152.85 61.7267 151.257 62.2468 149.786C63.5469 150.399 64.847 151.012 66.2771 151.625C67.0571 151.87 67.5772 152.115 68.3572 151.87C70.0474 151.134 70.6974 148.56 71.0875 146.476C73.0376 147.212 75.6378 148.438 77.458 147.212C79.2781 146.109 79.2781 143.289 79.5381 141.573Z" fill="white" fill-opacity="0.2"/>
</svg>
