<svg className="fill-current text-blue-500" width="87" height="175" viewBox="0 0 87 175" fill="none" xmlns="http://www.w3.org/2000/svg">
<path d="M8.87091 72.7741C10.171 66.8902 11.2111 61.0064 12.5112 55.1226C15.5014 42.9871 17.8416 30.7291 22.392 18.9615C24.2121 14.1808 25.9023 8.17443 31.3627 5.96799C37.0832 3.76155 43.8437 3.39381 49.6942 4.49703C56.0647 5.72283 61.9152 7.68411 67.8956 9.89055C73.0961 11.8518 79.3366 15.1615 81.8068 20.1873C84.927 26.4388 83.3669 33.1807 82.7168 39.8001C82.0668 45.4387 81.2867 51.2 80.3766 56.8387C78.6865 68.3612 76.4763 79.8837 74.2661 91.2837C73.0961 97.5352 71.1459 103.664 69.5858 109.793C68.2857 114.819 66.4655 119.232 63.3453 123.277C61.9152 119.109 56.7147 116.045 53.0744 114.206C47.224 111.264 40.3334 109.793 33.7029 108.813C28.2425 107.955 22.002 109.548 16.8015 111.142C14.4614 111.877 11.6011 112.98 9.78098 114.574C9.00092 115.309 8.48088 116.167 7.96083 117.025C6.66073 114.451 5.49063 111.755 5.1006 108.69C4.19053 102.561 4.71058 95.9417 5.49064 89.8127C6.2707 84.0514 7.70081 78.4128 8.87091 72.7741ZM56.9748 126.096C54.1145 126.709 51.3843 127.077 48.5241 127.077C42.8036 126.954 38.7733 124.625 33.8329 122.296C29.2825 120.213 24.2121 118.251 19.0117 117.761C15.5014 117.516 12.9012 117.761 10.171 118.742C10.8211 117.761 11.4711 116.78 12.6412 116.045C14.4614 114.942 16.6715 114.206 18.8817 113.471C23.8221 111.877 29.4125 110.651 34.613 111.632C40.4634 112.735 46.1839 113.593 51.5143 116.167C54.1145 117.393 56.7147 118.619 58.7949 120.58C60.095 121.806 61.0051 123.4 62.1752 124.625C62.0452 124.871 61.9152 124.993 61.7851 125.116C60.225 125.606 58.0148 125.851 56.9748 126.096ZM49.0441 140.683C48.004 143.258 47.744 146.077 47.224 148.896C46.964 150.612 46.5739 152.329 46.4439 154.045C46.3139 155.148 46.4439 156.251 46.3139 157.354C42.2836 154.658 37.3432 153.064 32.6628 151.838C26.8123 150.367 20.7019 149.387 14.5914 149.754C13.1612 149.877 11.7311 149.999 10.301 150.367C10.431 149.141 10.8211 147.793 10.9511 146.69C11.3411 143.993 11.9912 141.296 12.1212 138.477C12.3812 133.574 13.2913 128.548 11.2111 123.767C10.8211 122.909 10.431 122.051 10.041 121.193C11.7311 120.58 13.5513 119.967 15.5014 119.845C18.6217 119.722 21.8719 120.09 24.8622 120.825C27.9824 121.683 30.9727 123.032 33.8329 124.258C36.3031 125.238 38.3833 126.832 40.8535 127.813C45.4038 129.529 50.4742 129.283 55.1546 128.425C56.0647 128.303 57.6248 128.058 59.1849 127.69C55.0246 131.612 50.9943 135.167 49.0441 140.683ZM45.7939 169.612C43.3237 171.328 40.5934 171.696 37.7332 172.064C32.7928 172.554 27.7224 172.309 22.782 171.451C22.132 171.328 21.6119 171.206 20.9619 171.083C15.5014 169.735 9.26093 168.386 5.62064 164.096C3.9305 162.257 3.41046 159.683 4.19053 157.354C4.97059 155.393 7.05076 154.045 9.13092 153.309C9.26093 153.187 9.52096 153.187 9.65096 153.064C10.171 152.941 10.561 152.819 11.0811 152.574C16.9316 150.98 23.8221 152.083 29.8026 153.187C35.7831 154.412 42.9336 156.128 47.094 160.664C49.9542 163.851 49.1741 167.161 45.7939 169.612ZM1.20029 96.9223C0.940273 103.787 0.81026 110.529 3.8005 116.903C4.97059 119.6 6.53072 122.174 7.83082 124.871C9.39095 128.303 9.13092 131.98 8.87091 135.535C8.61088 138.967 8.09085 142.277 7.70081 145.587C7.5708 147.425 6.92075 149.509 6.92075 151.348C4.84058 152.206 3.02043 153.554 1.85034 155.27C-0.229827 158.703 0.550233 162.87 3.02043 165.812C6.79073 170.225 12.7712 171.696 18.3617 172.922C21.0919 173.535 23.5621 173.903 26.1623 174.148C29.9326 174.883 33.7029 175.128 37.4732 174.883C42.6736 174.515 47.484 173.29 50.4742 168.999C53.2045 165.322 52.0344 161.89 48.7841 159.07C48.6541 158.948 48.5241 158.948 48.3941 158.825C49.0441 156.619 49.0441 154.045 49.5642 151.716C50.3442 148.529 50.7343 145.096 52.0344 142.032C54.5046 136.025 59.965 132.103 64.3854 127.567C72.836 118.987 74.0061 106.238 76.7363 95.2062C78.1665 89.1998 78.5565 83.0708 79.7266 77.0644C80.8967 70.6902 82.1968 64.3161 83.1069 57.9419C84.1469 51.5677 84.797 45.3162 85.7071 38.942C86.4871 32.9356 87.7872 27.0517 85.8371 21.0453C82.3268 10.5034 69.0657 5.60025 58.7949 2.90349C52.8144 1.30995 46.4439 -0.283591 40.0734 0.574468C35.263 1.18737 29.5426 1.92285 25.7723 5.23251C21.7419 8.78733 20.0518 14.426 18.3617 19.084C16.1515 25.0905 14.4614 31.0969 13.0312 37.1033C9.78098 50.0968 7.31078 63.0903 4.32054 76.0837C2.89043 82.9482 1.46032 89.9353 1.20029 96.9223Z" fill="white" fill-opacity="0.2"/>
</svg>
