<svg width="50" height="50" viewBox="0 0 50 50" fill="none" xmlns="http://www.w3.org/2000/svg">
<rect x="0.5" y="0.5" width="49" height="49" rx="24.5" fill="white"/>
<rect x="0.5" y="0.5" width="49" height="49" rx="24.5" stroke="url(#paint0_linear_6757_32648)"/>
<g clip-path="url(#clip0_6757_32648)">
<path d="M35.2234 13H14.7719C13.7922 13 13 13.7734 13 14.7297V35.2656C13 36.2219 13.7922 37 14.7719 37H35.2234C36.2031 37 37 36.2219 37 35.2703V14.7297C37 13.7734 36.2031 13 35.2234 13ZM20.1203 33.4516H16.5578V21.9953H20.1203V33.4516ZM18.3391 20.4344C17.1953 20.4344 16.2719 19.5109 16.2719 18.3719C16.2719 17.2328 17.1953 16.3094 18.3391 16.3094C19.4781 16.3094 20.4016 17.2328 20.4016 18.3719C20.4016 19.5062 19.4781 20.4344 18.3391 20.4344ZM33.4516 33.4516H29.8937V27.8828C29.8937 26.5562 29.8703 24.8453 28.0422 24.8453C26.1906 24.8453 25.9094 26.2937 25.9094 27.7891V33.4516H22.3563V21.9953H25.7687V23.5609H25.8156C26.2891 22.6609 27.4516 21.7094 29.1813 21.7094C32.7859 21.7094 33.4516 24.0813 33.4516 27.1656V33.4516Z" fill="#4D4D4A"/>
</g>
<defs>
<linearGradient id="paint0_linear_6757_32648" x1="-0.950292" y1="50" x2="55.4618" y2="48.2258" gradientUnits="userSpaceOnUse">
<stop stop-color="#01C51F"/>
<stop offset="0.524798" stop-color="#01AA1B"/>
<stop offset="1" stop-color="#60FF79"/>
</linearGradient>
<clipPath id="clip0_6757_32648">
<rect width="24" height="24" fill="white" transform="translate(13 13)"/>
</clipPath>
</defs>
</svg>
