<svg width="576" height="160" viewBox="0 0 576 160" fill="none" xmlns="http://www.w3.org/2000/svg">
<path fill-rule="evenodd" clip-rule="evenodd" d="M281.937 99.149C285.429 99.149 293.306 99.4738 296.148 98.5806C298.503 97.931 300.208 96.6317 301.426 94.5205C302.969 91.922 303.293 88.4303 303.781 85.2634L304.918 79.2543C305.161 77.8739 305.324 76.4123 305.648 75.1942C306.136 72.5145 306.46 69.916 307.029 67.2363C307.597 64.5567 308.166 62.283 309.14 60.0905C310.277 57.6544 311.333 56.3552 313.119 54.7311C315.311 52.6199 319.29 51.889 322.295 52.4574C323.513 52.7011 324.65 53.4319 325.137 54.5687C325.868 56.3552 325.299 59.1973 324.893 61.2273C324.569 62.689 324.406 63.9882 324.163 65.5311C323.838 67.0739 323.594 68.4544 323.351 69.916L320.996 83.1521C320.508 85.8318 319.615 90.2979 319.615 92.9776C319.615 97.4438 323.269 99.149 327.411 99.149H337.886C342.92 99.149 346.818 96.5505 348.117 91.8408C348.523 90.2167 351.69 71.9461 352.096 69.4288C352.502 66.9115 353.071 64.5567 353.477 62.0394C354.857 53.1883 358.268 41.6575 352.34 33.7808C350.229 30.9387 347.711 29.1523 344.138 27.9342C338.779 26.229 331.146 25.9041 325.624 27.5282C321.808 28.665 319.047 30.1267 315.961 32.5628L314.093 34.268C313.769 34.5928 313.444 34.8364 313.2 35.1613C312.875 35.5673 312.713 35.8109 312.307 36.1357L315.555 18.8395C315.717 18.0275 315.799 17.2155 315.961 16.3222C316.611 12.9117 317.504 9.25759 317.26 6.09068C317.179 4.38542 316.205 3.00497 315.149 2.27415C313.931 1.29972 312.307 0.8125 310.683 0.8125H298.34C294.848 0.8125 292.006 2.35535 290.301 4.95384C288.596 7.47113 288.109 11.2065 287.621 14.4546L284.292 33.5372C283.642 37.1101 282.587 42.3883 282.1 45.7176C281.937 46.9357 281.612 48.1537 281.45 49.2905C281.288 50.5898 281.044 51.5642 280.882 52.7823L276.009 80.4724C275.603 82.5837 274.304 89.0799 274.142 90.9475C273.817 93.7896 274.304 96.4693 276.903 98.0122C278.202 98.8242 280.232 99.149 281.937 99.149Z" fill="black"/>
<path fill-rule="evenodd" clip-rule="evenodd" d="M135.449 80.2231C135.449 83.1464 135.367 84.1208 136.017 87.1253C136.261 88.587 136.829 89.6426 137.316 90.9419C138.291 93.2967 141.214 96.4636 143.488 97.6005C147.142 99.5493 145.518 98.5749 149.009 99.793C150.796 100.524 156.155 100.93 158.267 100.93C160.053 100.93 161.433 101.092 163.301 101.092C165.169 101.092 166.468 100.93 168.336 100.93C171.827 100.93 174.994 100.767 178.567 100.767C180.841 100.767 185.794 100.28 187.906 99.793C193.265 98.4125 196.594 96.5448 200.573 93.1343C201.223 92.4847 203.009 90.3734 203.578 89.6426C204.796 87.9374 206.582 84.7704 207.232 82.9028C208.206 80.1419 209.099 77.787 209.505 74.8637C209.993 71.372 211.211 65.4442 211.86 61.6277C212.104 60.0848 212.348 58.8668 212.591 57.2427C212.672 56.5119 212.835 55.8623 212.997 55.1315L214.54 46.1992C214.946 44.1691 216.326 36.4548 216.326 35.0744C216.326 32.5571 215.92 30.6894 213.728 29.2278C211.13 27.5225 203.172 28.0097 199.436 28.0097C193.996 28.0097 189.611 29.6338 187.987 34.912C187.337 36.942 185.551 48.148 185.063 50.5841L183.683 58.3796C183.196 61.1405 182.79 63.5765 182.303 66.3374C181.653 69.9103 180.922 73.6457 176.781 74.6201C174.182 75.1885 168.579 75.5945 166.712 73.5645C164.844 71.4532 165.9 68.2051 166.306 65.6878C166.468 64.7946 166.63 63.6577 166.793 62.8457L169.229 49.1224C169.391 48.148 169.554 47.336 169.716 46.2804C170.285 43.0322 171.584 37.2668 171.584 34.2623C171.584 31.9887 170.528 30.3646 168.823 29.2278C166.306 27.5225 158.348 28.0097 154.612 28.0097C150.471 28.0097 147.304 28.7406 144.868 31.6639C144.462 32.1511 144.381 32.3135 144.056 32.9631C142.594 35.6428 142.351 38.7285 141.782 41.9766L139.103 57.0803C138.94 57.7299 138.859 58.2172 138.778 58.948L137.803 64.7134C137.479 66.0126 137.397 67.1495 137.154 68.5299C136.504 71.6968 135.449 77.2186 135.449 80.2231Z" fill="black"/>
<path fill-rule="evenodd" clip-rule="evenodd" d="M245.803 75.517C245.803 76.5726 245.722 77.3846 244.423 78.1155C242.474 79.1711 238.738 78.7651 236.79 78.1967C231.917 76.735 232.811 76.6538 229.644 75.4358C225.827 74.0553 222.823 74.0553 219.493 76.4914C218.194 77.4658 217.301 78.9275 216.245 80.1455L213.241 84.0433C210.399 88.2658 210.48 92.1635 215.027 95.168C220.387 98.741 230.943 100.771 236.952 100.771C244.585 100.771 250.432 99.553 257.009 96.3049C263.749 92.8944 269.108 86.8041 271.544 79.5771C272.844 75.6794 273.574 69.1832 271.707 65.4478C271.544 65.123 271.463 64.9606 271.301 64.5546C270.489 62.6869 267.971 60.3321 266.347 59.1952C263.749 57.5712 261.15 56.5155 258.146 55.7035C257.415 55.5411 256.847 55.2975 255.953 55.1351C255.06 54.8915 254.329 54.7291 253.517 54.5667C251.65 54.1607 245.153 53.1862 245.153 51.1562C245.153 48.8013 247.671 48.3141 249.62 48.3141C257.09 48.3141 264.317 54.7291 269.839 49.8569L270.732 48.9637C271.95 47.502 271.869 47.5832 272.925 45.9592C275.036 42.7923 277.472 39.9502 277.472 35.9712C277.472 31.6675 273.656 30.3683 270.895 29.2314C269.596 28.7442 266.266 27.851 264.805 27.5262C258.633 26.2269 248.726 25.9833 242.555 27.6886C241.581 28.0134 240.687 28.0946 239.794 28.4194C237.358 29.3126 234.841 30.1246 232.567 31.5051C229.319 33.454 227.695 34.5096 224.934 37.5141C221.442 41.2494 219.087 46.69 218.519 51.8058L218.275 54.8915C218.357 57.7336 219.006 60.5757 220.468 63.0118C220.711 63.4178 220.955 63.6614 221.199 63.9862C222.498 65.6914 224.041 66.9095 225.827 68.0463C229.4 70.1576 234.516 71.538 238.495 72.4313C239.632 72.5937 245.803 73.8929 245.803 75.517Z" fill="black"/>
<path fill-rule="evenodd" clip-rule="evenodd" d="M365.736 89.8102C365.736 91.5967 366.061 93.1395 366.711 94.52C367.604 96.144 368.741 97.4433 370.202 98.3365C370.69 98.6613 371.177 98.9861 371.745 99.2297C372.882 99.6358 374.425 99.9606 375.968 99.9606H426.07C430.617 99.9606 433.703 97.9305 436.626 95.0072C439.631 92.0839 441.336 87.7802 441.336 83.4764C441.336 78.1982 437.032 72.6765 431.186 72.6765H409.586C408.124 72.6765 407.393 73.9757 406.663 74.7877C405.444 76.087 405.12 76.0058 403.577 76.8178C400.329 78.4418 397.649 79.0103 393.832 79.0103C392.046 79.0103 390.503 78.4418 389.204 77.8734C385.793 76.493 381.246 71.6208 383.357 67.1547C384.088 65.7742 384.9 64.9622 385.875 63.9066C386.93 62.8509 387.986 62.0389 389.204 61.2269C393.995 58.2224 400.897 57.1667 405.932 60.3336C406.906 60.9021 407.393 61.3893 408.205 62.1201C408.855 62.7697 409.342 63.7441 410.641 63.7441H432.972C434.759 63.7441 437.52 62.8509 438.656 62.1201C439.956 61.3081 441.174 60.496 442.392 59.4404C442.473 59.3592 442.473 59.3592 442.554 59.278C444.99 57.0043 447.67 52.5382 447.67 49.1277C447.67 45.8795 447.67 44.0931 446.046 41.3322C445.64 40.6826 444.99 39.8705 444.503 39.3021C443.853 38.6525 443.366 38.2465 442.554 37.7593C440.686 36.7036 439.144 36.3788 436.87 36.3788L415.676 36.2976C413.89 36.2164 413.89 36.2976 412.834 36.9472C412.022 37.4345 411.21 37.6781 410.317 37.9217C405.526 39.3021 400.247 38.8149 395.619 37.9217C394.563 37.7593 388.96 36.2164 388.96 35.7292C388.96 34.9172 389.366 34.836 390.178 34.9172C390.828 35.0796 391.234 35.1608 391.965 35.1608C394.157 35.4044 403.496 36.7848 404.551 35.7292C404.795 35.5668 405.12 34.9984 405.12 34.7548C405.12 33.3743 403.252 33.6991 401.872 33.6991L397.568 33.5367C396.025 33.2931 392.696 33.4555 391.153 33.2119C390.747 33.2119 389.529 33.3743 389.529 32.8871C389.529 31.6691 391.072 32.0751 393.345 32.0751H402.521C403.983 32.0751 406.419 32.5623 406.419 31.1006C406.419 30.3698 405.444 30.5322 404.714 30.6134H390.909C389.772 30.5322 389.854 30.2074 390.178 29.4766L394.482 29.3142C395.132 29.233 395.7 29.233 396.593 29.233C397.487 29.233 397.893 29.0706 398.705 29.0706C400.735 29.0706 403.171 29.0706 405.201 28.827C406.419 28.5834 406.906 26.5533 405.363 26.5533C401.872 26.5533 395.7 27.0405 392.208 27.5277C391.64 27.6089 390.909 27.6901 390.503 27.7713C390.503 26.1473 391.721 26.3909 393.183 25.9849C395.375 25.2541 397.568 24.9292 399.923 24.6044C403.739 24.036 408.936 23.7924 412.509 25.3353C413.808 25.9037 414.864 26.9593 415.514 27.2029C415.92 27.3653 416.488 27.4465 416.975 27.4465H437.844C441.742 27.4465 445.153 26.4721 447.913 23.9548L450.35 21.4375C451.73 19.8947 452.704 18.027 453.435 15.9157C455.871 8.44508 451.811 0 443.61 0H394.238C393.102 0 391.965 0.0812027 390.99 0.324811C389.123 0.812027 387.417 1.46165 385.793 2.51728C383.601 3.97893 381.733 6.009 380.515 8.36388C379.622 10.1503 379.297 11.8556 378.891 14.1293L376.699 26.7157C376.536 27.7713 376.374 28.7458 376.211 29.8014C375.968 30.9382 375.724 31.9939 375.643 33.0495C375.156 36.5412 374.019 41.9006 373.369 45.5547C373.045 47.666 372.72 49.6961 372.314 51.8885L370.608 61.3081C370.365 62.3637 370.284 63.5817 370.04 64.5562L367.279 80.2283C366.873 82.9892 365.736 87.2929 365.736 89.8102Z" fill="#01AA1B"/>
<path fill-rule="evenodd" clip-rule="evenodd" d="M475.607 85.7476C472.927 85.7476 470.491 84.9355 469.111 82.9055C468.217 81.6874 468.298 80.713 468.298 79.2514C468.298 75.11 473.739 72.3491 477.231 71.3747C482.103 69.913 486.244 69.6694 492.497 69.6694L491.766 72.9987C490.71 77.1401 488.274 80.2258 484.945 82.7431C482.509 84.5295 478.611 85.7476 475.607 85.7476ZM457.174 40.0304C457.174 43.6034 457.661 43.847 458.554 47.1763C459.123 49.1251 459.61 50.5056 461.071 51.9672C463.345 54.3221 467.324 53.4289 470.004 52.4545C470.572 52.292 471.141 51.9672 471.79 51.8048C472.521 51.6424 473.008 51.3176 473.739 51.1552C477.231 50.1808 484.945 48.3131 488.193 51.2364L488.843 51.9672C489.574 53.1853 489.086 54.7281 488.68 56.271C481.535 56.271 472.034 57.1642 465.456 59.3567C464.238 59.7627 463.183 60.0875 462.046 60.4935C461.559 60.6559 460.99 60.8995 460.584 61.1431C454.981 63.4168 450.19 66.7461 446.78 71.7807C445.075 74.3792 443.532 78.5205 443.532 81.8498C443.532 85.6664 443.45 88.8333 445.562 92.4062L446.699 94.3551C448.485 96.7911 450.759 98.4964 453.601 99.7956C456.362 101.095 462.371 102.313 465.7 102.881C466.593 102.963 467.486 103.044 468.461 103.206C469.273 103.287 470.572 103.369 471.384 103.369L474.389 103.531C481.535 103.531 488.68 102.557 495.501 100.608C496.801 100.202 497.775 99.7956 498.993 99.3896L501.348 98.4152C503.297 97.4408 504.596 96.7099 506.383 95.3295C511.255 91.7566 512.392 87.2904 513.285 81.525L514.584 73.6484C515.234 70.1566 517.751 56.1086 517.913 53.8349C518.157 50.9116 518.157 47.5823 517.67 45.1462C517.507 44.4154 517.345 44.0906 517.183 43.3597C516.777 41.4921 516.046 40.0304 515.152 38.4876C510.443 29.9613 499.643 26.5508 490.223 26.5508C481.941 26.5508 478.124 27.2816 470.41 29.4741C469.923 29.5553 469.598 29.6365 469.192 29.7989L465.132 31.2605C462.777 32.0726 459.935 33.5342 458.554 35.8079C457.905 36.8635 457.174 38.4064 457.174 40.0304Z" fill="#01AA1B"/>
<path fill-rule="evenodd" clip-rule="evenodd" d="M534.56 29.6385C532.043 29.6385 530.094 29.7197 528.308 30.5317C526.602 31.1813 525.709 31.9934 524.653 33.2114C522.623 35.7287 522.299 38.8144 521.73 42.1437C521.324 44.4986 520.999 45.9602 521.893 48.3963C522.38 49.6956 523.517 50.67 524.735 51.2384C526.359 51.9692 527.496 52.0504 529.607 52.0504C529.607 54.2429 525.222 74.706 525.222 78.8473C525.222 83.3135 525.79 86.3992 527.902 89.8097C529.282 92.1646 531.474 94.2759 533.829 95.7375C534.235 95.8999 534.398 96.0623 534.723 96.3059L537.727 97.7676C543.655 100.122 554.455 102.153 560.87 99.3916C563.631 98.1736 564.849 96.3871 565.904 93.7886C566.229 92.8954 567.447 86.1556 567.61 84.8563C567.935 82.7451 568.99 79.0097 566.31 77.3045C563.387 75.3556 560.058 76.0052 557.703 74.706C554.374 72.7571 555.754 68.7782 556.241 65.6925L558.677 52.0504C561.113 52.0504 564.443 52.2128 566.473 51.8068C567.528 51.5632 568.584 51.1572 569.477 50.67C573.862 48.2339 574.106 43.7678 574.918 39.87C577.029 29.1513 570.127 29.6385 562.575 29.6385C562.819 28.5016 562.981 27.3648 563.225 26.228C563.55 23.8731 564.849 17.6205 564.849 15.6716C564.849 9.66261 560.301 8.93179 555.429 8.93179C551.532 8.93179 544.711 8.44457 541.544 10.231C536.834 12.9107 536.834 17.5393 535.859 22.1678C535.697 23.2235 535.453 24.6851 535.291 25.822C535.129 26.4716 535.047 26.9588 534.885 27.6896C534.804 28.3392 534.723 28.9889 534.56 29.6385Z" fill="#01AA1B"/>
<path fill-rule="evenodd" clip-rule="evenodd" d="M2.60156 55.0574C2.60156 56.1943 3.25118 56.8439 4.30682 56.8439H12.9955C15.5128 56.8439 16.3248 53.0273 13.5639 53.0273H4.71283C3.7384 53.0273 2.60156 54.3266 2.60156 55.0574Z" fill="black"/>
<path fill-rule="evenodd" clip-rule="evenodd" d="M12.7489 71.1338H21.5188C24.1173 71.1338 24.8481 67.3984 22.0872 67.3984H13.2361C11.0436 67.3984 10.2316 71.1338 12.7489 71.1338Z" fill="black"/>
<path fill-rule="evenodd" clip-rule="evenodd" d="M0 90.6238C0 91.5983 0.406014 92.4103 1.38045 92.4103H10.7188C12.5864 92.4103 14.0481 88.5938 10.5564 88.5938H2.67969C1.38045 88.5938 0 89.487 0 90.6238Z" fill="black"/>
<path fill-rule="evenodd" clip-rule="evenodd" d="M10.9629 98.5044C10.9629 99.4788 11.3689 100.291 12.3433 100.291H21.5192C23.8741 100.291 24.3613 96.6367 22.1689 96.6367H12.8306C12.0185 96.6367 10.9629 97.6924 10.9629 98.5044Z" fill="black"/>
<path fill-rule="evenodd" clip-rule="evenodd" d="M14.6152 91.5948C14.6152 92.7317 16.4017 93.5437 17.5385 92.4068C18.7566 91.1076 18.1882 89.4023 16.6453 89.4023C15.5897 89.4023 14.6152 90.5392 14.6152 91.5948Z" fill="black"/>
<path fill-rule="evenodd" clip-rule="evenodd" d="M16.8926 105.965C16.8926 108.239 20.4655 107.589 20.4655 105.641C20.4655 103.042 18.1106 103.935 17.6234 104.504C17.3798 104.747 16.8926 105.478 16.8926 105.965Z" fill="black"/>
<path fill-rule="evenodd" clip-rule="evenodd" d="M5.92773 69.6669C5.92773 72.103 9.50065 71.2909 9.50065 69.0173C9.50065 67.0684 5.92773 67.2308 5.92773 69.6669Z" fill="black"/>
<path fill-rule="evenodd" clip-rule="evenodd" d="M17.707 76.9753C17.707 79.0054 21.28 78.9242 21.28 76.1633C21.28 74.2144 17.707 74.458 17.707 76.9753Z" fill="black"/>
<path fill-rule="evenodd" clip-rule="evenodd" d="M18.2746 56.684C20.9543 56.684 21.5227 53.2734 18.8431 53.2734C17.9498 53.2734 17.219 54.0855 17.0566 54.8163C16.7318 55.7095 17.3002 56.684 18.2746 56.684Z" fill="black"/>
<path fill-rule="evenodd" clip-rule="evenodd" d="M5.44141 98.6569C5.44141 100.849 8.93312 100.687 8.93312 97.9261C8.93312 95.9772 5.44141 96.5457 5.44141 98.6569Z" fill="black"/>
<path d="M48.4507 66.4423C46.7203 68.0396 48.4507 82.9473 48.4507 83.7459V85.6093L51.3794 87.6059H52.9767C53.9084 86.9404 55.7719 85.4496 55.7719 84.8107V81.0838C55.7719 79.9125 56.5705 77.6674 56.9698 76.6914L57.9015 72.1658C58.3896 70.8348 59.552 67.9597 60.2974 67.1078C61.0428 66.256 62.8264 63.4697 63.625 62.183C64.823 60.6745 67.2987 57.4711 67.6182 56.7257C67.9376 55.9803 70.4133 53.3094 71.6113 52.0671L75.6044 50.8691L81.1948 48.207H88.6486L93.3073 49.1388L98.2321 50.8691C100.628 52.8657 105.473 57.0185 105.686 57.6574C105.899 58.2963 106.928 61.828 107.416 63.514C107.727 65.7324 108.348 70.3822 108.348 71.2341V76.6914C108.348 77.4367 107.727 81.7049 107.416 83.7459L108.348 85.6093H110.611L113.672 82.5479L116.068 76.6914L116.734 70.1692V63.514L113.672 53.5312L108.348 45.9443L98.8976 40.487L85.9865 39.2891L69.6147 43.5484L59.3657 52.0671C56.3041 56.3264 49.835 65.1645 48.4507 66.4423Z" fill="#01AA1B"/>
<path fill-rule="evenodd" clip-rule="evenodd" d="M51.4998 83.7937C50.5753 82.1858 51.0175 78.6082 51.0175 76.6385C51.0175 67.0716 57.3284 56.2987 64.5238 50.3897C88.2804 30.9744 118.107 44.2395 115.213 70.8903C114.69 75.513 113.645 78.0052 111.715 81.7838C110.871 83.3917 110.992 83.6329 108.982 83.7937C108.982 74.7895 114.569 62.1675 104.078 51.8368C96.3198 44.2395 81.7282 44.6013 72.9652 49.7063C66.4934 53.4849 62.8757 56.8615 58.8961 63.4136C56.3637 67.5137 55.2382 72.3776 54.3136 77.0807C53.3489 82.0652 54.0725 83.5123 51.4998 83.7937ZM90.451 20.1211H93.0639C101.465 20.3221 109.826 22.6133 117.021 27.3968C136.356 40.3002 137.964 63.0116 129.362 83.6329C124.86 94.4058 115.856 103.973 106.289 110.364C103.756 112.052 101.144 114.143 97.4454 113.098C94.3502 112.173 92.2197 109.721 92.2197 105.862C92.2197 102.043 95.2747 86.7683 95.9983 81.3818C97.0434 73.5835 99.817 64.0166 94.6316 58.8713C89.4863 53.6859 79.3968 55.8163 74.8143 60.1978C72.4426 62.5293 70.5132 65.0215 69.4278 68.7197C68.1817 72.9806 58.5746 128.533 56.7657 139.387C52.746 163.947 24.8088 164.148 21.794 151.325C20.1057 151.325 16.689 151.767 15.2821 151.084C13.634 150.28 14.4781 148.471 15.7242 147.667C19.9047 144.934 26.5775 150.28 26.5775 144.17H18.4576C16.1664 144.17 14.8399 140.03 20.3871 139.869C23.1205 139.748 23.9647 140.231 24.2059 137.457C22.1156 136.452 18.94 137.859 18.94 135.045C18.94 129.337 33.2904 135.528 33.2904 131.227V129.779H16.0458C11.8653 129.779 13.5134 127.167 14.6389 125.478C24.1255 125.478 26.4971 126.724 26.5775 122.584C18.0959 122.584 22.2362 119.047 22.7588 118.283C23.9245 118.283 28.6276 118.444 29.3913 118.203C31.2806 117.559 31.2404 115.349 28.9893 114.947C27.7834 114.746 23.7637 114.947 22.2764 114.947C15.2017 115.027 16.3272 114.263 18.4576 111.128C21.1509 111.128 23.8843 111.088 26.6177 111.128C29.2707 111.128 32.8081 111.811 32.8081 109.198C32.8081 106.787 27.8236 107.832 25.5726 107.791C21.1509 107.711 22.3568 105.942 23.7235 103.933C28.1452 103.933 30.9188 104.736 29.9541 100.556C24.9696 100.556 23.5627 100.556 26.1353 96.7372C29.4315 96.7372 39.521 97.9833 39.521 94.8479C39.521 92.4763 33.5316 93.4008 28.9893 93.4008C24.5676 93.4008 19.4224 94.3254 19.4224 91.4714C19.4224 86.3261 32.8081 91.5517 32.8081 87.6526C32.8081 84.477 27.5422 87.9742 27.5422 84.276C27.5422 78.9298 36.667 85.5623 36.667 79.0102C29.9541 79.0102 23.2411 80.2161 23.2411 77.1209C23.2411 71.6943 35.2199 78.0454 35.7023 72.3374C32.6875 70.8903 25.1706 73.5031 25.1706 69.9256C25.1706 65.1421 32.6875 70.5687 32.8081 64.6597H29.4717C25.4118 64.6597 28.9893 60.3586 28.9893 60.3586C39.923 60.3586 41.9329 61.7253 41.9329 57.4644H25.1706C23.4019 57.4644 22.8391 56.7409 21.794 56.0575C22.5578 52.7613 24.1657 53.1231 28.0246 53.1633C34.0944 53.2035 35.2199 54.1682 35.2199 50.3093C33.0895 50.2289 32.9689 49.8269 30.4364 49.8269C29.6727 46.4905 29.7531 48.42 31.4012 45.968C33.0493 45.968 35.0993 46.0886 36.7072 46.0082C38.8779 45.9278 39.0387 45.8876 39.521 44.0787C38.3553 42.31 38.5965 42.5914 35.7425 42.5914C27.301 42.6316 23.8039 43.6767 27.0599 38.8129C33.8934 38.8129 40.9279 38.9736 47.7213 38.853C50.2939 38.7727 50.0527 38.6521 51.4194 37.2452C53.8313 34.7127 56.9667 32.5019 59.8207 30.3714C68.3425 24.1408 79.3566 20.4025 90.451 20.1211Z" fill="black"/>
<path fill-rule="evenodd" clip-rule="evenodd" d="M2.65625 55.5798C2.65625 58.3132 8.44466 57.469 12.2232 57.469C16.4439 57.469 16.3635 53.1679 13.6703 53.1679C9.00743 53.1679 2.65625 52.1228 2.65625 55.5798Z" fill="black"/>
<path fill-rule="evenodd" clip-rule="evenodd" d="M11.2617 69.9196C11.2617 72.653 17.0903 71.8491 20.8689 71.8491C24.567 71.8491 25.2906 67.5078 22.2758 67.5078C17.6129 67.5078 11.2617 66.4626 11.2617 69.9196Z" fill="black"/>
<path fill-rule="evenodd" clip-rule="evenodd" d="M13.6755 101.042C21.2326 101.042 23.7248 102.047 23.7248 97.2235C20.1472 96.3794 18.4187 96.7411 14.1578 96.7411C10.4195 96.7411 9.49494 101.042 13.6755 101.042Z" fill="black"/>
<path fill-rule="evenodd" clip-rule="evenodd" d="M1.69403 92.9164H10.7786C13.1101 92.9164 13.9944 89.0977 11.261 89.0977H2.1764C-0.155049 89.0977 -1.03939 92.9164 1.69403 92.9164Z" fill="black"/>
<path fill-rule="evenodd" clip-rule="evenodd" d="M17.0059 55.574C17.0059 60.5183 24.4424 53.6445 18.9353 53.6445C17.8098 53.6445 17.0059 54.4485 17.0059 55.574Z" fill="black"/>
<path fill-rule="evenodd" clip-rule="evenodd" d="M14.6387 91.4763C14.6387 92.5617 14.7995 92.0391 15.121 93.4058C19.2614 93.4058 19.0202 91.8381 17.4927 89.5469C16.5279 89.7881 14.6387 90.4714 14.6387 91.4763Z" fill="black"/>
<path fill-rule="evenodd" clip-rule="evenodd" d="M17.0059 106.298C17.0059 108.71 20.8648 108.026 20.8648 105.856C20.8648 103.122 17.0059 104.006 17.0059 106.298Z" fill="black"/>
<path fill-rule="evenodd" clip-rule="evenodd" d="M5.99414 69.9256C5.99414 71.0109 6.39611 70.9707 6.95888 71.855C9.69229 71.2119 9.93348 70.4883 9.37072 67.9961C7.44124 67.9961 5.99414 68.0363 5.99414 69.9256Z" fill="black"/>
<path fill-rule="evenodd" clip-rule="evenodd" d="M5.51367 99.1513C5.51367 100.84 6.47841 100.558 8.40788 100.558C11.2619 95.1316 5.51367 96.7796 5.51367 99.1513Z" fill="black"/>
<path fill-rule="evenodd" clip-rule="evenodd" d="M17.4922 77.6045L18.9393 79.0114C24.0845 77.8055 20.5472 71.8563 17.4922 77.6045Z" fill="black"/>
</svg>
