<?xml version="1.0" encoding="UTF-8"?>
<svg id="Layer_1" data-name="Layer 1" xmlns="http://www.w3.org/2000/svg" viewBox="0 0 213 58.89">
  <defs>
    <style>
      .cls-1 {
        fill: #01aa1b;
      }

      .cls-1, .cls-2 {
        fill-rule: evenodd;
      }
    </style>
  </defs>
  <path class="cls-2" d="m14.58,16.14c0,1.41-2.1.63-2.92.87-.48.15-.84,1.02-.24,1.26.21.09.42.03.69.06.09.03.6.03.69.06.57.18.33,1.23-.54,1.23h-3.19c-.33,0-.45.06-.63.18-.36.3-.54,1.11.27,1.17,1.29.12,3.79.06,5.2.06.69,0,1.65-.18,1.65.48,0,.6-.42.78-.93.75-1.14,0-2.35-.03-3.46,0-.99.06-1.32,1.05-.72,1.35.39.21,1.71-.24,1.71.57,0,.24-.18.51-.33.63-.27.18-.93.09-1.29.15-.48.06-.81-.06-1.11.39-.36.51-.09.99.57,1.02.42.03,2.65-.09,2.89.06.24.15.3.39.21.66-.24.63-.84.54-1.44.54-.63,0-1.32-.06-1.92.03-.15,0-1.17-.12-1.17.81,0,.57.51.54.96.54h3.01c.69,0,1.08-.06,1.08.6,0,.84-1.32.66-1.8.66-.57,0-1.14-.09-1.5.33-.24.3-.24.72.06.96.57.42,1.74-.36,1.74.72,0,.96-1.89.69-2.5.69h-1.62c-.24,0-.36.03-.57.21-.09.09-.27.39-.27.54,0,.75.78.6,1.5.6.9,0,4.75-.06,5.35,0,1.02.12.66,1.29-.27,1.29h-3.46c-.3,0-.54.03-.72.15-.24.15-.33.45-.33.75,0,.48.48.51.99.51.39,0,.99-.09.99.51,0,.27-.24.57-.42.66-.69.33-1.8-.27-2.31.45-.3.42-.12.99.45,1.02.81.06,1.68,0,2.5,0,.87,0,.96.72.45,1.11-.42.33-1.98.21-2.56.21-.54,0-2.19-.12-2.62.12-.39.21-.63,1.05-.09,1.2.45.12,3.94-.12,4.45.09.6.24.18,1.02-.18,1.17-.66.27-1.86-.18-2.5.12-.42.21-.78.96-.24,1.26.48.24,1.71-.21,1.71.57,0,.24-.09.45-.24.57-.48.42-1.59.24-2.19.24-.75,0-1.89-.15-2.25.21-.3.3-.39.96.15,1.11.6.15,6.22-.15,6.73.09.51.24.33.93-.18,1.14-.78.36-4.03-.18-4.6.24-.54.42-.54,1.26.54,1.26.57,0,1.11-.09,1.11.48,0,1.26-1.86.51-2.44.87-.24.15-.42.39-.42.75,0,.75,1.14.54,1.89.54.33,0,1.47-.09,1.71.09.42.3.15.93-.21,1.11-.9.45-3.7-.48-4.09.63-.12.3-.03.69.27.78.24.12,1.89.03,2.31.03.24.45.42.9.72,1.29,1.68,2.13,5.02,2.28,7.37,1.2l.84-.45c1.14-.72,2.16-1.77,2.83-2.95.45-.84.75-1.62.99-2.59.06-.24.09-.42.15-.69l1.44-8.33c.15-.96.39-2.01.54-3.01.12-1.02.33-1.98.51-3.01l.54-3.01c.27-1.59,1.26-7.46,1.68-8.93.24-.87.72-1.71,1.23-2.34.21-.24.36-.48.6-.66l1.29-.99c.72-.45,1.86-.81,2.74-.81,1.44,0,2.53.18,3.55,1.23.3.3.63.78.78,1.23.45,1.14.36,2.47.18,3.7l-.48,3.43c-.24,1.68-.57,3.4-.84,5.08l-.27,1.65c-.27,1.65-.69,3.76,1.08,4.69.87.45,2.04.24,2.8-.24.81-.48,1.59-1.02,2.35-1.56.72-.57,1.44-1.14,2.1-1.8l1.89-2.01c.57-.72,1.17-1.5,1.65-2.31.9-1.56,1.56-2.95,2.19-4.66.6-1.59,1.17-4.03,1.17-5.74s-.06-2.92-.48-4.6c-.39-1.5-.87-2.68-1.62-3.94l-.54-.81c-.06-.12-.12-.18-.18-.3l-.84-1.02c-.42-.54-1.32-1.41-1.95-1.8-.36-.27-.69-.54-1.08-.78-.39-.24-.75-.48-1.17-.66-.45-.24-.81-.42-1.29-.6-.9-.36-1.89-.66-2.86-.87-2.13-.51-4.78-.51-6.97-.09-.72.15-1.65.33-2.38.57-.6.24-1.2.39-1.77.63l-.78.36c-1.86.78-4.09,2.13-5.56,3.46l-.93.81s-.06.06-.09.09l-.54.51c-.15.15-.12.18-.42.18-2.16.03-4.33,0-6.49,0-.3,0-.33.03-.57.06-.36,0-.84-.09-1.11.09-.51.3-.69,1.23.27,1.26l3.61-.03c.39,0,.75.09.75.48Zm17.29-1.08c-3.46.27-7.04,2.07-9.23,4.45-2.07,2.22-3.88,5.41-4,9.68-.03.48,0,1.14.18,1.53.27.57.69.3.87-.15.15-.36.21-1.02.3-1.44.45-2.56.84-4.24,2.16-6.37,1.5-2.38,4.39-4.87,8.15-5.56,6.46-1.2,11.15,2.86,10.34,9.56-.12.99-.3,1.95-.45,2.95-.06.39-.18,1.26.27,1.32.45.06.69-.6.87-.9.81-1.62,1.38-3.31,1.38-5.44-.03-2.07-.66-3.82-1.59-5.26-1.59-2.44-4.78-4.69-9.26-4.36Z"/>
  <path class="cls-2" d="m104.38,36.71c1.29,0,4.21.12,5.26-.21.87-.24,1.5-.72,1.96-1.5.57-.96.69-2.25.87-3.43l.42-2.22c.09-.51.15-1.05.27-1.5.18-.99.3-1.95.51-2.95.21-.99.42-1.83.78-2.65.42-.9.81-1.38,1.47-1.98.81-.78,2.28-1.05,3.4-.84.45.09.87.36,1.05.78.27.66.06,1.71-.09,2.47-.12.54-.18,1.02-.27,1.59-.12.57-.21,1.08-.3,1.62l-.87,4.9c-.18.99-.51,2.65-.51,3.64,0,1.65,1.35,2.28,2.89,2.28h3.88c1.86,0,3.31-.96,3.79-2.71.15-.6,1.32-7.37,1.47-8.3.15-.93.36-1.8.51-2.74.51-3.28,1.77-7.55-.42-10.46-.78-1.05-1.71-1.71-3.04-2.16-1.99-.63-4.81-.75-6.86-.15-1.41.42-2.43.96-3.58,1.86l-.69.63c-.12.12-.24.21-.33.33-.12.15-.18.24-.33.36l1.2-6.4c.06-.3.09-.6.15-.93.24-1.26.57-2.62.48-3.79-.03-.63-.39-1.14-.78-1.41-.45-.36-1.05-.54-1.65-.54h-4.57c-1.29,0-2.35.57-2.98,1.53-.63.93-.81,2.31-.99,3.52l-1.23,7.07c-.24,1.32-.63,3.28-.81,4.51-.06.45-.18.9-.24,1.32-.06.48-.15.84-.21,1.29l-1.8,10.25c-.15.78-.63,3.19-.69,3.88-.12,1.05.06,2.04,1.02,2.62.48.3,1.23.42,1.86.42Z"/>
  <path class="cls-2" d="m50.15,29.7c0,1.08-.03,1.44.21,2.56.09.54.3.93.48,1.41.36.87,1.44,2.04,2.28,2.47,1.35.72.75.36,2.04.81.66.27,2.65.42,3.43.42.66,0,1.17.06,1.86.06s1.17-.06,1.86-.06c1.29,0,2.47-.06,3.79-.06.84,0,2.68-.18,3.46-.36,1.98-.51,3.22-1.2,4.69-2.47.24-.24.9-1.02,1.11-1.29.45-.63,1.11-1.8,1.35-2.5.36-1.02.69-1.89.84-2.98.18-1.29.63-3.49.87-4.9.09-.57.18-1.02.27-1.62.03-.27.09-.51.15-.78l.57-3.31c.15-.75.66-3.61.66-4.12,0-.93-.15-1.62-.96-2.16-.96-.63-3.91-.45-5.29-.45-2.01,0-3.64.6-4.24,2.56-.24.75-.9,4.9-1.08,5.8l-.51,2.89c-.18,1.02-.33,1.92-.51,2.95-.24,1.32-.51,2.71-2.04,3.07-.96.21-3.04.36-3.73-.39-.69-.78-.3-1.98-.15-2.92.06-.33.12-.75.18-1.05l.9-5.08c.06-.36.12-.66.18-1.05.21-1.2.69-3.34.69-4.45,0-.84-.39-1.44-1.02-1.86-.93-.63-3.88-.45-5.26-.45-1.53,0-2.71.27-3.61,1.35-.15.18-.18.24-.3.48-.54.99-.63,2.13-.84,3.34l-.99,5.59c-.06.24-.09.42-.12.69l-.36,2.13c-.12.48-.15.9-.24,1.41-.24,1.17-.63,3.22-.63,4.33Z"/>
  <path class="cls-2" d="m91.01,27.96c0,.39-.03.69-.51.96-.72.39-2.1.24-2.83.03-1.8-.54-1.47-.57-2.65-1.02-1.41-.51-2.53-.51-3.76.39-.48.36-.81.9-1.2,1.35l-1.11,1.44c-1.05,1.56-1.02,3.01.66,4.12,1.98,1.32,5.89,2.07,8.12,2.07,2.83,0,4.99-.45,7.43-1.65,2.5-1.26,4.48-3.52,5.38-6.19.48-1.44.75-3.85.06-5.23-.06-.12-.09-.18-.15-.33-.3-.69-1.23-1.56-1.83-1.98-.96-.6-1.92-.99-3.04-1.29-.27-.06-.48-.15-.81-.21-.33-.09-.6-.15-.9-.21-.69-.15-3.1-.51-3.1-1.26,0-.87.93-1.05,1.65-1.05,2.77,0,5.44,2.38,7.49.57l.33-.33c.45-.54.42-.51.81-1.11.78-1.17,1.68-2.22,1.68-3.7,0-1.59-1.41-2.07-2.44-2.5-.48-.18-1.71-.51-2.25-.63-2.28-.48-5.95-.57-8.24.06-.36.12-.69.15-1.02.27-.9.33-1.83.63-2.68,1.14-1.2.72-1.8,1.11-2.83,2.22-1.29,1.38-2.16,3.4-2.38,5.29l-.09,1.14c.03,1.05.27,2.1.81,3.01.09.15.18.24.27.36.48.63,1.05,1.08,1.71,1.5,1.32.78,3.22,1.29,4.69,1.62.42.06,2.71.54,2.71,1.14Z"/>
  <path class="cls-1" d="m135.41,33.25c0,.66.12,1.23.36,1.74.33.6.75,1.08,1.29,1.41.18.12.36.24.57.33.42.15.99.27,1.56.27h18.55c1.68,0,2.83-.75,3.91-1.83,1.11-1.08,1.74-2.68,1.74-4.27,0-1.95-1.59-4-3.76-4h-8c-.54,0-.81.48-1.08.78-.45.48-.57.45-1.14.75-1.2.6-2.19.81-3.61.81-.66,0-1.23-.21-1.71-.42-1.26-.51-2.95-2.32-2.16-3.97.27-.51.57-.81.93-1.2.39-.39.78-.69,1.23-.99,1.77-1.11,4.33-1.5,6.19-.33.36.21.54.39.84.66.24.24.42.6.9.6h8.27c.66,0,1.68-.33,2.1-.6.48-.3.93-.6,1.38-.99t.06-.06c.9-.84,1.89-2.5,1.89-3.76s0-1.86-.6-2.89c-.15-.24-.39-.54-.57-.75-.24-.24-.42-.39-.72-.57-.69-.39-1.26-.51-2.1-.51l-7.85-.03c-.66-.03-.66,0-1.05.24-.3.18-.6.27-.93.36-1.77.51-3.73.33-5.44,0-.39-.06-2.46-.63-2.46-.81,0-.3.15-.33.45-.3.24.06.39.09.66.09.81.09,4.27.6,4.66.21.09-.06.21-.27.21-.36,0-.51-.69-.39-1.2-.39l-1.59-.06c-.57-.09-1.8-.03-2.38-.12-.15,0-.6.06-.6-.12,0-.45.57-.3,1.41-.3h3.4c.54,0,1.44.18,1.44-.36,0-.27-.36-.21-.63-.18h-5.11c-.42-.03-.39-.15-.27-.42l1.59-.06c.24-.03.45-.03.78-.03s.48-.06.78-.06c.75,0,1.65,0,2.41-.09.45-.09.63-.84.06-.84-1.29,0-3.58.18-4.87.36-.21.03-.48.06-.63.09,0-.6.45-.51.99-.66.81-.27,1.62-.39,2.49-.51,1.41-.21,3.34-.3,4.66.27.48.21.87.6,1.11.69.15.06.36.09.54.09h7.73c1.44,0,2.71-.36,3.73-1.29l.9-.93c.51-.57.87-1.26,1.14-2.04.9-2.77-.6-5.89-3.64-5.89h-18.28c-.42,0-.84.03-1.2.12-.69.18-1.32.42-1.92.81-.81.54-1.5,1.29-1.95,2.16-.33.66-.45,1.29-.6,2.13l-.81,4.66c-.06.39-.12.75-.18,1.14-.09.42-.18.81-.21,1.2-.18,1.29-.6,3.28-.84,4.63-.12.78-.24,1.53-.39,2.35l-.63,3.49c-.09.39-.12.84-.21,1.2l-1.02,5.8c-.15,1.02-.57,2.62-.57,3.55Z"/>
  <path class="cls-1" d="m176.09,31.75c-.99,0-1.9-.3-2.41-1.05-.33-.45-.3-.81-.3-1.35,0-1.53,2.01-2.56,3.31-2.92,1.8-.54,3.34-.63,5.65-.63l-.27,1.23c-.39,1.53-1.29,2.68-2.52,3.61-.9.66-2.35,1.11-3.46,1.11Zm-6.82-16.93c0,1.32.18,1.41.51,2.65.21.72.39,1.23.93,1.77.84.87,2.32.54,3.31.18.21-.06.42-.18.66-.24.27-.06.45-.18.72-.24,1.29-.36,4.15-1.05,5.35.03l.24.27c.27.45.09,1.02-.06,1.59-2.65,0-6.16.33-8.6,1.14-.45.15-.84.27-1.26.42-.18.06-.39.15-.54.24-2.08.84-3.85,2.07-5.11,3.94-.63.96-1.2,2.5-1.2,3.73,0,1.41-.03,2.59.75,3.91l.42.72c.66.9,1.5,1.53,2.55,2.01,1.02.48,3.25.93,4.48,1.14.33.03.66.06,1.02.12.3.03.78.06,1.08.06l1.11.06c2.65,0,5.29-.36,7.82-1.08.48-.15.84-.3,1.29-.45l.87-.36c.72-.36,1.2-.63,1.86-1.14,1.8-1.32,2.23-2.98,2.56-5.11l.48-2.92c.24-1.29,1.17-6.49,1.23-7.34.09-1.08.09-2.32-.09-3.22-.06-.27-.12-.39-.18-.66-.15-.69-.42-1.23-.75-1.8-1.74-3.16-5.74-4.42-9.23-4.42-3.07,0-4.48.27-7.34,1.08-.18.03-.3.06-.45.12l-1.5.54c-.87.3-1.92.84-2.44,1.68-.24.39-.51.96-.51,1.56Z"/>
  <path class="cls-1" d="m197.92,10.97c-.93,0-1.65.03-2.32.33-.63.24-.96.54-1.35.99-.75.93-.87,2.07-1.08,3.31-.15.87-.27,1.41.06,2.32.18.48.6.84,1.05,1.05.6.27,1.02.3,1.8.3,0,.81-1.62,8.39-1.62,9.92,0,1.65.21,2.8.99,4.06.51.87,1.32,1.65,2.19,2.19.15.06.21.12.33.21l1.11.54c2.19.87,6.19,1.62,8.57.6,1.02-.45,1.47-1.11,1.86-2.07.12-.33.57-2.83.63-3.31.12-.78.51-2.16-.48-2.8-1.08-.72-2.32-.48-3.19-.96-1.23-.72-.72-2.19-.54-3.34l.9-5.05c.9,0,2.14.06,2.89-.09.39-.09.78-.24,1.11-.42,1.62-.9,1.71-2.56,2.01-4,.78-3.97-1.77-3.79-4.57-3.79.09-.42.15-.84.24-1.26.12-.87.6-3.19.6-3.91,0-2.22-1.68-2.5-3.49-2.5-1.44,0-3.97-.18-5.14.48-1.74.99-1.74,2.71-2.1,4.42-.06.39-.15.93-.21,1.35-.06.24-.09.42-.15.69-.03.24-.06.48-.12.72Z"/>
  <path class="cls-2" d="m.96,20.38c0,.42.24.66.63.66h3.22c.93,0,1.23-1.41.21-1.41H1.74c-.36,0-.78.48-.78.75Z"/>
  <path class="cls-2" d="m4.72,26.34h3.25c.96,0,1.23-1.38.21-1.38h-3.28c-.81,0-1.11,1.38-.18,1.38Z"/>
  <path class="cls-2" d="m0,33.55c0,.36.15.66.51.66h3.46c.69,0,1.23-1.41-.06-1.41H.99c-.48,0-.99.33-.99.75Z"/>
  <path class="cls-2" d="m4.06,36.47c0,.36.15.66.51.66h3.4c.87,0,1.05-1.35.24-1.35h-3.46c-.3,0-.69.39-.69.69Z"/>
  <path class="cls-2" d="m5.41,33.91c0,.42.66.72,1.08.3.45-.48.24-1.11-.33-1.11-.39,0-.75.42-.75.81Z"/>
  <path class="cls-2" d="m6.25,39.23c0,.84,1.32.6,1.32-.12,0-.96-.87-.63-1.05-.42-.09.09-.27.36-.27.54Z"/>
  <path class="cls-2" d="m2.2,25.8c0,.9,1.32.6,1.32-.24,0-.72-1.32-.66-1.32.24Z"/>
  <path class="cls-2" d="m6.55,28.5c0,.75,1.32.72,1.32-.3,0-.72-1.32-.63-1.32.3Z"/>
  <path class="cls-2" d="m6.77,20.99c.99,0,1.2-1.26.21-1.26-.33,0-.6.3-.66.57-.12.33.09.69.45.69Z"/>
  <path class="cls-2" d="m2.01,36.53c0,.81,1.29.75,1.29-.27,0-.72-1.29-.51-1.29.27Z"/>
</svg>